<svg width="16" height="15" viewBox="0 0 16 15" fill="none" xmlns="http://www.w3.org/2000/svg">
<mask id="path-1-inside-1_792_3281" fill="white">
<path d="M13.1419 4.75199L12.9779 5.12932C12.9522 5.19077 12.909 5.24325 12.8536 5.28017C12.7982 5.31709 12.7331 5.33679 12.6665 5.33679C12.6 5.33679 12.5349 5.31709 12.4795 5.28017C12.4241 5.24325 12.3808 5.19077 12.3552 5.12932L12.1912 4.75199C11.9029 4.08447 11.3748 3.54927 10.7112 3.25199L10.2052 3.02599C10.1438 2.99775 10.0918 2.9525 10.0554 2.89561C10.0189 2.83871 9.99953 2.77256 9.99953 2.70499C9.99953 2.63742 10.0189 2.57126 10.0554 2.51437C10.0918 2.45747 10.1438 2.41223 10.2052 2.38399L10.6832 2.17132C11.3635 1.86557 11.9006 1.31058 12.1839 0.620655L12.3532 0.213322C12.378 0.150224 12.4212 0.0960537 12.4772 0.0578717C12.5332 0.0196897 12.5994 -0.000732422 12.6672 -0.000732422C12.735 -0.000732422 12.8012 0.0196897 12.8572 0.0578717C12.9132 0.0960537 12.9564 0.150224 12.9812 0.213322L13.1499 0.619988C13.4329 1.31004 13.9697 1.86528 14.6499 2.17132L15.1285 2.38465C15.1897 2.41297 15.2416 2.45822 15.2779 2.51504C15.3142 2.57186 15.3335 2.63789 15.3335 2.70532C15.3335 2.77276 15.3142 2.83878 15.2779 2.89561C15.2416 2.95243 15.1897 2.99767 15.1285 3.02599L14.6219 3.25132C13.9584 3.5489 13.4306 4.08434 13.1425 4.75199M5.3332 1.33332C6.62832 1.33312 7.87926 1.80419 8.85256 2.65861C9.82585 3.51303 10.455 4.69242 10.6225 5.97666L12.1225 8.33599C12.2212 8.49132 12.2012 8.72266 11.9725 8.82132L10.6665 9.37999V11.3333C10.6665 11.6869 10.5261 12.0261 10.276 12.2761C10.026 12.5262 9.68683 12.6667 9.3332 12.6667H8.00054L7.99987 14.6667H1.99987V12.204C1.99987 11.4173 1.7092 10.6727 1.17054 10.0007C0.542375 9.21634 0.148568 8.27051 0.0344856 7.27215C-0.0795966 6.27379 0.0906879 5.26351 0.525721 4.3577C0.960755 3.45189 1.64284 2.68741 2.49339 2.15233C3.34393 1.61725 4.32834 1.33335 5.3332 1.33332ZM5.3332 2.66666C4.57959 2.66662 3.8413 2.87949 3.20338 3.28072C2.56546 3.68195 2.05386 4.25524 1.72752 4.93453C1.40118 5.61382 1.27338 6.37148 1.35884 7.12023C1.44429 7.86899 1.73953 8.57837 2.21054 9.16666C2.93987 10.076 3.3332 11.1113 3.3332 12.204V13.3333H6.66654L6.66787 11.3333H9.3332V8.50132L10.3665 8.05866L9.33787 6.44199L9.29987 6.14732C9.1738 5.18454 8.70182 4.30048 7.97196 3.66004C7.24211 3.01961 6.30421 2.66653 5.3332 2.66666ZM12.3265 11.3287L13.4359 12.0687C14.2406 10.8645 14.669 9.44826 14.6665 7.99999C14.6661 7.54443 14.6259 7.09999 14.5459 6.66666L13.2505 6.99999C13.3052 7.32577 13.3328 7.6591 13.3332 7.99999C13.3352 9.18483 12.9848 10.3435 12.3265 11.3287Z"/>
</mask>
<path d="M12.9779 5.12932L12.5193 4.93L12.5164 4.93683L12.9779 5.12932ZM12.6665 5.33679V5.83679V5.33679ZM12.3552 5.12932L12.8167 4.93681L12.8138 4.93002L12.3552 5.12932ZM12.1912 4.75199L11.7322 4.95026L11.7326 4.95129L12.1912 4.75199ZM10.7112 3.25199L10.9156 2.79568L10.9151 2.79546L10.7112 3.25199ZM10.2052 3.02599L9.99624 3.48026L10.0013 3.48252L10.2052 3.02599ZM9.99953 2.70499H9.49953H9.99953ZM10.2052 2.38399L10.0019 1.92713L9.99625 1.92974L10.2052 2.38399ZM10.6832 2.17132L10.8865 2.62815L10.8882 2.62738L10.6832 2.17132ZM12.1839 0.620655L11.7222 0.42872L11.7213 0.430733L12.1839 0.620655ZM12.3532 0.213322L12.815 0.405293L12.8186 0.396048L12.3532 0.213322ZM12.6672 -0.000732422V0.499268V-0.000732422ZM12.9812 0.213322L12.5157 0.396081L12.5194 0.404877L12.9812 0.213322ZM13.1499 0.619988L13.6125 0.430268L13.6117 0.428433L13.1499 0.619988ZM14.6499 2.17132L14.4447 2.62729L14.4463 2.62802L14.6499 2.17132ZM15.1285 2.38465L15.3385 1.93084L15.3321 1.92796L15.1285 2.38465ZM15.3335 2.70532H15.8335H15.3335ZM15.1285 3.02599L15.3317 3.4829L15.3385 3.47976L15.1285 3.02599ZM14.6219 3.25132L14.4187 2.79446L14.4172 2.79511L14.6219 3.25132ZM5.3332 1.33332L5.33322 1.83332H5.33328L5.3332 1.33332ZM10.6225 5.97666L10.1267 6.04134L10.1411 6.15132L10.2006 6.24492L10.6225 5.97666ZM12.1225 8.33599L12.5446 8.0679L12.5445 8.06773L12.1225 8.33599ZM11.9725 8.82132L12.1692 9.28103L12.1706 9.28041L11.9725 8.82132ZM10.6665 9.37999L10.4699 8.92028L10.1665 9.05005V9.37999H10.6665ZM8.00054 12.6667V12.1667H7.5007L7.50054 12.6665L8.00054 12.6667ZM7.99987 14.6667V15.1667H8.4997L8.49987 14.6668L7.99987 14.6667ZM1.99987 14.6667H1.49987V15.1667H1.99987V14.6667ZM1.17054 10.0007L0.780276 10.3132L0.780406 10.3134L1.17054 10.0007ZM5.3332 2.66666L5.33318 3.16666H5.33327L5.3332 2.66666ZM2.21054 9.16666L1.82023 9.47916L1.82049 9.47949L2.21054 9.16666ZM3.3332 13.3333H2.8332V13.8333H3.3332V13.3333ZM6.66654 13.3333V13.8333H7.1662L7.16654 13.3337L6.66654 13.3333ZM6.66787 11.3333V10.8333H6.1682L6.16787 11.333L6.66787 11.3333ZM9.3332 11.3333V11.8333H9.8332V11.3333H9.3332ZM9.3332 8.50132L9.13632 8.04172L8.8332 8.17157V8.50132H9.3332ZM10.3665 8.05866L10.5634 8.51826L11.1042 8.2866L10.7884 7.79024L10.3665 8.05866ZM9.33787 6.44199L8.84198 6.50594L8.85623 6.61642L8.91603 6.7104L9.33787 6.44199ZM9.29987 6.14732L9.79576 6.08337L9.79564 6.08241L9.29987 6.14732ZM12.3265 11.3287L11.9108 11.0509L11.6328 11.4669L12.0491 11.7446L12.3265 11.3287ZM13.4359 12.0687L13.1584 12.4846L13.574 12.7618L13.8516 12.3465L13.4359 12.0687ZM14.6665 7.99999L14.1665 8.00048L14.1665 8.00084L14.6665 7.99999ZM14.5459 6.66666L15.0376 6.57588L14.9403 6.04887L14.4213 6.18243L14.5459 6.66666ZM13.2505 6.99999L13.1259 6.51576L12.6815 6.63014L12.7574 7.08273L13.2505 6.99999ZM13.3332 7.99999L12.8332 8.00064L12.8332 8.00083L13.3332 7.99999ZM13.1419 4.75199L12.6833 4.55268L12.5193 4.93002L12.9779 5.12932L13.4364 5.32863L13.6004 4.95129L13.1419 4.75199ZM12.9779 5.12932L12.5164 4.93683C12.5288 4.90721 12.5496 4.8819 12.5763 4.86409L12.8536 5.28017L13.1309 5.69625C13.2684 5.60461 13.3757 5.47432 13.4393 5.32181L12.9779 5.12932ZM12.8536 5.28017L12.5763 4.86409C12.603 4.84629 12.6344 4.83679 12.6665 4.83679V5.33679V5.83679C12.8318 5.83679 12.9934 5.78789 13.1309 5.69625L12.8536 5.28017ZM12.6665 5.33679V4.83679C12.6986 4.83679 12.73 4.84629 12.7567 4.86409L12.4795 5.28017L12.2022 5.69625C12.3397 5.78789 12.5013 5.83679 12.6665 5.83679V5.33679ZM12.4795 5.28017L12.7567 4.86409C12.7835 4.8819 12.8043 4.90721 12.8167 4.93683L12.3552 5.12932L11.8937 5.32181C11.9574 5.47432 12.0647 5.60461 12.2022 5.69625L12.4795 5.28017ZM12.3552 5.12932L12.8138 4.93002L12.6498 4.55268L12.1912 4.75199L11.7326 4.95129L11.8966 5.32863L12.3552 5.12932ZM12.1912 4.75199L12.6502 4.55371C12.3123 3.77137 11.6934 3.1441 10.9156 2.79568L10.7112 3.25199L10.5068 3.70829C11.0562 3.95443 11.4935 4.39757 11.7322 4.95026L12.1912 4.75199ZM10.7112 3.25199L10.9151 2.79546L10.4091 2.56946L10.2052 3.02599L10.0013 3.48252L10.5073 3.70852L10.7112 3.25199ZM10.2052 3.02599L10.4142 2.57174C10.4396 2.58346 10.4612 2.60225 10.4764 2.62586L10.0554 2.89561L9.63436 3.16535C9.7224 3.30276 9.848 3.41204 9.99625 3.48023L10.2052 3.02599ZM10.0554 2.89561L10.4764 2.62586C10.4915 2.64948 10.4995 2.67694 10.4995 2.70499H9.99953H9.49953C9.49953 2.86818 9.54632 3.02795 9.63436 3.16535L10.0554 2.89561ZM9.99953 2.70499H10.4995C10.4995 2.73304 10.4915 2.7605 10.4764 2.78411L10.0554 2.51437L9.63436 2.24463C9.54632 2.38203 9.49953 2.5418 9.49953 2.70499H9.99953ZM10.0554 2.51437L10.4764 2.78411C10.4612 2.80773 10.4396 2.82651 10.4142 2.83823L10.2052 2.38399L9.99625 1.92974C9.848 1.99794 9.7224 2.10722 9.63436 2.24463L10.0554 2.51437ZM10.2052 2.38399L10.4085 2.84082L10.8865 2.62815L10.6832 2.17132L10.48 1.71449L10.002 1.92716L10.2052 2.38399ZM10.6832 2.17132L10.8882 2.62738C11.6852 2.26916 12.3145 1.61891 12.6464 0.810577L12.1839 0.620655L11.7213 0.430733C11.4867 1.00225 11.0417 1.46199 10.4782 1.71527L10.6832 2.17132ZM12.1839 0.620655L12.6456 0.812588L12.8149 0.405255L12.3532 0.213322L11.8915 0.0213886L11.7222 0.428722L12.1839 0.620655ZM12.3532 0.213322L12.8186 0.396048C12.8067 0.426471 12.7858 0.452594 12.7588 0.471008L12.4772 0.0578717L12.1956 -0.355265C12.0565 -0.260487 11.9493 -0.126022 11.8878 0.0305955L12.3532 0.213322ZM12.4772 0.0578717L12.7588 0.471008C12.7318 0.48942 12.6999 0.499268 12.6672 0.499268V-0.000732422V-0.500732C12.4989 -0.500732 12.3346 -0.45004 12.1956 -0.355265L12.4772 0.0578717ZM12.6672 -0.000732422V0.499268C12.6345 0.499268 12.6026 0.48942 12.5756 0.471008L12.8572 0.0578717L13.1388 -0.355265C12.9998 -0.45004 12.8355 -0.500732 12.6672 -0.500732V-0.000732422ZM12.8572 0.0578717L12.5756 0.471008C12.5486 0.452597 12.5277 0.426476 12.5158 0.396048L12.9812 0.213322L13.4466 0.0305955C13.3851 -0.126027 13.2779 -0.260489 13.1388 -0.355265L12.8572 0.0578717ZM12.9812 0.213322L12.5194 0.404877L12.688 0.811543L13.1499 0.619988L13.6117 0.428433L13.4431 0.0217667L12.9812 0.213322ZM13.1499 0.619988L12.6873 0.809707C13.0188 1.61819 13.6478 2.26872 14.4447 2.62729L14.6499 2.17132L14.855 1.71536C14.2916 1.46184 13.8469 1.00189 13.6125 0.43027L13.1499 0.619988ZM14.6499 2.17132L14.4463 2.62802L14.925 2.84135L15.1285 2.38465L15.3321 1.92796L14.8534 1.71463L14.6499 2.17132ZM15.1285 2.38465L14.9186 2.83843C14.8932 2.82667 14.8716 2.80789 14.8566 2.78431L15.2779 2.51504L15.6992 2.24577C15.6115 2.10854 15.4863 1.99928 15.3385 1.93088L15.1285 2.38465ZM15.2779 2.51504L14.8566 2.78431C14.8415 2.76073 14.8335 2.73332 14.8335 2.70532H15.3335H15.8335C15.8335 2.54245 15.7869 2.38299 15.6992 2.24577L15.2779 2.51504ZM15.3335 2.70532H14.8335C14.8335 2.67732 14.8415 2.64992 14.8566 2.62634L15.2779 2.89561L15.6992 3.16488C15.7869 3.02765 15.8335 2.86819 15.8335 2.70532H15.3335ZM15.2779 2.89561L14.8566 2.62634C14.8716 2.60275 14.8932 2.58397 14.9186 2.57221L15.1285 3.02599L15.3385 3.47976C15.4863 3.41137 15.6115 3.3021 15.6992 3.16488L15.2779 2.89561ZM15.1285 3.02599L14.9254 2.56913L14.4187 2.79447L14.6219 3.25132L14.8251 3.70818L15.3317 3.48284L15.1285 3.02599ZM14.6219 3.25132L14.4172 2.79511C13.6397 3.14388 13.021 3.77142 12.6834 4.55392L13.1425 4.75199L13.6016 4.95006C13.8401 4.39726 14.2772 3.95392 14.8265 3.70753L14.6219 3.25132ZM5.3332 1.33332L5.33328 1.83332C6.50698 1.83314 7.64065 2.26005 8.52269 3.03437L8.85256 2.65861L9.18242 2.28286C8.11788 1.34834 6.74966 0.833103 5.33313 0.833322L5.3332 1.33332ZM8.85256 2.65861L8.52269 3.03437C9.40474 3.80869 9.97489 4.87751 10.1267 6.04134L10.6225 5.97666L11.1183 5.91197C10.9351 4.50734 10.247 3.21738 9.18242 2.28286L8.85256 2.65861ZM10.6225 5.97666L10.2006 6.24492L11.7006 8.60425L12.1225 8.33599L12.5445 8.06773L11.0445 5.7084L10.6225 5.97666ZM12.1225 8.33599L11.7005 8.60407C11.6847 8.57929 11.6709 8.53884 11.6838 8.4845C11.6908 8.45508 11.7051 8.42553 11.7263 8.40073C11.7476 8.37587 11.7676 8.36517 11.7744 8.36224L11.9725 8.82132L12.1706 9.28041C12.4235 9.17129 12.5975 8.96529 12.6568 8.71531C12.7122 8.48181 12.659 8.24802 12.5446 8.0679L12.1225 8.33599ZM11.9725 8.82132L11.7759 8.36162L10.4699 8.92028L10.6665 9.37999L10.8632 9.83969L12.1692 9.28103L11.9725 8.82132ZM10.6665 9.37999H10.1665V11.3333H10.6665H11.1665V9.37999H10.6665ZM10.6665 11.3333H10.1665C10.1665 11.5543 10.0787 11.7663 9.92246 11.9226L10.276 12.2761L10.6296 12.6297C10.9734 12.2859 11.1665 11.8196 11.1665 11.3333H10.6665ZM10.276 12.2761L9.92246 11.9226C9.76618 12.0789 9.55422 12.1667 9.3332 12.1667V12.6667V13.1667C9.81944 13.1667 10.2858 12.9735 10.6296 12.6297L10.276 12.2761ZM9.3332 12.6667V12.1667H8.00054V12.6667V13.1667H9.3332V12.6667ZM8.00054 12.6667L7.50054 12.6665L7.49987 14.6665L7.99987 14.6667L8.49987 14.6668L8.50054 12.6668L8.00054 12.6667ZM7.99987 14.6667V14.1667H1.99987V14.6667V15.1667H7.99987V14.6667ZM1.99987 14.6667H2.49987V12.204H1.99987H1.49987V14.6667H1.99987ZM1.99987 12.204H2.49987C2.49987 11.2864 2.15891 10.4342 1.56067 9.68793L1.17054 10.0007L0.780406 10.3134C1.2595 10.9111 1.49987 11.5482 1.49987 12.204H1.99987ZM1.17054 10.0007L1.5608 9.68809C0.991528 8.97731 0.63464 8.12015 0.531253 7.21539L0.0344856 7.27215L-0.462282 7.32892C-0.337504 8.42088 0.0932227 9.45537 0.780276 10.3132L1.17054 10.0007ZM0.0344856 7.27215L0.531253 7.21539C0.427866 6.31062 0.582186 5.39505 0.976435 4.57416L0.525721 4.3577L0.0750073 4.14123C-0.40081 5.13196 -0.587059 6.23696 -0.462282 7.32892L0.0344856 7.27215ZM0.525721 4.3577L0.976435 4.57416C1.37068 3.75327 1.98882 3.06046 2.75963 2.57555L2.49339 2.15233L2.22714 1.72911C1.29685 2.31435 0.550825 3.15051 0.0750073 4.14123L0.525721 4.3577ZM2.49339 2.15233L2.75963 2.57555C3.53044 2.09063 4.42256 1.83334 5.33322 1.83332L5.3332 1.33332L5.33319 0.833322C4.23413 0.833349 3.15743 1.14387 2.22714 1.72911L2.49339 2.15233ZM5.3332 2.66666L5.33323 2.16666C4.48541 2.16662 3.65483 2.40609 2.93717 2.85748L3.20338 3.28072L3.46959 3.70396C4.02777 3.35288 4.67377 3.16663 5.33318 3.16666L5.3332 2.66666ZM3.20338 3.28072L2.93717 2.85748C2.21951 3.30887 1.64396 3.95381 1.27683 4.71801L1.72752 4.93453L2.17821 5.15104C2.46376 4.55666 2.9114 4.05504 3.46959 3.70396L3.20338 3.28072ZM1.72752 4.93453L1.27683 4.71801C0.909702 5.48221 0.765924 6.33459 0.862062 7.17693L1.35884 7.12023L1.85561 7.06354C1.78084 6.40838 1.89267 5.74542 2.17821 5.15104L1.72752 4.93453ZM1.35884 7.12023L0.862062 7.17693C0.9582 8.01928 1.29034 8.81733 1.82023 9.47916L2.21054 9.16666L2.60085 8.85416C2.18872 8.3394 1.93039 7.7187 1.85561 7.06354L1.35884 7.12023ZM2.21054 9.16666L1.82049 9.47949C2.48698 10.3105 2.8332 11.2377 2.8332 12.204H3.3332H3.8332C3.8332 10.9849 3.39276 9.84151 2.60058 8.85382L2.21054 9.16666ZM3.3332 12.204H2.8332V13.3333H3.3332H3.8332V12.204H3.3332ZM3.3332 13.3333V13.8333H6.66654V13.3333V12.8333H3.3332V13.3333ZM6.66654 13.3333L7.16654 13.3337L7.16787 11.3337L6.66787 11.3333L6.16787 11.333L6.16654 13.333L6.66654 13.3333ZM6.66787 11.3333V11.8333H9.3332V11.3333V10.8333H6.66787V11.3333ZM9.3332 11.3333H9.8332V8.50132H9.3332H8.8332V11.3333H9.3332ZM9.3332 8.50132L9.53009 8.96093L10.5634 8.51826L10.3665 8.05866L10.1696 7.59905L9.13632 8.04172L9.3332 8.50132ZM10.3665 8.05866L10.7884 7.79024L9.75972 6.17357L9.33787 6.44199L8.91603 6.7104L9.94469 8.32707L10.3665 8.05866ZM9.33787 6.44199L9.83376 6.37804L9.79576 6.08337L9.29987 6.14732L8.80398 6.21127L8.84198 6.50594L9.33787 6.44199ZM9.29987 6.14732L9.79564 6.08241C9.65381 4.99927 9.12283 4.00471 8.30174 3.28422L7.97196 3.66004L7.64219 4.03587C8.28081 4.59625 8.69379 5.3698 8.8041 6.21224L9.29987 6.14732ZM7.97196 3.66004L8.30174 3.28422C7.48065 2.56373 6.42552 2.16651 5.33314 2.16666L5.3332 2.66666L5.33327 3.16666C6.1829 3.16654 7.00356 3.47549 7.64219 4.03587L7.97196 3.66004ZM12.3265 11.3287L12.0491 11.7446L13.1584 12.4846L13.4359 12.0687L13.7133 11.6527L12.604 10.9127L12.3265 11.3287ZM13.4359 12.0687L13.8516 12.3465C14.7114 11.0599 15.1692 9.54661 15.1665 7.99914L14.6665 7.99999L14.1665 8.00084C14.1688 9.34991 13.7698 10.6692 13.0202 11.7908L13.4359 12.0687ZM14.6665 7.99999L15.1665 7.9995C15.1661 7.51468 15.1232 7.03998 15.0376 6.57588L14.5459 6.66666L14.0542 6.75743C14.1285 7.15999 14.1661 7.57418 14.1665 8.00048L14.6665 7.99999ZM14.5459 6.66666L14.4213 6.18243L13.1259 6.51576L13.2505 6.99999L13.3751 7.48421L14.6705 7.15088L14.5459 6.66666ZM13.2505 6.99999L12.7574 7.08273C12.8074 7.38053 12.8328 7.68638 12.8332 8.00064L13.3332 7.99999L13.8332 7.99934C13.8327 7.63182 13.803 7.271 13.7436 6.91724L13.2505 6.99999ZM13.3332 7.99999L12.8332 8.00083C12.835 9.08649 12.514 10.1482 11.9108 11.0509L12.3265 11.3287L12.7423 11.6064C13.4556 10.5388 13.8354 9.28316 13.8332 7.99915L13.3332 7.99999Z" fill="#D7AB42" mask="url(#path-1-inside-1_792_3281)"/>
</svg>
