<svg width="12" height="15" viewBox="0 0 12 15" fill="none" xmlns="http://www.w3.org/2000/svg">
<path d="M2.4375 1.18677H10.1572C10.5301 1.18677 10.8917 1.38176 11.0703 1.72583L11.1357 1.88306C11.4442 2.84404 12.0036 5.31936 10.6221 7.80591C9.43849 9.93678 9.86747 12.0776 10.1504 12.9993C10.2975 13.4782 9.95337 14.0196 9.41113 14.0198H1.69043C1.26439 14.0196 0.853196 13.7653 0.712891 13.3245V13.3235C0.404443 12.3623 -0.15501 9.88708 1.22656 7.40063C2.2623 5.5359 2.06235 3.66386 1.80664 2.60767L1.69727 2.20728L1.67578 2.11743C1.59412 1.66327 1.92864 1.18681 2.4375 1.18677ZM2.59766 2.3313C2.88989 3.48986 3.15616 5.64426 1.95508 7.80591C0.765853 9.94735 1.20576 12.0997 1.4873 13.011L1.54199 13.1868H9.3291L9.25098 12.8752C8.95876 11.7166 8.6925 9.56215 9.89355 7.40063C11.0825 5.25947 10.6429 3.10792 10.3613 2.19653L10.3066 2.01978H2.51953L2.59766 2.3313ZM3.92383 7.85376H5.92383C6.03433 7.85376 6.14061 7.89769 6.21875 7.97583C6.29673 8.05388 6.34073 8.15945 6.34082 8.26978C6.34082 8.38028 6.29689 8.48656 6.21875 8.5647C6.14061 8.64281 6.03432 8.68677 5.92383 8.68677H3.92383C3.81352 8.68666 3.70792 8.64266 3.62988 8.5647C3.55174 8.48656 3.50781 8.38028 3.50781 8.26978C3.5079 8.1594 3.55184 8.05389 3.62988 7.97583C3.70793 7.89778 3.81347 7.85387 3.92383 7.85376ZM4.59082 5.18677H8.59082C8.70133 5.18677 8.8076 5.2307 8.88574 5.30884C8.9638 5.38697 9.00781 5.49331 9.00781 5.60376C9.00773 5.71401 8.96363 5.81967 8.88574 5.89771C8.8076 5.97584 8.70133 6.01978 8.59082 6.01978H4.59082C4.48034 6.01976 4.37402 5.97583 4.2959 5.89771C4.21806 5.81968 4.17391 5.71398 4.17383 5.60376C4.17383 5.49335 4.21788 5.38696 4.2959 5.30884C4.37402 5.23072 4.48034 5.18679 4.59082 5.18677Z" stroke="#D7AB42" stroke-width="0.5"/>
</svg>
