<svg width="70" height="72" viewBox="0 0 70 72" fill="none" xmlns="http://www.w3.org/2000/svg">
<g clip-path="url(#clip0_792_3477)">
<path opacity="0.18" d="M58.7128 40.7282L51.3927 29.0887C51.8313 28.7115 52.2245 28.2889 52.5472 27.8262C53.0665 27.0868 53.4294 26.2568 53.6311 25.3916C53.7823 24.7428 53.8378 24.0687 53.7924 23.3997C53.7521 22.7307 53.6109 22.0567 53.3639 21.4078C53.2026 20.9753 52.9908 20.5527 52.7388 20.1453C52.6883 20.0698 52.6379 19.9944 52.5875 19.9189C52.5875 19.9189 52.5875 19.924 52.5875 19.929C50.6919 17.1575 47.1075 16.1665 44.0877 17.4693L36.4852 5.38213C36.0416 4.67792 35.1039 4.46163 34.3981 4.90427C34.3174 4.95457 34.2519 5.0099 34.1813 5.07026L34.1662 5.05014L34.1511 5.10044C33.8032 5.43746 33.6469 5.91028 33.7074 6.37808C31.0405 14.0137 26.5839 20.7187 20.7208 25.9198L16.9145 29.2949L16.617 29.5012L10.2447 33.9226C8.61128 35.0543 7.56267 36.7495 7.14927 38.6357C7.14927 38.6357 7.14927 38.6357 7.14927 38.6307C7.13919 38.681 7.13415 38.7363 7.12407 38.7917C7.08373 39.0029 7.0434 39.2142 7.0182 39.4254C7.00811 39.511 7.00307 39.5965 6.99299 39.687C6.97282 39.8832 6.9577 40.0844 6.95266 40.2856C6.95266 40.3811 6.95266 40.4818 6.95266 40.5773C6.95266 40.7685 6.96274 40.9596 6.97282 41.1507C6.97787 41.2564 6.98795 41.362 6.99803 41.4676C7.0182 41.6538 7.0434 41.8399 7.07365 42.026C7.09382 42.1366 7.10894 42.2473 7.13415 42.3529C7.16944 42.534 7.21481 42.7151 7.26523 42.8962C7.29547 43.0068 7.32068 43.1175 7.35597 43.2282C7.3963 43.3539 7.43663 43.4797 7.48201 43.6054L7.42151 43.6456C5.28899 44.9836 4.64369 47.7904 5.98471 49.9181C7.29547 52.0056 10.0531 52.6343 12.1453 51.3215L12.4327 51.1404C14.0963 52.6142 16.1734 53.424 18.2353 53.419C19.2487 53.419 20.2569 53.2178 21.2098 52.8104C22.8936 54.8274 26.0798 59.1935 27.8947 65.2295C29.6088 70.9336 32.6134 71.9547 34.7611 71.2002C34.7762 71.1952 34.7913 71.1902 34.8065 71.1851C35.0837 71.0845 35.3459 70.9537 35.5879 70.7978C35.603 70.7878 35.6232 70.7777 35.6383 70.7676C35.8752 70.6117 36.092 70.4407 36.2836 70.2445C36.3038 70.2244 36.3239 70.2043 36.339 70.1841C36.4298 70.0886 36.5205 69.988 36.6012 69.8874C36.6012 69.8874 36.6012 69.8823 36.6062 69.8773C36.6819 69.7767 36.7524 69.6761 36.818 69.5755C36.8331 69.5504 36.8533 69.5202 36.8684 69.495C36.9339 69.3894 36.9944 69.2787 37.0448 69.1681C38.401 66.1752 37.1154 61.2558 34.5594 56.3616C33.7074 54.7319 32.7143 53.1021 31.6354 51.5529C31.2724 51.0348 30.9044 50.5267 30.5263 50.0288C30.0625 49.4201 29.5836 48.8266 29.0996 48.2582L33.7226 46.2361C37.7708 44.4605 42.0661 43.2986 46.4874 42.7553C47.4705 42.6346 48.4586 42.5441 49.4518 42.4887C50.4449 42.4284 51.4431 42.4032 52.4464 42.4083C53.747 42.4133 55.0528 42.4787 56.3585 42.5893C56.8475 43.0873 57.6289 43.198 58.244 42.8107C58.2641 42.7956 58.2793 42.7805 58.2994 42.7654H58.3095V42.7604C58.9649 42.3026 59.1565 41.4123 58.7229 40.7282H58.7128Z" fill="white"/>
<path d="M14.8066 52.1464C14.8066 52.1464 20.0598 57.3374 22.6107 65.813C25.1617 74.2836 30.5459 72.4325 31.7659 69.7515C34.1808 64.4348 28.2319 53.0166 21.673 46.5027" fill="#FBAE17"/>
<path d="M21.668 46.5027L14.8066 52.1464C14.8066 52.1464 15.1847 52.5236 15.7897 53.2329C15.9964 52.8657 16.3796 52.5991 16.9442 52.5941C22.0663 52.5739 25.6759 56.9752 27.9446 61.0999C29.8704 64.6058 30.6165 68.4286 29.0486 71.9044C30.2888 71.6227 31.3122 70.7425 31.7609 69.7515C34.1757 64.4348 28.2269 53.0166 21.668 46.5027Z" fill="#EDA021"/>
<path d="M47.4656 20.7286C49.5124 23.978 48.5294 28.2687 45.2676 30.3109C42.0108 32.353 37.7105 31.3722 35.6637 28.1178C33.6169 24.8683 34.5999 20.5777 37.8617 18.5355C41.1185 16.4933 45.4188 17.4742 47.4656 20.7286Z" fill="white"/>
<path d="M34.6001 24.3401C34.585 25.6328 34.9227 26.9407 35.6638 28.1177C37.7106 31.3671 42.0059 32.3479 45.2677 30.3108C48.5245 28.2686 49.5076 23.983 47.4658 20.7285C47.4154 20.6531 47.3649 20.5776 47.3145 20.5022C45.8072 25.2103 39.087 27.0765 34.6001 24.3401Z" fill="#DADADA"/>
<path d="M7.52253 51.4875L6.86211 51.9C4.76992 53.2078 2.01731 52.579 0.701504 50.4966C-0.639511 48.3689 0.00578932 45.5571 2.13831 44.2241L2.72311 43.8569L7.52253 51.4875Z" fill="#F15F28"/>
<path d="M40.5994 22.972L28.8882 5.62842L28.4445 6.89599C25.7776 14.5567 21.316 21.2819 15.4377 26.4981L11.6314 29.8732L11.334 30.0794L23.3174 49.1282L23.7762 48.8566L28.4345 46.8144C35.6336 43.6606 43.6091 42.4282 51.6905 43.2179L53.0265 43.3487L42.1773 25.4518L41.3657 24.1088L40.5994 22.972Z" fill="#E5B72C"/>
<path d="M38.3706 35.4113C34.2921 37.2824 30.2892 39.3397 26.2863 41.3618C24.3 42.3628 22.3338 43.399 20.3828 44.4653L23.3169 49.1282L23.7757 48.8565L28.4339 46.8144C35.6331 43.6605 43.6086 42.4282 51.69 43.2179L53.0259 43.3487L46.5276 32.6296C43.7094 33.1679 40.9921 34.204 38.3655 35.4062L38.3706 35.4113Z" fill="#C8A433"/>
<path d="M52.9616 43.394C52.2558 43.8367 51.3181 43.6254 50.8745 42.9162L28.6419 7.56507C28.1982 6.85584 28.4099 5.92528 29.1208 5.48264C29.8316 5.03999 30.7643 5.25125 31.2079 5.96049L53.4456 41.3116C53.8892 42.0208 53.6775 42.9514 52.9667 43.394H52.9616Z" fill="#FBAE17"/>
<path d="M4.96115 34.5009C1.33638 37.0159 0.575126 42.2773 3.25716 46.3215L4.23519 47.8003L5.32414 49.5608C7.87509 53.6905 12.972 55.2045 16.7782 52.9662L23.3169 49.1232L11.3335 30.0745L4.96115 34.4959V34.5009Z" fill="white"/>
<path d="M10.0739 46.0398C6.68611 45.0941 3.51506 42.2974 1.86652 39.209C1.35734 41.5077 1.7909 44.0982 3.26299 46.3215L4.24103 47.8003L5.32997 49.5608C7.88092 53.6905 12.9778 55.2045 16.7841 52.9661L23.3228 49.1232L20.303 44.3195C17.2227 45.6374 13.3609 46.9502 10.079 46.0347L10.0739 46.0398Z" fill="#DADADA"/>
<path d="M50.712 12.3689C50.6061 12.3689 50.4952 12.3337 50.4045 12.2633C50.1978 12.0923 50.1625 11.7905 50.3339 11.5792L59.5849 0.18115C59.7563 -0.0250816 60.0588 -0.0602919 60.2705 0.110729C60.4772 0.281751 60.5125 0.583553 60.3411 0.794815L51.0901 12.1929C50.9943 12.3136 50.8531 12.374 50.712 12.374V12.3689Z" fill="white"/>
<path d="M69.5159 24.9843C69.5159 24.9843 69.4705 24.9843 69.4503 24.9843L54.8857 22.9823C54.6185 22.9471 54.432 22.7006 54.4723 22.434C54.5076 22.1675 54.7546 21.9813 55.0218 22.0216L69.5864 24.0235C69.8536 24.0588 70.0402 24.3052 69.9998 24.5718C69.9645 24.8133 69.7578 24.9893 69.5209 24.9893L69.5159 24.9843Z" fill="white"/>
<path d="M55.4877 17.276C55.3062 17.276 55.1297 17.1754 55.0491 16.9994C54.9331 16.7579 55.039 16.4662 55.281 16.3505L68.555 10.0479C68.797 9.93216 69.0894 10.0328 69.2054 10.2792C69.3213 10.5207 69.2154 10.8124 68.9734 10.9281L55.6994 17.2308C55.6339 17.2609 55.5583 17.276 55.4927 17.276H55.4877Z" fill="white"/>
</g>
<defs>
<clipPath id="clip0_792_3477">
<rect width="70" height="72" fill="white"/>
</clipPath>
</defs>
</svg>
