<svg width="106" height="82" viewBox="0 0 106 82" fill="none" xmlns="http://www.w3.org/2000/svg">
<path d="M69.0844 57.0881L65.375 62.7588L83.912 74.8844L87.6213 69.2138L69.0844 57.0881Z" fill="white"/>
<path d="M68.6658 66.3754C72.535 66.3754 75.6715 63.2388 75.6715 59.3697C75.6715 55.5006 72.535 52.364 68.6658 52.364C64.7967 52.364 61.6602 55.5006 61.6602 59.3697C61.6602 63.2388 64.7967 66.3754 68.6658 66.3754Z" fill="#122338"/>
<path d="M87.0034 71.3806C87.7332 68.2885 85.8181 65.1902 82.726 64.4604C79.6339 63.7306 76.5356 65.6457 75.8058 68.7378C75.076 71.8299 76.991 74.9282 80.0831 75.658C83.1753 76.3878 86.2735 74.4728 87.0034 71.3806Z" fill="#122338"/>
<path d="M81.126 42.4535C86 42.4535 89.9512 36.901 89.9512 30.0516C89.9512 23.2023 86 17.6498 81.126 17.6498C76.252 17.6498 72.3008 23.2023 72.3008 30.0516C72.3008 36.901 76.252 42.4535 81.126 42.4535Z" fill="url(#paint0_linear_352_1386)"/>
<path d="M54.1508 0H37.5407C20.5098 0 6.70312 13.8066 6.70312 30.8376C6.70312 39.9259 14.0706 47.2927 23.1582 47.2927H68.5326C77.6203 47.2927 84.9877 39.9252 84.9877 30.8376C84.9877 13.8066 71.1811 0 54.1502 0H54.1508Z" fill="url(#paint1_linear_352_1386)"/>
<path d="M51.2389 81.0129H40.4633C29.4138 81.0129 20.457 72.0555 20.457 61.0067C20.457 55.1104 25.2364 50.331 31.1327 50.331H60.5702C66.4664 50.331 71.2458 55.1104 71.2458 61.0067C71.2458 72.0561 62.2884 81.0129 51.2396 81.0129H51.2389Z" fill="url(#paint2_linear_352_1386)"/>
<path d="M69.2293 40.6414H37.6561C33.3774 40.6414 29.8672 37.3614 29.8672 33.3162V27.1126C29.8672 23.0668 33.3774 19.8995 37.6561 20.0358L69.2293 21.0432C73.0503 21.1654 76.1135 24.3105 76.1135 28.0697V33.8344C76.1135 37.5936 73.0503 40.6414 69.2293 40.6414Z" fill="#122338"/>
<path d="M47.7717 29.8852C47.7717 32.5873 45.4716 34.7485 42.6117 34.7123C39.7257 34.676 37.3672 32.4202 37.3672 29.6738C37.3672 26.9274 39.7257 24.7675 42.6117 24.8487C45.4722 24.9286 47.7717 27.1837 47.7717 29.8852Z" fill="white"/>
<path d="M69.1077 30.3188C69.1077 32.9296 66.96 35.0197 64.2894 34.9861C61.596 34.9519 59.3945 32.7739 59.3945 30.1215C59.3945 27.469 61.5953 25.3803 64.2894 25.4561C66.96 25.5313 69.1077 27.7079 69.1077 30.3188Z" fill="white"/>
<g style="mix-blend-mode:soft-light" opacity="0.3">
<path d="M57.3033 42.9676C52.6078 37.4506 54.6945 33.0384 48.5553 25.5615C40.1086 15.2745 30.2552 16.4383 27.998 9.46082C27.3725 7.52718 27.3007 4.87404 28.9786 1.20543C16.1136 4.91633 6.70312 16.7772 6.70312 30.8376C6.70312 39.9259 14.0706 47.2927 23.1582 47.2927H62.7015C60.333 46.0013 58.602 44.4932 57.3033 42.967V42.9676Z" fill="white"/>
</g>
<path d="M11.1416 42.3669C16.0157 42.3669 19.9668 36.8144 19.9668 29.9651C19.9668 23.1157 16.0157 17.5632 11.1416 17.5632C6.26759 17.5632 2.31641 23.1157 2.31641 29.9651C2.31641 36.8144 6.26759 42.3669 11.1416 42.3669Z" fill="url(#paint3_linear_352_1386)"/>
<path d="M4.16392 35.3881C6.29531 35.3881 8.02314 32.9601 8.02314 29.9651C8.02314 26.97 6.29531 24.542 4.16392 24.542C2.03252 24.542 0.304688 26.97 0.304688 29.9651C0.304688 32.9601 2.03252 35.3881 4.16392 35.3881Z" fill="url(#paint4_linear_352_1386)"/>
<path style="mix-blend-mode:multiply" opacity="0.4" d="M53.8895 69.999C52.4109 63.0558 36.0578 63.2236 35.6128 58.6851C35.2699 55.1863 44.6589 51.7231 45.8388 51.2875C46.8476 50.915 47.8496 50.6002 48.8409 50.3304H31.1288C25.2325 50.3304 20.4531 55.1098 20.4531 61.006C20.4531 72.0555 29.4106 81.0129 40.4594 81.0129H51.2357C52.2713 81.0129 53.2881 80.9344 54.2808 80.7827C53.3431 79.6202 52.7317 78.3491 52.584 76.9617C52.2565 73.8858 54.4627 72.6897 53.8895 69.999Z" fill="url(#paint5_linear_352_1386)"/>
<path d="M46.1165 52.9855C55.5158 52.9855 63.1354 52.063 63.1354 50.925C63.1354 49.7871 55.5158 48.8645 46.1165 48.8645C36.7173 48.8645 29.0977 49.7871 29.0977 50.925C29.0977 52.063 36.7173 52.9855 46.1165 52.9855Z" fill="url(#paint6_linear_352_1386)"/>
<path d="M24.268 57.0857L20.5586 62.7564L39.0956 74.882L42.8049 69.2114L24.268 57.0857Z" fill="white"/>
<path d="M23.8494 66.3754C27.7185 66.3754 30.8551 63.2388 30.8551 59.3697C30.8551 55.5006 27.7185 52.364 23.8494 52.364C19.9803 52.364 16.8438 55.5006 16.8438 59.3697C16.8438 63.2388 19.9803 66.3754 23.8494 66.3754Z" fill="#122338"/>
<path d="M39.8527 68.1533H56.0796L55.436 74.8677L39.5312 74.3348L39.8527 68.1533Z" fill="white"/>
<path d="M40.6562 74.1352C42.9028 71.8886 42.9028 68.2463 40.6562 65.9997C38.4097 63.7532 34.7674 63.7532 32.5208 65.9997C30.2743 68.2463 30.2743 71.8886 32.5208 74.1351C34.7674 76.3817 38.4097 76.3817 40.6562 74.1352Z" fill="#122338"/>
<path d="M57.4957 67.9674C56.5124 67.417 55.1238 67.0291 53.17 67.1009C52.2418 67.1345 51.4753 67.8399 51.3666 68.7621L50.8008 73.5629H59.1716L59.4448 72.4159C59.8616 70.6648 59.0662 68.8473 57.4957 67.9681V67.9674Z" fill="#122338"/>
<path d="M72.2767 73.6764L42.0794 73.1549C41.6639 73.1475 41.2713 73.3448 41.0283 73.6824L40.1075 74.9644C39.6491 75.6026 40.0907 76.4939 40.876 76.5154L72.8404 77.4047L72.2773 73.6764H72.2767Z" fill="#63A9FF"/>
<path d="M104.688 58.9798L73.5507 57.53C72.6292 57.4871 71.7539 57.9327 71.2459 58.7026L59.2266 76.9383L92.1562 77.7974C93.0602 77.8209 93.9146 77.3873 94.4294 76.6436L105.506 60.6335C105.978 59.9516 105.516 59.018 104.688 58.9791L104.688 58.9798Z" fill="#63A9FF"/>
<g style="mix-blend-mode:multiply" opacity="0.3">
<path d="M71.2498 58.7032C71.7572 57.9327 72.6331 57.4871 73.5546 57.53L74.2372 57.5616C74.2727 58.5724 74.5197 59.5107 75.0855 60.2926C76.85 62.7336 80.13 61.5161 82.3429 64.1223C84.7739 66.9855 82.1529 70.0292 84.3195 72.6877C86.6001 75.4852 90.711 73.6012 95.1629 75.5892L94.4333 76.6436C93.9192 77.3873 93.0642 77.8209 92.1601 77.7974L59.2305 76.9383L71.2498 58.7026V58.7032Z" fill="#122338"/>
</g>
<defs>
<linearGradient id="paint0_linear_352_1386" x1="72.3008" y1="30.0516" x2="89.9505" y2="30.0516" gradientUnits="userSpaceOnUse">
<stop stop-color="#FFC444"/>
<stop offset="1" stop-color="#F36F56"/>
</linearGradient>
<linearGradient id="paint1_linear_352_1386" x1="6.7038" y1="23.6467" x2="84.9884" y2="23.6467" gradientUnits="userSpaceOnUse">
<stop stop-color="#FCB148"/>
<stop offset="0.05" stop-color="#FDB946"/>
<stop offset="0.14" stop-color="#FEC144"/>
<stop offset="0.32" stop-color="#FFC444"/>
<stop offset="0.48" stop-color="#FDB946"/>
<stop offset="0.78" stop-color="#F99C4C"/>
<stop offset="0.87" stop-color="#F8924F"/>
<stop offset="1" stop-color="#F8924F"/>
</linearGradient>
<linearGradient id="paint2_linear_352_1386" x1="20.4564" y1="65.672" x2="71.2451" y2="65.672" gradientUnits="userSpaceOnUse">
<stop stop-color="#FCB148"/>
<stop offset="0.05" stop-color="#FDB946"/>
<stop offset="0.14" stop-color="#FEC144"/>
<stop offset="0.32" stop-color="#FFC444"/>
<stop offset="0.48" stop-color="#FDB946"/>
<stop offset="0.78" stop-color="#F99C4C"/>
<stop offset="0.87" stop-color="#F8924F"/>
<stop offset="1" stop-color="#F8924F"/>
</linearGradient>
<linearGradient id="paint3_linear_352_1386" x1="2.31708" y1="29.9651" x2="19.9668" y2="29.9651" gradientUnits="userSpaceOnUse">
<stop stop-color="#FFC444"/>
<stop offset="1" stop-color="#F36F56"/>
</linearGradient>
<linearGradient id="paint4_linear_352_1386" x1="0.304688" y1="29.9651" x2="8.02314" y2="29.9651" gradientUnits="userSpaceOnUse">
<stop stop-color="#FFC444"/>
<stop offset="1" stop-color="#F36F56"/>
</linearGradient>
<linearGradient id="paint5_linear_352_1386" x1="20.4531" y1="65.672" x2="54.2808" y2="65.672" gradientUnits="userSpaceOnUse">
<stop stop-color="#FCB148"/>
<stop offset="0.05" stop-color="#FDB946"/>
<stop offset="0.14" stop-color="#FEC144"/>
<stop offset="0.32" stop-color="#FFC444"/>
<stop offset="0.48" stop-color="#FDB946"/>
<stop offset="0.78" stop-color="#F99C4C"/>
<stop offset="0.87" stop-color="#F8924F"/>
<stop offset="1" stop-color="#F8924F"/>
</linearGradient>
<linearGradient id="paint6_linear_352_1386" x1="38.5007" y1="109.844" x2="43.3949" y2="71.9816" gradientUnits="userSpaceOnUse">
<stop stop-color="#D7AB42"/>
<stop offset="0.05" stop-color="#D7AB42"/>
<stop offset="0.14" stop-color="#D7AB42"/>
<stop offset="0.32" stop-color="#D7AB42"/>
<stop offset="0.4" stop-color="#D7AB42"/>
<stop offset="0.71" stop-color="#FAA24B"/>
<stop offset="0.87" stop-color="#F8924F"/>
<stop offset="1" stop-color="#F8924F"/>
</linearGradient>
</defs>
</svg>
