<svg width="156" height="72" viewBox="0 0 156 72" fill="none" xmlns="http://www.w3.org/2000/svg">
<path d="M59.4669 9.07621L59.9403 21.9633C59.9379 22.0426 59.9427 22.1207 59.9403 22.2C59.5817 22.1337 59.7131 22.3811 59.7036 22.6083C59.6148 24.8487 59.4066 26.8949 59.2243 29.1128C59.2089 29.301 59.1675 29.6501 59.3497 29.7661C57.1437 47.3055 49.0391 62.0495 33.1045 70.3825C32.54 70.6772 30.5813 71.7388 30.089 71.7448C29.7233 71.7495 28.1693 70.9909 27.7362 70.779C12.3945 63.3064 3.73011 48.637 1.06014 32.1307C1.28027 32.0077 1.16547 31.707 1.14417 31.5165C0.424603 25.2179 0.0458836 19.6342 0.345308 13.267C0.409217 11.9154 0.675502 10.5473 0.586739 9.19219C10.3754 5.97545 20.2624 3.04747 30.1067 -3.05176e-05L59.4669 9.07503V9.07621ZM5.19765 10.0218C5.0935 9.79459 4.81893 9.97093 4.66389 10.0183C4.33606 10.1189 2.55371 10.6763 2.4685 10.8089C2.41643 10.9165 2.38802 11.0325 2.37146 11.1509C2.13712 12.8279 2.05546 15.0967 2.00102 16.8151C1.87912 20.6662 2.02351 24.9386 2.5975 28.7021C2.60105 28.7282 2.70994 28.7791 2.71585 28.8205C2.47205 29.4691 2.7123 30.4407 2.83775 31.1236C2.88391 31.3745 2.70993 31.5366 3.06972 31.3035C4.0035 36.7298 5.18936 41.5833 7.42381 46.6357C11.8572 56.6635 19.9677 65.1065 30.0878 69.4476C37.5793 66.0308 44.0613 60.7465 48.6876 53.9225C53.2843 47.1422 55.817 39.1678 57.0845 31.1058L57.8136 24.4451C57.8171 24.6842 57.7059 25.2688 57.9307 25.3907C57.8242 24.5055 58.029 23.58 58.055 22.7361C58.1556 19.4496 58.1272 15.7097 57.8124 12.4456C57.7579 11.8775 57.6502 11.2941 57.5745 10.7284L57.4585 10.8479C48.3349 7.89508 39.1747 5.02273 29.9671 2.33383C21.7358 4.96711 13.4099 7.33055 5.19883 10.0206L5.19765 10.0218Z" fill="#E6B92E"/>
<path d="M1.06182 32.1319C-0.0127933 25.4925 -0.314586 17.2435 0.35409 10.5555C0.384861 10.2455 0.467704 9.33535 0.589604 9.19452C0.678367 10.5484 0.412082 11.9166 0.348174 13.2693C0.0475652 19.6365 0.427468 25.2203 1.14703 31.5188C1.16834 31.7082 1.28313 32.01 1.063 32.1331L1.06182 32.1319Z" fill="#F6DA31"/>
<path d="M59.4688 9.0762C59.6262 9.17207 59.6747 9.32237 59.6995 9.49398C59.7729 10.0005 59.8037 10.9367 59.8285 11.4941C59.98 14.9144 60.0238 18.5323 59.9421 21.9621L59.4688 9.07502V9.0762Z" fill="#FADE2A"/>
<path d="M59.9433 22.2C59.8758 24.696 59.664 27.2903 59.3515 29.7673C59.1693 29.6513 59.2107 29.3022 59.2261 29.114C59.4083 26.8961 59.6166 24.8499 59.7054 22.6095C59.7149 22.3823 59.5835 22.1349 59.9421 22.2012L59.9433 22.2Z" fill="#FADE2A"/>
<path d="M5.19704 10.0218C4.33782 10.3035 3.4857 10.6242 2.61347 10.8668C2.37795 12.9391 2.28682 15.028 2.24185 17.1157C2.04539 17.2388 2.1235 17.5642 2.12113 17.7643C2.10811 18.788 2.11048 19.8176 2.12113 20.8414C2.1235 21.0414 2.04539 21.3668 2.24185 21.4899C2.25487 22.1397 2.23475 22.7941 2.23711 23.4462L2.5969 28.7033C2.02409 24.9398 1.8797 20.6674 2.00042 16.8163C2.05486 15.099 2.13533 12.8291 2.37085 11.1521C2.38742 11.0337 2.417 10.9177 2.46789 10.81C2.55311 10.6775 4.33546 10.12 4.66328 10.0195C4.81951 9.97211 5.09289 9.79459 5.19704 10.023V10.0218Z" fill="#F6DA31"/>
<path d="M57.4609 10.8503L57.5769 10.7307C57.6527 11.2964 57.7604 11.8799 57.8148 12.448C58.1296 15.7121 58.1568 19.4519 58.0574 22.7385C58.0314 23.5823 57.8266 24.509 57.9332 25.3931C57.7083 25.2712 57.8195 24.6865 57.816 24.4475C57.803 23.4462 57.7911 22.4296 57.8113 21.4284C57.8184 21.0709 57.9261 20.7195 57.9343 20.31C57.9474 19.6815 57.9355 19.046 57.9343 18.4187C57.9332 17.8175 58.0349 17.0553 57.816 16.5275C57.8018 15.9393 57.6976 15.1842 57.6976 14.6955V12.9214C57.6976 12.8823 57.5864 12.7237 57.5746 12.5711C57.5296 12.0006 57.5272 11.4207 57.4609 10.8515V10.8503Z" fill="#FADE2A"/>
<path d="M3.06903 31.3046C2.70806 31.5377 2.88322 31.3756 2.83706 31.1247C2.71043 30.4418 2.47018 29.469 2.71516 28.8216C2.83943 29.6501 2.92701 30.4773 3.07021 31.3046H3.06903Z" fill="#F6DA31"/>
<path d="M25.6542 21.7278V23.9741C25.6258 23.9871 25.5772 23.9658 25.5358 23.9741C25.5181 23.9776 25.3003 23.8545 25.1808 23.9753C25.1074 24.0498 25.3003 24.0841 25.2991 24.0924C25.2719 24.2427 23.815 25.231 23.4694 26.4606C22.5416 29.7602 24.7689 31.468 27.2732 32.9367C30.813 35.0137 37.959 37.3985 40.0562 40.8436C42.9143 45.5374 40.3816 51.0975 35.5825 53.1165C30.1822 55.3888 24.8506 53.1473 19.3876 52.5851L19.1497 44.1906C20.3426 44.0876 20.0444 44.232 20.3604 45.0498C22.5487 50.7093 26.3146 53.0715 32.5114 51.6999C36.4808 50.8217 38.1886 46.8972 35.1139 43.8923C30.4852 39.3678 19.1165 38.8199 19.0432 30.1922C19.0148 26.8228 22.1108 22.0698 25.653 21.7254L25.6542 21.7278Z" fill="#E6B92D"/>
<path d="M46.6984 14.2789V22.6746C46.4558 22.6249 45.8037 22.7551 45.651 22.658C45.5942 22.6213 45.3113 21.5882 45.219 21.3763C44.9965 20.8674 44.7373 20.31 44.4521 19.8378C44.7018 19.704 44.1882 19.1916 44.0923 19.0744C42.0733 16.582 39.2471 16.389 36.2398 16.2861C35.7002 16.2671 32.2112 16.2423 32.0443 16.4151L32.1568 33.79C32.126 33.9663 32.1793 34.1936 32.1568 34.3806C30.2561 33.7663 28.4252 32.7864 26.7186 31.7213V16.4103C24.9398 16.5062 23.1148 16.4328 21.3396 16.5299C19.0353 16.6565 16.5737 17.1039 14.9523 18.8921C14.783 19.0791 14.1522 20.0614 14.067 20.0756C14.0575 20.0768 14.0102 19.975 13.9605 19.9608C13.6268 20.2851 13.0954 22.4557 12.9912 22.5456C12.9048 22.6202 12.358 22.5219 12.1758 22.5574V14.2812H46.7008L46.6984 14.2789Z" fill="#E5B72C"/>
<path d="M27.3094 50.8134L27.4869 50.5767C27.3662 50.5542 26.9898 50.6122 26.9543 50.5779C26.9022 50.5258 26.9662 49.3565 26.9543 49.1009C26.9188 48.3967 26.9591 47.9789 26.9602 47.3316C26.9638 44.9847 26.946 42.6366 26.9567 40.2921L32.0469 42.8473L32.1582 50.6974C30.7995 50.7483 29.4231 50.63 28.0644 50.688C27.849 50.6974 27.6976 50.8122 27.6644 50.8146C27.5473 50.8229 27.4265 50.8051 27.3094 50.8146V50.8134Z" fill="#E5B72C"/>
<path d="M39.0155 22.4367L39.0747 22.5527C39.2758 22.084 39.496 22.1846 39.9611 22.2V25.747H40.0783L40.0747 24.9694C40.038 24.8605 40.1966 24.7138 40.1978 24.683L40.3161 31.3047C39.967 31.268 39.4865 31.4455 39.2616 31.1165C38.3492 28.3838 36.8059 25.9872 34.3217 24.47C34.0282 24.2913 33.2767 24.025 33.1027 23.8557C33.0329 23.1776 33.253 22.361 32.9844 21.7278C33.0767 21.4544 33.7335 21.7077 33.9548 21.7621C35.0815 22.0426 36.7562 22.9456 37.7894 23.0202C38.445 23.0687 38.632 22.8841 39.0143 22.4367H39.0155Z" fill="#E6B92E"/>
<path d="M46.6992 14.2788H12.1742V22.555C12.3576 22.5183 12.9032 22.6177 12.9896 22.5431C13.0938 22.4532 13.6252 20.2827 13.9589 19.9584C14.0086 19.9726 14.0548 20.0744 14.0654 20.0732C13.7755 20.3975 13.2192 22.5846 13.1044 22.6591C12.9482 22.7597 12.1955 22.6213 11.9375 22.6733C12.0144 22.51 12.0499 22.3857 12.0558 22.2011C12.0854 21.1833 12.0641 20.1466 12.0558 19.1276C12.0452 17.7867 12.0381 16.4931 12.0653 15.1652C12.0736 14.7664 11.7245 14.2421 12.2334 14.1628L46.698 14.28L46.6992 14.2788Z" fill="#FCED71"/>
<path d="M44.4519 19.8354C42.3418 16.3382 37.6752 16.3985 33.9886 16.3997C33.4135 16.3997 32.8584 16.6068 32.2738 16.5252C32.2714 18.2578 32.2797 19.9952 32.2738 21.7278C32.0749 22.4154 32.0761 23.4155 32.2738 24.0924C32.2726 25.3126 32.2797 26.5375 32.2738 27.7577C32.0773 27.8808 32.1554 28.2063 32.153 28.4063C32.1436 29.2134 32.153 30.0253 32.1554 30.8313C32.1554 31.5485 32.0548 32.4065 32.2738 33.0776C32.2584 33.4196 32.2016 33.5237 32.1554 33.7865L32.043 16.4115C32.211 16.2388 35.6988 16.2636 36.2385 16.2825C39.2457 16.3855 42.0719 16.5784 44.091 19.0709C44.1868 19.188 44.7005 19.7005 44.4508 19.8342L44.4519 19.8354Z" fill="#F6DA31"/>
<path d="M32.1554 42.7727L32.2737 47.0286C32.2867 48.2937 32.295 49.5518 32.3921 50.8122H27.6616C27.6947 50.8087 27.8462 50.6939 28.0616 50.6844C29.4203 50.6264 30.7967 50.7448 32.1554 50.6939L32.0441 42.8437L26.9539 40.2886C26.9432 42.6331 26.961 44.9823 26.9574 47.328C26.9574 47.9754 26.9148 48.3932 26.9515 49.0973C26.9645 49.353 26.8994 50.5223 26.9515 50.5743C26.9858 50.6087 27.3622 50.5495 27.4841 50.5732L27.3066 50.8099C26.6367 50.8655 26.7551 50.7045 26.7148 50.1009C26.9018 50.0228 26.9018 49.5873 26.7148 49.5092C26.6509 47.3138 26.703 45.0853 26.7148 42.8875C26.9125 42.0828 26.9125 40.9726 26.7148 40.1679C26.7669 39.9974 26.8367 40.0033 26.9598 40.0992L32.153 42.7692L32.1554 42.7727Z" fill="#F6DA31"/>
<path d="M39.0117 22.4367C39.0993 22.3349 39.1277 22.0296 39.2993 22.0036C39.368 21.9929 40.0496 22.0959 40.0899 22.1503C40.3585 22.5148 40.1065 23.3883 40.0994 23.7954C40.0946 24.0569 40.2106 24.3398 40.194 24.683C40.1928 24.7138 40.0343 24.8593 40.071 24.9694L40.0745 25.747H39.9573V22.2C39.4922 22.1846 39.2721 22.084 39.0709 22.5527L39.0117 22.4367Z" fill="#FBE42A"/>
<path d="M2.24346 21.4911C2.04819 21.368 2.12512 21.0425 2.12275 20.8425C2.1121 19.8188 2.10973 18.7892 2.12275 17.7654C2.12512 17.5654 2.047 17.24 2.24346 17.1169C2.21151 18.5655 2.21506 20.0425 2.24346 21.4911Z" fill="#B39837"/>
<path d="M32.2746 47.0298L32.1562 42.7739C32.2912 42.8284 32.2687 42.9432 32.2817 43.0568C32.4083 44.2225 32.2628 45.8037 32.2746 47.0298Z" fill="#B39837"/>
<path d="M25.6523 21.7278C25.7293 21.7206 25.8973 21.6851 25.8914 21.7917C25.7577 22.3597 25.9683 23.1456 25.8843 23.6746C25.8535 23.8699 25.8299 23.8971 25.6523 23.974V21.7278Z" fill="#FBE42A"/>
<path d="M32.2747 30.8312H32.1564C32.1564 30.0252 32.1445 29.2134 32.154 28.4062C32.1564 28.2062 32.0783 27.8808 32.2747 27.7577C32.27 28.7802 32.2866 29.8087 32.2747 30.8312Z" fill="#97833D"/>
<path d="M26.7187 42.891C26.7223 42.3194 26.6028 40.5548 26.7187 40.1714C26.9164 40.9761 26.9164 42.0863 26.7187 42.891Z" fill="#E5B72C"/>
<path d="M32.2737 24.0924C32.076 23.4142 32.0748 22.4153 32.2737 21.7277C32.2713 22.5147 32.2737 23.3053 32.2737 24.0924Z" fill="#97833D"/>
<path d="M32.2738 33.0775C32.0548 32.4065 32.1566 31.5484 32.1554 30.8312H32.2738C32.2655 31.5757 32.3069 32.3343 32.2738 33.0775Z" fill="#B39837"/>
<path d="M33.1025 23.8557C32.9569 23.7124 32.9096 21.9479 32.9841 21.7277C33.2528 22.3609 33.0327 23.1787 33.1025 23.8557Z" fill="#C8A433"/>
<path d="M57.9316 18.4163H57.8132C57.8085 17.7891 57.8286 17.1453 57.8132 16.5251C58.0322 17.0541 57.9304 17.8163 57.9316 18.4163Z" fill="#B39837"/>
<path d="M26.7195 50.1034C26.7065 49.9081 26.7254 49.7081 26.7195 49.5116C26.9065 49.5897 26.9065 50.0252 26.7195 50.1034Z" fill="#E5B72C"/>
<path d="M25.5358 23.9741L25.2991 24.0924C25.3003 24.0841 25.1073 24.0498 25.1807 23.9752C25.3003 23.8545 25.518 23.9776 25.5358 23.9741Z" fill="#FBE42A"/>
<path d="M85.9941 23.4754C86.1527 23.499 86.2651 23.4848 86.3255 23.6742L89.3635 30.8071L92.437 23.4694L92.5554 23.3842C92.6098 23.3878 92.6477 23.4754 92.6749 23.4754H95.3354C95.4254 24.2683 94.7934 23.9547 94.5034 24.2399C94.1815 24.5559 94.4845 26.5596 94.5058 27.0827C94.5732 28.6946 94.488 30.7148 94.7543 32.2723C94.7863 32.4617 94.8407 32.741 94.9804 32.8735C95.3484 33.2203 95.8668 32.7339 95.6893 33.644C95.5319 33.6475 95.3733 33.6404 95.2159 33.644C94.4537 33.4463 93.3767 33.4463 92.6146 33.644C92.1909 33.6286 91.7163 33.8108 91.9175 33.2428C91.9861 33.0499 92.6773 32.9812 92.8513 32.6984L92.9672 32.8179C92.9246 32.4913 93.0986 32.0096 92.8513 31.7528V25.4873C92.7518 25.466 92.6169 26.0459 92.6146 26.0779C92.4619 25.8317 92.192 26.4329 92.1554 26.5063C91.4204 28.0247 90.8334 29.6946 90.1517 31.2427C90.0156 31.5527 89.1351 33.6168 89.0049 33.6463C88.8061 33.6913 88.5457 33.2806 88.4534 33.1363C87.4995 31.6557 86.6994 29.0295 85.858 27.3371C85.8035 27.2271 85.3751 26.2116 85.1656 26.4341C85.168 26.7347 85.065 27.0164 85.0425 27.3158C84.9502 28.5218 84.8319 30.8935 84.9242 32.0534C84.9384 32.225 84.9834 32.683 85.0745 32.7895C85.1656 32.896 85.5455 32.8913 85.5195 33.0546C85.5171 33.0724 85.4071 33.1079 85.3988 33.1706C85.7633 33.1339 85.8035 33.1576 85.7562 33.528H85.6378C84.7976 33.2582 83.7963 33.4818 82.9182 33.4096C82.9111 33.3777 82.9146 33.3256 82.9182 33.2913C84.252 33.2333 84.2591 31.8368 83.9821 30.8083C83.9892 30.7302 83.975 30.6497 83.9821 30.5716C84.3407 30.6379 84.2094 30.3917 84.2188 30.1633C84.2863 28.5975 84.6804 26.1844 84.4472 24.7263C84.3123 23.8778 83.472 24.2044 83.2732 23.5961C83.4318 23.4588 85.6165 23.7866 85.9917 23.4777L85.9941 23.4754Z" fill="#E5BA2E"/>
<path d="M115.432 32.9339C115.47 32.8309 115.61 32.7339 115.637 32.6108C115.972 31.0723 115.909 27.2058 115.792 25.5394C115.754 25.0104 115.749 24.3334 115.197 24.1204C114.686 23.9239 114.662 24.2849 114.723 23.3571C114.851 23.3121 114.981 23.4754 115.018 23.4754H118.624C118.49 24.2967 118.43 23.9334 117.943 24.1535C117.629 24.2956 117.581 25.0613 117.555 25.4222C117.502 26.169 117.604 26.9786 117.56 27.7324H122.053V24.5997C122.053 24.537 121.829 24.2494 121.745 24.1973C121.254 23.8932 120.977 24.3891 121.107 23.3582C121.148 23.2991 121.258 23.4766 121.283 23.4766H125.008C124.888 23.6139 124.919 24.0068 124.875 24.0529C124.656 24.279 124.082 23.7358 123.945 25.0743C123.778 26.7123 123.776 30.4119 123.943 32.0487C123.99 32.5102 124.091 32.7552 124.416 33.0534C124.629 33.2487 124.891 33.0771 124.771 33.6452C124.727 33.6641 124.609 33.6381 124.534 33.6452V33.5268L124.653 33.4097L121.224 33.4073L121.697 33.1635C121.684 33.1103 121.578 33.0629 121.579 33.0534C121.595 32.9564 121.848 32.8641 121.921 32.7457C122.28 32.1623 121.938 29.7124 122.158 28.8473C122.19 28.7467 122.05 28.5609 121.993 28.5609H117.56V32.0487C117.56 32.5209 118.109 33.3943 118.623 33.0534V33.6452C118.506 33.6499 118.387 33.6405 118.269 33.6452V33.5268C117.225 33.2546 116.037 33.4831 114.959 33.4085C114.869 33.0475 115.353 33.1493 115.55 33.0487C115.539 32.9943 115.428 32.9434 115.431 32.9363L115.432 32.9339ZM118.448 33.4073V33.5257C118.525 33.4866 118.525 33.4464 118.448 33.4073Z" fill="#E5BA2E"/>
<path d="M137.781 33.644C137.445 33.6026 137.369 33.4346 137.542 33.1328C137.691 32.8736 138.354 33.3801 138.489 32.0463C138.666 30.2924 138.624 26.9762 138.495 25.1868C138.483 25.0163 138.412 24.4293 138.344 24.3323C138.19 24.1145 137.463 24.0968 137.425 24.0672C137.402 24.0482 137.528 23.6139 137.426 23.4766H142.569C142.75 23.4766 143.892 23.8494 144.089 23.9666C145.678 24.911 145.702 27.3549 144.053 28.2721C143.84 28.3905 143.169 28.4934 143.233 28.7219L146.052 32.8807C146.543 33.3091 147.045 32.6641 146.883 33.6452H144.814C143.605 33.6452 142.027 30.0663 141.395 29.1432C141.004 28.8615 140.692 29.0982 140.381 29.1527C140.342 29.1598 140.299 29.1444 140.263 29.1527C140.257 29.1538 140.176 28.9219 140.144 29.0935L140.147 32.2262L140.264 32.1079H140.382C140.38 32.186 140.387 32.2664 140.382 32.3446C140.38 32.3777 140.206 32.5114 140.264 32.7564C140.405 32.999 140.488 32.8097 140.501 32.818C140.812 32.9931 141.004 33.0416 141.27 33.1659C142.047 33.5292 141.163 33.6298 140.737 33.6464C140.05 33.4369 139.163 33.5186 138.429 33.5257C138.229 33.528 137.904 33.4499 137.781 33.6464V33.644ZM140.264 24.421C140.127 24.5986 140.154 24.6187 140.14 24.827C140.064 25.9395 140.208 27.1395 140.145 28.2627C140.188 28.4355 140.258 28.2059 140.264 28.2035C140.295 28.1952 140.342 28.2035 140.382 28.2035C140.316 28.5562 140.563 28.4366 140.79 28.4402C141.495 28.4497 142.524 28.3112 143.062 27.8106C143.159 27.7194 143.361 27.4058 142.982 27.4934C143.655 26.7916 143.605 25.7276 142.91 25.0234C142.163 24.2648 141.37 24.4104 140.381 24.4199C140.321 24.4199 140.385 24.2624 140.263 24.4199L140.264 24.421Z" fill="#E5BA2E"/>
<path d="M112.005 38.1366C115.64 38.1401 116.549 42.293 112.951 43.2788C113.708 44.0209 115.354 47.3063 116.146 47.653C116.625 47.8625 116.834 47.4164 116.734 48.3052C116.064 48.027 115.254 48.2874 114.555 48.1797C113.734 48.0531 113.25 47.1075 112.831 46.4755C112.529 46.0186 111.477 43.9712 111.246 43.8031C111.036 43.6505 110.446 43.6043 110.285 43.8114C110.204 43.9144 110.259 44.0753 110.232 44.1676C110.059 44.7618 110.019 46.5157 110.164 47.1323C110.21 47.3276 110.35 47.6152 110.518 47.7241C110.87 47.9501 111.371 47.6448 111.294 48.0696H107.394C107.352 47.3749 107.411 47.6933 107.899 47.5678C108.42 47.4341 108.311 47.1075 108.339 46.6506H108.458V39.9118H108.339V39.5567L108.455 39.0822C108.394 39.0916 108.357 39.1993 108.339 39.2017C108.17 39.2242 108.243 39.0526 108.221 38.965C108.22 38.9579 108.331 38.9046 108.29 38.8478C108.123 38.6194 107.641 38.6336 107.394 38.4916C107.394 38.4123 107.394 38.3342 107.394 38.2549C108.796 38.249 110.201 38.2584 111.605 38.2632C111.822 38.2632 111.983 38.1366 112.005 38.1366ZM110.232 42.8658C111.749 42.9676 113.315 42.8043 113.316 40.9154C113.316 39.1638 111.668 38.8159 110.232 38.965V42.867V42.8658Z" fill="#E6B92E"/>
<path d="M148.776 32.9339C148.806 32.9078 148.976 32.9315 149.065 32.8131C149.183 32.6557 149.228 32.3634 149.248 32.1646C149.421 30.484 149.422 26.6329 149.248 24.9535C149.112 23.6339 148.152 24.5157 148.184 23.4754H155.397V25.84C154.928 25.9986 154.802 25.5465 154.688 25.1311C154.683 25.1121 154.945 25.1476 154.695 24.8293C154.58 24.6837 154.083 24.3997 153.888 24.3346C153.441 24.1878 151.401 24.0423 151.141 24.3026C151.025 24.4186 151.034 24.421 151.016 24.5855C150.896 25.6696 151.118 26.975 151.024 28.0851C151.828 27.7679 153.053 28.2697 153.69 27.62C153.883 27.4223 153.955 27.0412 153.982 27.0223C154.001 27.0081 154.452 27.1158 154.452 27.1395V29.7408C153.766 29.8946 154.076 29.4272 153.749 29.0839C153.677 29.0082 153.279 28.7952 153.211 28.7952H151.024V32.6972H153.211C153.671 32.6972 154.565 32.2451 154.93 31.9338C155.123 31.7693 155.145 31.5433 155.399 31.3965C155.405 31.393 155.439 31.5101 155.495 31.4959L155.753 31.2793L155.516 33.4061H148.423C148.331 33.0333 148.639 33.2451 148.744 33.1422C148.812 33.0771 148.763 32.9469 148.777 32.9351L148.776 32.9339Z" fill="#E6B92E"/>
<path d="M105.365 40.6018C105.324 40.6657 104.829 40.7758 104.792 40.7379C104.532 38.1555 100.525 38.3662 99.2342 40.087C98.2448 41.4066 98.2483 44.7085 99.1821 46.0506C100.237 47.5655 102.988 48.1549 104.321 46.711C104.832 46.1571 104.821 45.2955 105.618 45.4671C105.332 45.8601 105.419 47.659 105.19 47.8436C104.324 48.5383 101.348 48.4862 100.273 48.2685C94.4754 47.0956 95.2352 38.1945 101.658 37.901C102.218 37.875 105.088 38.0963 105.248 38.565C105.281 38.662 105.418 40.5142 105.365 40.6006V40.6018Z" fill="#E7BD2F"/>
<path d="M88.0041 39.6739C87.9805 39.4443 88.0373 39.0526 87.8586 38.8739C87.513 38.5283 86.8526 39.1058 87.0585 38.1366H94.1524V40.5012C93.5157 40.6444 93.711 40.1923 93.4234 39.752C93.0198 39.1342 92.5606 39.1224 91.9061 39.0822V38.9638L92.1416 38.8466C91.4244 38.9153 90.5711 38.694 89.8954 38.9638C89.8918 39.0029 89.8989 39.0431 89.8954 39.0822C89.7806 40.1994 89.9806 41.4918 89.8954 42.6291H91.8458C92.5831 42.6291 92.5405 41.6373 93.2056 41.8018V44.4032C92.563 44.6896 92.6742 43.4576 92.0825 43.4576H89.8954V47.3595C89.9806 47.6164 91.6718 47.4128 92.0233 47.4767L91.6694 47.2412C92.3736 47.156 92.7464 47.2258 93.4068 46.7903C93.7831 46.5429 94.4045 45.3358 94.7299 45.8376C94.8459 46.0163 94.4814 47.5134 94.3891 47.8318L94.2707 47.7738C94.2542 47.8566 94.298 48.0412 94.2707 48.0696C94.0258 48.3265 88.0325 47.7856 87.1757 48.1868C86.965 48.1028 87.0751 47.7962 87.0573 47.5974C87.3224 47.6459 87.5272 47.5442 87.7662 47.4779C87.7852 47.4732 87.9355 47.6507 88.068 47.356C88.1876 47.0909 88.0041 47.0364 88.0029 47.0045C88.0006 46.9264 87.9982 46.8459 88.0029 46.7678C88.3615 46.8341 88.2302 46.5867 88.2396 46.3595C88.3296 44.0789 88.1722 41.7794 88.2396 39.4964L88.0029 39.6739H88.0041Z" fill="#E5BA2E"/>
<path d="M126.901 33.6439C126.704 33.6345 126.506 33.6522 126.309 33.6439C126.221 32.8119 126.374 33.1824 126.777 32.9906C126.937 32.9137 127.071 32.6983 127.16 32.5433L130.638 23.3499L131.855 23.3688L135.119 32.1054C135.102 32.3847 135.746 32.9717 135.769 33.0522C135.771 33.0605 135.66 33.1102 135.65 33.1611L136.124 33.406C135.042 33.4392 133.95 33.3646 132.867 33.406C132.64 33.4155 132.392 33.2841 132.458 33.6427C132.287 33.5611 132.307 33.0841 132.339 33.0522C132.417 32.9741 133.275 33.2901 133.293 32.5243C133.3 32.2202 132.653 30.497 132.457 30.2142C132.44 30.1881 132.476 30.1041 132.457 30.0958C131.515 29.8248 130.422 30.0508 129.443 29.9775C129.256 30.1337 129.532 30.0923 129.62 30.0958V30.2142C129.436 30.2284 129.235 30.1538 129.087 30.3301C129.013 30.4177 128.45 32.3717 128.454 32.5231C128.474 33.3279 129.417 32.9646 129.502 33.051V33.6439C129.187 33.6487 128.87 33.6356 128.555 33.6439C128.159 33.4475 127.321 33.4439 126.9 33.6439H126.901ZM129.384 29.2685C129.361 29.3561 129.165 29.3289 129.384 29.5052C129.622 29.697 131.857 29.7029 132.103 29.5052C132.127 29.4863 132.204 29.5135 132.215 29.4319C132.223 29.3301 132.111 29.2922 132.103 29.2685C131.754 28.085 131.129 26.9217 130.802 25.7216C130.571 25.8115 130.482 26.1074 130.391 26.3145C130.048 27.0945 129.598 28.4365 129.384 29.2685Z" fill="#E5BA2E"/>
<path d="M112.596 25.7217C111.779 25.7986 112.125 25.6886 111.949 25.2495C111.206 23.4032 107.543 23.8967 108.556 26.156C109.172 27.5313 112.202 27.7833 112.94 29.5752C113.426 30.7563 113.122 32.0747 112.186 32.9363C110.82 34.1932 108.319 33.8381 106.701 33.2712L106.566 31.1587C107.345 31.038 107.085 31.2948 107.348 31.7374C108.363 33.457 111.832 33.4641 111.407 30.8687C111.236 29.8261 108.38 28.9526 107.507 28.0295C105.71 26.1288 107.037 23.5322 109.477 23.2482C109.897 23.1997 112.598 23.3523 112.598 23.7677V25.7181L112.596 25.7217Z" fill="#E7BD2F"/>
<path d="M84.7996 38.2656C84.68 38.9224 85.241 40.5568 84.2208 40.3829C84.37 38.4218 80.6727 38.1567 80.6621 40.0858C80.6491 42.3877 85.1026 42.2114 85.402 44.9334C85.8044 48.5857 81.4763 49.0094 78.9152 47.9324C79.004 47.5998 78.6572 45.9536 78.7874 45.827C78.8087 45.8056 79.3496 45.6802 79.3697 45.7015C79.3981 45.7299 79.4774 46.2128 79.6265 46.4518C80.3922 47.6779 82.8042 48.1383 83.5321 46.7311C84.5368 44.7902 81.8456 44.1819 80.6822 43.3866C79.2762 42.4256 78.3412 40.9237 79.3898 39.2787C80.5449 37.4655 83.0208 37.8324 84.7984 38.2656H84.7996Z" fill="#E7BD2F"/>
<path d="M143.918 38.2655C143.798 38.9236 144.36 40.5556 143.339 40.3828C143.653 38.6028 140.289 38.2478 139.87 39.5733C139.045 42.1865 143.928 42.1581 144.468 44.7499C144.847 46.563 143.492 48.1513 141.712 48.3916C140.931 48.4969 138.72 48.401 138.088 47.9383C137.726 47.6732 137.986 46.3323 137.781 45.821C138.67 45.6009 138.271 45.866 138.627 46.453C139.67 48.1797 143.516 47.9915 142.695 45.3405C142.315 44.112 138.538 43.5487 138.165 41.358C137.866 39.6041 138.961 38.165 140.709 37.9283C141.726 37.791 142.919 38.0561 143.919 38.2632L143.918 38.2655Z" fill="#E7BD2F"/>
<path d="M118.98 47.4767C119.049 47.169 119.195 46.9962 119.221 46.595C119.338 44.7914 119.412 41.3568 119.216 39.6147C119.183 39.3189 119.09 38.8478 118.776 38.7508C118.329 38.6123 118.234 38.9224 118.152 38.1366H125.246C125.166 38.4395 125.705 41.0231 124.898 40.4964C124.833 40.4538 124.471 39.5224 124.064 39.2005C123.902 39.0727 123.458 38.8455 123.296 38.8455H121.05C121.037 38.8455 120.872 39.01 120.872 39.023V42.6883C120.872 42.9108 122.168 42.8895 122.291 42.6291H122.528C122.669 42.8433 123.021 42.7273 123.239 42.7451C123.226 42.6883 123.121 42.6457 123.119 42.6291C123.11 42.5108 123.516 42.4539 123.665 42.2859C123.875 42.0504 123.733 41.6042 124.302 41.8018C124.231 42.6398 124.453 43.6043 124.183 44.4032C123.662 44.1878 123.91 43.957 123.71 43.6943C123.657 43.5546 123.555 43.3948 123.473 43.5759C123.444 43.5605 123.392 43.5889 123.355 43.5759C123.425 43.2587 123.196 43.3368 122.985 43.3025C122.386 43.2043 121.573 43.1061 120.99 43.3392C120.987 43.3783 120.994 43.4185 120.99 43.4576C120.871 43.4966 120.884 43.5084 120.868 43.6292C120.726 44.7452 120.891 46.3512 120.99 47.4779H123.059C123.14 47.4779 124.153 47.2045 124.272 47.1489C124.445 47.0672 124.466 46.9418 124.537 46.8873C124.711 46.7536 124.871 46.6554 125.01 46.4731C125.385 45.9772 125.129 45.5228 125.958 45.8245C125.879 46.0589 125.872 46.2932 125.838 46.5335C125.568 46.3796 125.49 47.1619 125.478 47.427C125.466 47.6921 125.6 47.7004 125.601 47.7158C125.605 47.7536 125.601 47.7951 125.601 47.8341C125.367 47.8105 125.406 48.0519 125.194 48.0791C123.2 48.3407 120.623 47.8649 118.563 48.0708L118.389 47.5974C118.422 47.5903 118.472 47.5951 118.507 47.5974C118.604 47.6022 118.822 47.7927 119.1 47.5927C119.092 47.5323 118.978 47.4874 118.981 47.4791L118.98 47.4767Z" fill="#E6B92E"/>
<path d="M97.9347 33.0522C98.5643 32.6735 98.5702 32.6072 98.6424 31.8084C98.7927 30.1396 98.7702 27.2259 98.6495 25.5394C98.6187 25.1039 98.5513 24.2293 98.1418 24.0352C97.7808 23.8647 97.4743 24.1275 97.5796 23.5937L104.438 23.7701V25.7205C104.182 25.5276 104.157 25.1583 103.911 24.8873C103.186 24.0884 101.942 24.1689 100.949 24.1807C100.749 24.1831 100.424 24.105 100.3 24.3014V24.4198C100.263 24.4257 100.221 24.4151 100.182 24.4198C99.9869 24.5429 100.064 24.8683 100.061 25.0684C100.052 26.0021 99.9738 27.072 100.182 27.9667C100.221 27.9703 100.261 27.9632 100.3 27.9667C100.818 28.02 102.52 28.033 102.872 27.7004C103.002 27.5774 103.112 27.0424 103.142 27.0211C103.161 27.0069 103.611 27.1158 103.611 27.1407V29.742C102.95 29.8568 103.224 29.5704 103.008 29.2236C102.892 29.0366 102.56 28.8946 102.547 28.7964C102.547 28.7881 102.656 28.7372 102.666 28.6804C101.921 28.5975 101.033 28.3999 100.3 28.678C100.292 28.6792 100.2 28.7751 100.182 28.7964C100.039 28.9703 100.072 28.994 100.057 29.1999C99.9738 30.2864 100.131 31.4817 100.065 32.58C100.157 32.6096 100.155 32.4688 100.182 32.4617C100.219 32.4522 100.263 32.4688 100.3 32.4617C100.257 32.8463 101.735 32.7339 102.131 32.696C103.036 32.6108 103.825 32.2451 104.375 31.5101C104.484 31.3646 104.542 31.0592 104.562 31.0438C104.586 31.0261 105.127 31.1409 105.147 31.1622C105.232 31.2545 104.723 33.2948 104.791 33.6428C104.674 33.6558 104.555 33.6404 104.438 33.6428V33.5244C104.527 33.5209 104.803 33.5611 104.616 33.4061H97.582C97.511 33.1161 97.7394 33.1706 97.9358 33.0522H97.9347Z" fill="#E5B72C"/>
<path d="M66.9562 24.5393L67.1918 25.1299L67.1941 23.4753C67.2367 23.4162 67.3444 23.5937 67.3705 23.5937H75.6467C75.6822 23.5937 75.7378 23.4446 75.8242 23.4753V25.6033H75.5887L75.5863 25.2459C75.526 25.253 75.4786 25.3678 75.4703 25.3666C75.4088 25.3607 74.9531 24.679 74.5922 24.5298C73.9483 24.2636 73.0808 24.305 72.3956 24.3014C72.6027 26.9193 72.0678 30.0355 72.5139 32.5788C72.5187 32.6048 72.269 32.6983 72.6252 33.0001L73.4596 33.4061C72.4169 33.4203 71.3695 33.3919 70.3257 33.4061C70.1257 33.4084 69.8002 33.3303 69.6771 33.5268C69.6239 33.5315 69.5718 33.5895 69.5588 33.6451C69.4806 33.6416 69.4002 33.6522 69.3221 33.6451C69.3434 33.509 69.2854 33.2771 69.3221 33.1717C69.7742 33.3114 70.5233 33.1185 70.6073 32.606C70.6357 32.4297 70.5044 32.3587 70.5044 32.3445C70.5079 32.2664 70.4996 32.1859 70.5044 32.1078C70.8263 32.3184 70.7269 32.2226 70.7411 31.9326C70.8618 29.4425 70.6511 26.8637 70.7411 24.3641C70.721 24.2138 70.5434 24.4304 70.5044 24.4233C69.3907 24.2257 68.5492 24.2269 67.6663 25.0151C67.6616 25.0198 67.5871 24.9145 67.5456 24.9571C67.3752 25.1275 67.3362 25.4837 67.3101 25.7252L66.9562 25.253C66.9527 25.0174 66.9515 24.7796 66.9562 24.544V24.5393Z" fill="#E6B92D"/>
<path d="M128.556 39.2005C128.547 39.2029 128.471 39.0881 128.398 39.1082C127.975 39.223 127.828 40.0337 127.492 40.2645V38.1366L135.936 38.1508C136.359 38.2537 135.996 39.9071 136.004 40.2645C135.768 40.1094 135.731 39.7497 135.532 39.4976C135.037 38.8727 133.003 38.5378 132.576 38.965C132.419 39.1224 132.466 39.1757 132.451 39.3686C132.265 41.6835 132.604 44.2481 132.457 46.5914C132.613 46.7784 132.572 46.5027 132.575 46.4139H132.694C132.719 46.8731 132.619 47.3501 133.165 47.5442C133.345 47.6081 133.509 47.5643 133.64 47.5962C133.511 47.7596 133.24 47.6353 133.287 47.8318H133.76V48.0696H129.74V47.8341C130.12 47.8602 130.52 47.7288 130.685 47.3607C130.837 47.0246 130.786 46.6494 130.804 46.2968H130.922L131.04 46.4743V39.0265C130.872 38.8348 130.924 39.1579 130.922 39.2609C130.909 39.7142 130.926 40.171 130.922 40.6231H130.804C130.799 40.0727 130.807 39.5177 130.804 38.9674C129.979 38.8762 129.333 39.0265 128.556 39.2041V39.2005Z" fill="#E5B72C"/>
<path d="M78.1892 24.8944C78.1537 24.6861 78.259 24.4506 78.0827 24.2316C77.8152 23.899 77.0294 24.3156 77.2436 23.357C78.4294 23.641 79.7005 23.4008 80.903 23.4055C81.1894 23.4067 81.232 23.77 81.0947 23.957C80.9574 24.144 80.5361 23.9523 80.3242 24.2505C80.226 24.389 80.1171 24.9973 80.0946 25.2033C79.9159 26.8519 79.9633 29.8875 80.0745 31.5788C80.0958 31.9019 80.2722 33.1445 80.6319 33.1753C80.9503 33.2025 81.2379 32.767 81.1444 33.4061H77.3608C77.4803 33.0948 77.8637 33.2286 78.0862 32.9966C78.2614 32.8131 78.0661 32.7137 78.0708 32.696C78.0933 32.5918 78.1679 32.4818 78.1892 32.3409C78.5478 32.4072 78.4164 32.1599 78.4259 31.9326C78.5123 29.7621 78.5135 27.2377 78.4259 25.0683C78.4141 24.7772 78.5087 24.6825 78.1892 24.8932V24.8944Z" fill="#E6B92E"/>
<path d="M98.405 25.7216C98.3908 25.3027 98.4997 24.4375 98.0902 24.2032C97.6996 23.9795 97.3552 24.26 97.3398 23.4754H104.552C104.436 23.8375 104.816 25.7003 104.669 25.84C104.636 25.8719 104.288 25.8471 104.192 25.7855C103.995 25.6565 104.138 25.0518 103.409 24.6778C103.016 24.4754 102.822 24.4896 102.423 24.4222C102.385 24.4162 102.295 24.3145 102.137 24.2991C101.551 24.2434 100.89 24.3488 100.295 24.3038C100.418 24.1073 100.744 24.1855 100.944 24.1831C101.938 24.1701 103.182 24.0896 103.906 24.8896C104.152 25.1607 104.177 25.5299 104.433 25.7228V23.7724L97.5742 23.5961C97.4688 24.1298 97.7754 23.8671 98.1363 24.0375C98.5446 24.2304 98.6121 25.1062 98.6441 25.5417C98.7648 27.2282 98.7873 30.142 98.637 31.8107C98.5648 32.6096 98.5588 32.6759 97.9292 33.0546V32.9362C98.5577 32.5551 98.379 31.8036 98.4026 31.1622V25.7228L98.405 25.7216Z" fill="#F6DA31"/>
<path d="M128.557 39.2005C127.814 39.4337 128.056 40.5473 127.375 40.5012V38.0182H136.243V40.5012C135.572 40.6598 135.766 40.1071 135.47 39.6786C134.921 38.8845 133.435 38.9686 132.579 38.965C133.005 38.5378 135.039 38.8727 135.534 39.4976C135.733 39.7497 135.772 40.1094 136.006 40.2645C135.998 39.9059 136.362 38.2537 135.939 38.1508L127.495 38.1366V40.2645C127.831 40.0337 127.979 39.223 128.4 39.1082C128.473 39.0881 128.549 39.2029 128.558 39.2005H128.557Z" fill="#F6DA31"/>
<path d="M66.9547 24.5393C66.9618 24.1464 66.9488 23.7487 66.9547 23.3558L75.8641 23.3487C76.1552 23.4032 75.8712 25.5169 75.9398 25.8388L75.4676 25.3654C75.4759 25.3654 75.5232 25.2518 75.5836 25.2447L75.586 25.6021H75.8215V23.473C75.7351 23.441 75.6806 23.5913 75.644 23.5913H67.3678C67.3429 23.5913 67.234 23.415 67.1914 23.473L67.189 25.1275L66.9535 24.537L66.9547 24.5393Z" fill="#FADE2A"/>
<path d="M155.395 31.3965C155.35 30.9255 155.98 30.9941 155.998 31.3362C156.032 31.9965 155.581 32.9362 155.628 33.6416C155.551 33.6558 155.472 33.6381 155.395 33.6416C155.272 33.4451 154.947 33.5233 154.747 33.5209C153.919 33.5102 153.087 33.5126 152.26 33.5209C152.06 33.5233 151.735 33.4451 151.611 33.6416C151.572 33.6416 151.532 33.6416 151.493 33.6416C150.688 33.444 149.578 33.444 148.773 33.6416C148.577 33.6321 148.378 33.6499 148.182 33.6416C148.095 32.9102 148.214 33.1185 148.773 32.9315C148.76 32.9433 148.808 33.0735 148.74 33.1386C148.635 33.2416 148.326 33.0297 148.42 33.4037H155.512L155.749 31.277L155.491 31.4936C155.435 31.5089 155.401 31.3918 155.395 31.3941V31.3965Z" fill="#F6DA31"/>
<path d="M88.0004 39.674L88.2371 39.4964C88.1685 41.7794 88.3271 44.0789 88.2371 46.3595C88.2277 46.5868 88.359 46.8341 88.0004 46.7678C88.0466 45.9299 88.0028 45.324 88.0004 44.5216C88.1981 43.6754 88.1981 42.5309 88.0004 41.6835C87.9933 40.9971 88.0738 40.3687 88.0004 39.674Z" fill="#FBE42A"/>
<path d="M110.231 44.1664C110.426 45.3109 109.56 47.8412 111.413 47.7146C111.393 47.9087 111.505 48.2329 111.295 48.3051C110.441 48.0968 109.408 48.1749 108.515 48.1844C108.315 48.1868 107.989 48.1087 107.866 48.3051C107.709 48.298 107.549 48.3134 107.393 48.3051C107.386 48.227 107.399 48.1477 107.393 48.0684H111.294C111.371 47.6424 110.869 47.9477 110.517 47.7217C110.348 47.6128 110.208 47.3252 110.163 47.1299C110.018 46.5145 110.058 44.7594 110.231 44.1653V44.1664Z" fill="#FBE42A"/>
<path d="M118.391 47.595L118.565 48.0684C120.625 47.8625 123.201 48.3383 125.196 48.0767C125.409 48.0483 125.369 47.8081 125.603 47.8317C125.599 47.9477 125.595 48.0554 125.486 48.1288C125.381 48.214 125.222 48.1596 125.13 48.1868C123.595 48.1915 122.054 48.1797 120.519 48.1868C120.126 48.1892 118.323 48.356 118.153 48.1868C118.082 48.1158 118.141 47.6518 118.391 47.5962V47.595Z" fill="#FBE42A"/>
<path d="M70.5028 24.421C70.5419 24.4281 70.7194 24.2115 70.7395 24.3618C70.6496 26.8614 70.859 29.4402 70.7395 31.9303C70.7253 32.2202 70.8247 32.3173 70.5028 32.1054C70.5206 31.8048 70.6129 31.4557 70.6212 31.1598C70.6401 30.4533 70.6164 29.7384 70.6212 29.0319C70.6294 27.8484 70.691 26.6057 70.6259 25.421C70.607 25.0826 70.4638 24.7642 70.5028 24.421Z" fill="#FBE42A"/>
<path d="M85.9936 23.4754C85.6184 23.7843 83.4337 23.4577 83.2751 23.5938C83.4751 24.2009 84.3142 23.8754 84.4491 24.724C84.6811 26.1821 84.2882 28.5952 84.2207 30.161C84.2112 30.3882 84.3414 30.6344 83.984 30.5693C84.1083 29.1527 84.3024 27.6709 84.3379 26.2531C84.3509 25.7513 84.4432 24.64 84.0491 24.298C83.5958 23.9038 82.9532 24.4057 83.1555 23.4754C84.0337 23.5701 85.1509 23.3488 85.9936 23.4754Z" fill="#F6DA31"/>
<path d="M132.576 41.3284C132.551 43.0173 132.642 44.7262 132.576 46.4127C132.573 46.5015 132.614 46.7772 132.458 46.5902C132.604 44.2469 132.266 41.6823 132.452 39.3674C132.467 39.1745 132.42 39.1212 132.577 38.9638C132.741 39.7544 132.589 40.5284 132.577 41.3284H132.576Z" fill="#FBE42A"/>
<path d="M130.686 47.3583C130.52 47.7264 130.12 47.8578 129.739 47.8317V48.0672H133.759V47.8317L133.287 47.8305C133.241 47.6341 133.512 47.7584 133.641 47.595C134.009 47.6838 134.143 47.9595 133.759 48.1868C133.131 48.1962 132.497 48.1738 131.868 48.1868C131.112 48.2022 130.372 48.2389 129.621 48.3051C129.643 48.1596 129.586 47.6282 129.621 47.595C129.661 47.556 130.492 47.64 130.686 47.3595V47.3583Z" fill="#FBE42A"/>
<path d="M97.9349 33.0522C97.7384 33.1706 97.51 33.1161 97.581 33.4061H104.615C104.802 33.5623 104.527 33.5209 104.437 33.5244C102.382 33.6061 100.289 33.5007 98.2284 33.522C98.0284 33.5244 97.7029 33.4463 97.5798 33.6428C97.1715 32.9682 97.6058 33.1327 97.9349 32.9339V33.0522Z" fill="#FADE2A"/>
<path d="M78.1914 24.8943C78.511 24.6837 78.4163 24.7784 78.4281 25.0695C78.5157 27.24 78.5145 29.7632 78.4281 31.9338C78.4186 32.1622 78.55 32.4084 78.1914 32.3421C78.4553 30.6308 78.4825 26.5891 78.1914 24.8932V24.8943Z" fill="#FBE42A"/>
<path d="M94.388 47.8318C94.3632 47.9182 94.4223 48.0708 94.3833 48.1785C94.0318 48.2022 93.6767 48.1809 93.324 48.1868C92.498 48.1998 91.6672 48.1797 90.8411 48.1868C90.7227 48.1868 90.6044 48.1868 90.486 48.1868C89.7392 48.1844 88.9865 48.1904 88.2397 48.1868C87.9297 48.1856 87.5095 48.3194 87.1758 48.1868C88.0326 47.7856 94.0247 48.3265 94.2708 48.0696C94.2981 48.0412 94.2543 47.8578 94.2708 47.7738L94.3892 47.8318H94.388Z" fill="#FBE42A"/>
<path d="M92.8468 31.5148C92.8468 29.8248 92.4917 27.6365 92.6101 26.0755C92.6125 26.0435 92.7462 25.4636 92.8456 25.4849V31.5148H92.8468Z" fill="#FADE2A"/>
<path d="M72.5138 32.5788C72.6038 32.7658 72.7825 32.9386 72.9801 32.999C73.5624 33.1789 73.8026 32.754 73.6961 33.644C73.579 33.6487 73.4594 33.6392 73.3411 33.644C73.218 33.4475 72.8925 33.5256 72.6925 33.5233C71.7623 33.5114 70.5717 33.4392 69.6758 33.5256C69.7989 33.3292 70.1243 33.4073 70.3243 33.4049C71.3682 33.3919 72.4156 33.4191 73.4582 33.4049L72.6239 32.999C72.2676 32.6972 72.5174 32.6037 72.5126 32.5776L72.5138 32.5788Z" fill="#F6DA31"/>
<path d="M104.435 33.5256V33.644C102.156 33.7162 99.8587 33.5907 97.5781 33.644C97.7012 33.4487 98.0267 33.5256 98.2267 33.5233C100.287 33.502 102.382 33.6061 104.435 33.5256Z" fill="#C8A433"/>
<path d="M108.454 46.6495H108.336C108.47 44.5038 108.336 42.0883 108.336 39.9106H108.454V46.6495Z" fill="#97833D"/>
<path d="M124.063 39.2005C123.754 39.1165 123.426 39.1248 123.117 39.0822C122.532 39.0017 121.896 38.8822 121.278 38.9591C121.162 38.9733 121.002 38.9189 120.989 39.0822C121.085 40.2681 120.959 41.4362 120.989 42.6303C121.421 42.6303 121.858 42.6303 122.29 42.6303C122.167 42.8907 120.871 42.912 120.871 42.6895V39.0242C120.871 39.0112 121.036 38.8467 121.049 38.8467H123.295C123.458 38.8467 123.902 39.0727 124.063 39.2017V39.2005Z" fill="#FADE2A"/>
<path d="M130.923 46.2944H130.805C130.895 44.4671 130.822 42.4622 130.805 40.6195H130.923C130.909 42.5096 130.934 44.4055 130.923 46.2944Z" fill="#C8A433"/>
<path d="M98.4062 31.1611C98.469 29.4201 98.4654 27.4638 98.4062 25.7217V31.1611Z" fill="#E5B72C"/>
<path d="M132.697 46.4128H132.579C132.645 44.7263 132.554 43.0173 132.579 41.3285C132.775 41.4516 132.697 41.777 132.699 41.977C132.717 43.4339 132.618 44.9713 132.697 46.4128Z" fill="#97833D"/>
<path d="M115.432 32.9339C115.43 32.9422 115.539 32.9919 115.552 33.0463C115.355 33.1469 114.87 33.0451 114.96 33.4061C116.038 33.4807 117.227 33.2534 118.27 33.5245H114.724C114.52 32.9197 115.008 33.0676 115.432 32.9327V32.9339Z" fill="#F6DA31"/>
<path d="M135.77 33.0523H136.244C136.222 33.2464 136.337 33.5718 136.125 33.644C135.231 33.4369 134.161 33.5139 133.227 33.5233C133.027 33.5257 132.702 33.4476 132.579 33.644C132.536 33.6381 132.485 33.6559 132.46 33.644C132.394 33.2854 132.641 33.4168 132.868 33.4073C133.951 33.3647 135.044 33.4393 136.125 33.4073L135.652 33.1624C135.662 33.1115 135.773 33.0618 135.77 33.0535V33.0523Z" fill="#F6DA31"/>
<path d="M78.0712 32.6972C78.0677 32.7138 78.263 32.8144 78.0866 32.9978C77.8641 33.2298 77.4807 33.0961 77.3611 33.4061H81.1448C81.1389 33.4499 81.1566 33.4996 81.1448 33.5257H77.2428C77.2061 33.4156 77.2653 33.1908 77.2428 33.0523C77.6819 33.0464 77.9754 33.2061 78.0712 32.6984V32.6972Z" fill="#FADE2A"/>
<path d="M121.579 33.0522C121.578 33.0617 121.684 33.109 121.697 33.1623L121.224 33.4061L124.652 33.4085L124.534 33.5256C123.495 33.5978 122.345 33.373 121.342 33.644C121.264 33.6404 121.185 33.6499 121.105 33.644V33.0511H121.578L121.579 33.0522Z" fill="#FADE2A"/>
<path d="M112.002 38.1366C111.98 38.1366 111.819 38.2644 111.602 38.2632C110.198 38.2584 108.793 38.249 107.391 38.2549L112.002 38.1366Z" fill="#FBE42A"/>
<path d="M124.537 46.8862C124.464 46.9406 124.444 47.066 124.271 47.1477C124.153 47.2033 123.139 47.4767 123.058 47.4767H120.99C120.891 46.35 120.726 44.744 120.868 43.628C120.883 43.5085 120.869 43.4954 120.99 43.4564C120.908 44.247 120.89 46.1749 120.984 46.9501C120.999 47.0767 120.979 47.2223 121.1 47.3063C121.514 47.5951 123.972 47.1643 124.537 46.885V46.8862Z" fill="#FADE2A"/>
<path d="M82.918 33.2889C82.9641 32.8439 83.0943 33.1706 83.5062 32.9907C83.9961 32.7777 83.9358 31.3421 83.9819 30.806C84.2589 31.8344 84.2518 33.2309 82.918 33.2889Z" fill="#F6DA31"/>
<path d="M81.1442 33.5256C81.0661 33.6901 81.0022 33.6369 80.8554 33.6499C80.0778 33.7197 78.2837 33.7422 77.531 33.6499C77.3996 33.6333 77.3002 33.7008 77.2422 33.5268H81.1442V33.5256Z" fill="#C8A433"/>
<path d="M73.3383 33.644C72.1359 33.6795 70.7488 33.7056 69.5547 33.644C69.5665 33.5884 69.6198 33.5304 69.673 33.5257C70.5689 33.4393 71.7595 33.5126 72.6898 33.5233C72.8898 33.5257 73.2152 33.4476 73.3383 33.644Z" fill="#C8A433"/>
<path d="M155.397 33.644C154.177 33.7091 152.846 33.6476 151.613 33.644C151.736 33.4487 152.062 33.5257 152.262 33.5233C153.089 33.515 153.921 33.5126 154.748 33.5233C154.948 33.5257 155.274 33.4475 155.397 33.644Z" fill="#C8A433"/>
<path d="M154.688 25.1311C154.35 24.5275 153.775 24.4636 153.15 24.4222C152.603 24.1583 151.868 24.3678 151.259 24.3038H151.141C151.401 24.0435 153.441 24.189 153.888 24.3358C154.083 24.3997 154.58 24.6849 154.695 24.8305C154.946 25.1489 154.683 25.1134 154.688 25.1323V25.1311Z" fill="#F6DA31"/>
<path d="M102.071 28.7964C101.482 28.7964 100.886 28.7964 100.297 28.7964V32.4617C100.259 32.4688 100.215 32.4522 100.18 32.4617V28.7964C100.196 28.7751 100.29 28.6804 100.298 28.678C100.689 28.594 101.698 28.6449 102.072 28.7964H102.071Z" fill="#B39837"/>
<path d="M100.416 24.421C100.151 25.5524 100.367 26.8045 100.298 27.9679C100.259 27.9644 100.219 27.9715 100.18 27.9679V24.421C100.219 24.4162 100.26 24.4269 100.298 24.421C100.336 24.415 100.377 24.4221 100.416 24.421Z" fill="#97833D"/>
<path d="M118.27 33.5256V33.644C117.348 33.6712 115.878 33.7564 115.011 33.6487C114.88 33.6321 114.781 33.6996 114.723 33.5256H118.27Z" fill="#C8A433"/>
<path d="M136.125 33.644C135.951 33.7032 132.918 33.6913 132.578 33.644C132.701 33.4487 133.027 33.5256 133.227 33.5233C134.16 33.5138 135.23 33.4357 136.125 33.644Z" fill="#C8A433"/>
<path d="M124.536 33.5256V33.644C123.628 33.7268 122.273 33.6902 121.344 33.644C122.347 33.373 123.498 33.599 124.536 33.5256Z" fill="#C8A433"/>
<path d="M140.38 32.1067H140.262V29.1503C140.298 29.142 140.341 29.1574 140.38 29.1503C140.359 30.1326 140.408 31.1244 140.38 32.1067Z" fill="#C8A433"/>
<path d="M140.734 33.644C139.897 33.6748 138.57 33.7411 137.777 33.644C137.9 33.4487 138.226 33.5257 138.426 33.5233C139.16 33.515 140.045 33.4334 140.734 33.644Z" fill="#C8A433"/>
<path d="M85.6365 33.5256H85.7548V33.644C85.1169 33.7114 83.8494 33.7079 83.2056 33.6499C83.0505 33.6357 83.0115 33.6866 82.918 33.5256H85.6376H85.6365Z" fill="#C8A433"/>
<path d="M124.298 41.8018C124.472 41.8622 124.405 41.9592 124.421 42.0906C124.513 42.8326 124.343 43.7558 124.415 44.5203C124.214 44.5818 124.205 44.4138 124.18 44.4031C124.45 43.6043 124.227 42.6397 124.298 41.8018Z" fill="#97833D"/>
<path d="M132.459 30.097C132.478 30.1053 132.441 30.1893 132.459 30.2153C131.531 30.265 130.539 30.1467 129.621 30.2153V30.097C130.562 30.1337 131.516 30.0698 132.459 30.097Z" fill="#97833D"/>
<path d="M85.6384 33.5257H82.9187C82.9045 33.502 82.9282 33.45 82.9187 33.4073C83.7969 33.4795 84.7981 33.2547 85.6384 33.5257Z" fill="#F6DA31"/>
<path d="M151.497 33.644C150.599 33.6416 149.672 33.6854 148.777 33.644C149.582 33.4463 150.692 33.4463 151.497 33.644Z" fill="#C8A433"/>
<path d="M95.2146 33.644C94.3589 33.6605 93.4678 33.6759 92.6133 33.644C93.3755 33.4463 94.4524 33.4463 95.2146 33.644Z" fill="#C8A433"/>
<path d="M120.989 43.3392C121.572 43.1061 122.385 43.2031 122.984 43.3026C123.196 43.3369 123.424 43.2588 123.354 43.5759C123.103 43.4872 123.003 43.4943 122.762 43.4576C122.728 43.4529 122.633 43.3487 122.476 43.3345C121.999 43.2919 121.472 43.3736 120.988 43.3392H120.989Z" fill="#FADE2A"/>
<path d="M100.298 28.6779C101.031 28.3998 101.918 28.5975 102.664 28.6803C102.653 28.7371 102.543 28.788 102.544 28.7963H102.071C101.698 28.6448 100.687 28.5939 100.297 28.6779H100.298Z" fill="#FADE2A"/>
<path d="M91.6686 47.24L92.0225 47.4755C91.671 47.4128 89.9797 47.6151 89.8945 47.3583C90.5017 47.4293 91.0816 47.311 91.6686 47.24Z" fill="#FBE42A"/>
<path d="M67.6676 25.0127C67.399 25.4482 67.6368 25.9998 66.9587 25.8412C66.954 25.6447 66.9611 25.4459 66.9587 25.2494L67.3126 25.7216C67.3374 25.4802 67.3765 25.1252 67.5481 24.9535C67.5895 24.9121 67.6641 25.0163 67.6688 25.0115L67.6676 25.0127Z" fill="#FADE2A"/>
<path d="M123.116 39.0821H120.988C121.001 38.9188 121.162 38.9732 121.277 38.959C121.895 38.8821 122.53 39.0017 123.116 39.0821Z" fill="#97833D"/>
<path d="M69.3203 33.1706C69.389 32.9741 70.576 33.1528 70.5026 32.3433C70.5026 32.3575 70.634 32.4285 70.6056 32.6049C70.5227 33.1185 69.7724 33.3114 69.3203 33.1706Z" fill="#FBE42A"/>
<path d="M102.429 24.421C101.761 24.4411 101.085 24.3926 100.419 24.421C100.38 24.4222 100.339 24.4151 100.301 24.421V24.3027C100.896 24.3476 101.558 24.2423 102.142 24.2979C102.301 24.3133 102.391 24.4151 102.429 24.421Z" fill="#B39837"/>
<path d="M91.9051 38.9638V39.0821C91.2412 39.0419 90.5607 39.1117 89.8956 39.0821C89.8991 39.0431 89.892 39.0028 89.8956 38.9638H91.9051Z" fill="#97833D"/>
<path d="M153.149 24.421C152.54 24.3796 151.794 24.5512 151.258 24.3027C151.868 24.3666 152.603 24.1571 153.149 24.421Z" fill="#B39837"/>
<path d="M122.763 43.4563C122.309 43.5427 121.361 43.3356 120.989 43.4563C120.993 43.4173 120.986 43.377 120.989 43.338C121.473 43.3723 122 43.2906 122.477 43.3332C122.634 43.3474 122.729 43.4516 122.763 43.4563Z" fill="#B39837"/>
<path d="M125.837 46.5311C125.782 46.9217 125.676 47.3253 125.601 47.7134C125.599 47.6981 125.464 47.6933 125.477 47.4247C125.49 47.156 125.569 46.3773 125.837 46.5311Z" fill="#FBE42A"/>
<path d="M128.554 33.644C128.012 33.657 127.439 33.6689 126.898 33.644C127.319 33.444 128.158 33.4476 128.554 33.644Z" fill="#C8A433"/>
<path d="M85.5192 33.0523C85.9701 32.9422 85.9026 33.2854 85.9914 33.6428C85.9144 33.6499 85.8328 33.6357 85.7559 33.6428V33.5245C85.8032 33.154 85.763 33.1304 85.3984 33.1671C85.4067 33.1043 85.5168 33.0688 85.5192 33.0511V33.0523Z" fill="#F6DA31"/>
<path d="M92.8477 31.7515C93.095 32.0084 92.921 32.4901 92.9636 32.8167L92.8477 32.6972C92.8477 32.3824 92.8477 32.0664 92.8477 31.7515Z" fill="#FADE2A"/>
<path d="M124.418 33.0523H124.891C124.871 33.2559 124.984 33.5517 124.773 33.644C124.893 33.0771 124.631 33.2476 124.418 33.0523Z" fill="#FADE2A"/>
<path d="M87.7656 47.4767L88.0023 47.0033C88.0023 47.0352 88.1869 47.0885 88.0674 47.3548C87.9349 47.6495 87.7846 47.4708 87.7656 47.4767Z" fill="#FBE42A"/>
<path d="M108.218 38.9638C107.883 38.5649 107.392 38.9496 107.391 38.4904C107.638 38.6324 108.12 38.6182 108.287 38.8466C108.328 38.9034 108.217 38.9567 108.218 38.9638Z" fill="#FBE42A"/>
<path d="M118.981 47.4767C118.979 47.485 119.094 47.5299 119.101 47.5903C118.823 47.7903 118.606 47.5998 118.508 47.595L118.981 47.4767Z" fill="#FBE42A"/>
<path d="M140.499 32.8155C140.486 32.8084 140.403 32.9966 140.262 32.7539C140.204 32.5101 140.378 32.3764 140.38 32.3421L140.499 32.8155Z" fill="#F6DA31"/>
<path d="M123.119 42.629C123.12 42.6456 123.227 42.6882 123.239 42.745C123.022 42.7273 122.669 42.8433 122.527 42.629C122.724 42.629 122.921 42.629 123.119 42.629Z" fill="#FADE2A"/>
<path d="M108.336 39.5555V39.2004C108.354 39.1981 108.39 39.0904 108.452 39.0809L108.336 39.5555Z" fill="#FADE2A"/>
<path d="M123.709 43.693C123.701 43.6824 123.544 43.6113 123.473 43.5747C123.553 43.3924 123.656 43.5522 123.709 43.693Z" fill="#FADE2A"/>
<path d="M118.449 33.4073C118.526 33.4463 118.526 33.4866 118.449 33.5256V33.4073Z" fill="#F6DA31"/>
<path d="M142.982 27.4957C143.361 27.4081 143.159 27.7218 143.061 27.8129C142.523 28.3123 141.493 28.452 140.79 28.4425C140.563 28.439 140.316 28.5585 140.382 28.2058C140.421 28.2058 140.461 28.2058 140.5 28.2058C141.667 28.1987 142.142 28.3739 142.983 27.4969L142.982 27.4957Z" fill="#FADE2A"/>
<path d="M140.38 24.421V24.5394C140.426 25.5962 140.317 26.6768 140.38 27.7313C140.391 27.9017 140.398 28.0591 140.498 28.2047C140.459 28.2047 140.419 28.2047 140.38 28.2047C140.341 28.2047 140.292 28.1964 140.262 28.2047V24.421C140.382 24.2636 140.32 24.421 140.38 24.421Z" fill="#B39837"/>
<path d="M140.264 28.2046C140.258 28.2058 140.188 28.4366 140.146 28.2638C140.209 27.1407 140.064 25.9406 140.14 24.8281C140.154 24.6198 140.128 24.5997 140.264 24.4222V28.2058V28.2046Z" fill="#FADE2A"/>
<path d="M140.264 29.1502V32.1066L140.147 32.225L140.145 29.0922C140.176 28.9195 140.257 29.1526 140.263 29.1514L140.264 29.1502Z" fill="#F6DA31"/>
<path d="M89.8945 38.9638C90.5691 38.6939 91.4236 38.9153 92.1408 38.8466L91.9053 38.9638H89.8957H89.8945Z" fill="#FBE42A"/>
<path d="M132.103 29.2686C132.111 29.2923 132.223 29.3301 132.215 29.4319C132.204 29.5124 132.127 29.4864 132.103 29.5053H129.384C129.165 29.329 129.361 29.3562 129.384 29.2686C130.189 29.4662 131.299 29.4662 132.103 29.2686Z" fill="#97833D"/>
<path d="M132.458 30.097C131.516 30.0698 130.562 30.1337 129.62 30.097C129.531 30.0935 129.256 30.1349 129.443 29.9787C130.423 30.0532 131.515 29.826 132.457 30.097H132.458Z" fill="#FADE2A"/>
<path d="M132.102 29.5053C131.858 29.7029 129.621 29.697 129.383 29.5053H132.102Z" fill="#FBE42A"/>
<path d="M100.178 32.4617C100.151 32.4688 100.154 32.6096 100.06 32.5801C100.127 31.4818 99.9692 30.2853 100.052 29.2C100.067 28.9941 100.034 28.9716 100.178 28.7964V32.4617Z" fill="#FADE2A"/>
<path d="M100.182 27.9679C99.9744 27.0732 100.051 26.0033 100.061 25.0695C100.063 24.8695 99.9851 24.544 100.182 24.421V27.9679Z" fill="#FADE2A"/>
<path d="M130.919 40.6195C130.923 40.1674 130.906 39.7105 130.919 39.2573C130.923 39.1543 130.871 38.8312 131.037 39.0229V46.4707L130.919 46.2931C130.93 44.4031 130.905 42.5071 130.919 40.6183V40.6195Z" fill="#FADE2A"/>
<path d="M140.379 27.7312C140.317 26.6755 140.426 25.5962 140.379 24.5393C140.575 24.6624 140.498 24.9878 140.5 25.1879C140.508 26.0021 140.589 26.9607 140.379 27.7312Z" fill="#918EA2"/>
</svg>
