<svg width="14" height="14" viewBox="0 0 14 14" fill="none" xmlns="http://www.w3.org/2000/svg">
<path d="M6.99609 5.59388C7.30251 5.59388 7.60593 5.53353 7.88902 5.41627C8.17212 5.29901 8.42934 5.12714 8.64601 4.91047C8.86268 4.6938 9.03455 4.43657 9.15181 4.15348C9.26907 3.87038 9.32943 3.56697 9.32943 3.26055C9.32943 2.95413 9.26907 2.65071 9.15181 2.36762C9.03455 2.08453 8.86268 1.8273 8.64601 1.61063C8.42934 1.39396 8.17212 1.22209 7.88902 1.10483C7.60593 0.987569 7.30251 0.927216 6.99609 0.927216C6.37726 0.927216 5.78376 1.17305 5.34618 1.61063C4.90859 2.04822 4.66276 2.64171 4.66276 3.26055C4.66276 3.87939 4.90859 4.47288 5.34618 4.91047C5.78376 5.34805 6.37726 5.59388 6.99609 5.59388ZM0.996094 12.5272V12.9272H12.9961V12.5272C12.9961 11.0339 12.9961 10.2872 12.7054 9.71655C12.4498 9.21481 12.0418 8.80687 11.5401 8.55122C10.9694 8.26055 10.2228 8.26055 8.72943 8.26055H5.26276C3.76943 8.26055 3.02276 8.26055 2.45209 8.55122C1.95035 8.80687 1.54242 9.21481 1.28676 9.71655C0.996094 10.2872 0.996094 11.0339 0.996094 12.5272Z" stroke="#D7AB42" stroke-width="0.856808" stroke-linecap="round" stroke-linejoin="round"/>
</svg>
