<svg width="16" height="16" viewBox="0 0 16 16" fill="none" xmlns="http://www.w3.org/2000/svg">
<path fill-rule="evenodd" clip-rule="evenodd" d="M4.49781 0.760585H4.58248C4.81648 0.760585 4.96715 0.760585 5.11448 0.773918C5.71528 0.830105 6.28751 1.05678 6.76381 1.42725H10.9631C11.2358 1.42725 11.4211 1.42725 11.5838 1.44858C12.1519 1.52357 12.677 1.79144 13.0712 2.20734C13.4654 2.62325 13.7047 3.16195 13.7491 3.73325C13.9365 3.81798 14.1096 3.93109 14.2625 4.06858C14.3291 4.1277 14.3916 4.18992 14.4498 4.25525C14.8025 4.64725 14.9525 5.12392 15.0231 5.68458C15.0911 6.22592 15.0911 6.90992 15.0911 7.75858V9.29859C15.0911 10.5233 15.0911 11.4939 14.9891 12.2533C14.8838 13.0346 14.6625 13.6673 14.1638 14.1666C13.6645 14.6653 13.0318 14.8866 12.2505 14.9919C11.4905 15.0939 10.5205 15.0939 9.29515 15.0939H6.55381C5.32848 15.0939 4.35781 15.0939 3.59848 14.9919C2.81715 14.8866 2.18448 14.6653 1.68515 14.1666C1.18648 13.6673 0.965146 13.0346 0.859812 12.2533C0.757812 11.4933 0.757812 10.5233 0.757812 9.29792V4.50059C0.757812 3.96925 0.757813 3.63192 0.812479 3.34058C0.930374 2.71433 1.23447 2.13822 1.68501 1.68756C2.13556 1.23689 2.71159 0.932645 3.33781 0.814585C3.62981 0.759918 3.96715 0.759918 4.49781 0.759918M12.6891 3.47859C12.6038 3.20559 12.4421 2.9627 12.2232 2.77855C12.0044 2.59441 11.7374 2.47668 11.4538 2.43925C11.3645 2.42792 11.2498 2.42658 10.9245 2.42658H7.79848C8.22715 2.85325 8.42181 3.03059 8.64248 3.15325C8.78826 3.23414 8.94137 3.2977 9.10181 3.34392C9.37715 3.42192 9.67915 3.42658 10.4765 3.42658H10.7598C11.5345 3.42658 12.1725 3.42658 12.6891 3.47859ZM4.55781 1.76058C3.94648 1.76058 3.71048 1.76258 3.52248 1.79792C3.09436 1.87885 2.70059 2.08697 2.39257 2.39511C2.08454 2.70325 1.87658 3.09711 1.79581 3.52525C1.75981 3.71325 1.75781 3.94925 1.75781 4.56058V9.26059C1.75781 10.5319 1.75915 11.4353 1.85115 12.1206C1.94115 12.7906 2.11048 13.1773 2.39248 13.4593C2.67448 13.7413 3.06115 13.9106 3.73181 14.0006C4.41715 14.0926 5.31981 14.0939 6.59115 14.0939H9.25781C10.5291 14.0939 11.4325 14.0926 12.1178 14.0006C12.7878 13.9106 13.1745 13.7413 13.4565 13.4593C13.7385 13.1773 13.9078 12.7906 13.9978 12.1199C14.0898 11.4353 14.0911 10.5319 14.0911 9.26059V7.79259C14.0911 6.90192 14.0905 6.28125 14.0311 5.80925C13.9731 5.34992 13.8671 5.10258 13.7065 4.92392C13.6714 4.8844 13.634 4.847 13.5945 4.81192C13.4158 4.65125 13.1678 4.54525 12.7091 4.48725C12.2378 4.42792 11.6165 4.42725 10.7258 4.42725H10.4031C9.70448 4.42725 9.25381 4.42725 8.82781 4.30592C8.59448 4.23925 8.36848 4.14592 8.15581 4.02792C7.76915 3.81192 7.45048 3.49392 6.95581 2.99925L6.90448 2.94725L6.53781 2.58058C6.43075 2.46866 6.31887 2.36144 6.20248 2.25925C5.86708 1.98114 5.45562 1.81061 5.02181 1.76992C4.86735 1.76008 4.71254 1.75696 4.55781 1.76058ZM8.09115 6.59392C8.09115 6.46131 8.14382 6.33413 8.23759 6.24037C8.33136 6.1466 8.45854 6.09392 8.59115 6.09392H11.9245C12.0571 6.09392 12.1843 6.1466 12.278 6.24037C12.3718 6.33413 12.4245 6.46131 12.4245 6.59392C12.4245 6.72653 12.3718 6.8537 12.278 6.94747C12.1843 7.04124 12.0571 7.09392 11.9245 7.09392H8.59115C8.45854 7.09392 8.33136 7.04124 8.23759 6.94747C8.14382 6.8537 8.09115 6.72653 8.09115 6.59392Z" fill="#D7AB42"/>
</svg>
