<svg width="13" height="13" viewBox="0 0 13 13" fill="none" xmlns="http://www.w3.org/2000/svg">
<path d="M9.0665 2.35522L10.4778 3.76655M9.97384 1.11188L6.15584 4.92989C5.95798 5.12645 5.82333 5.37763 5.76917 5.65122L5.4165 7.41655L7.18184 7.06322C7.45517 7.00855 7.70584 6.87455 7.90317 6.67722L11.7212 2.85922C11.8359 2.74449 11.9269 2.60828 11.989 2.45838C12.0511 2.30847 12.0831 2.14781 12.0831 1.98555C12.0831 1.8233 12.0511 1.66263 11.989 1.51273C11.9269 1.36282 11.8359 1.22662 11.7212 1.11188C11.6064 0.997153 11.4702 0.906143 11.3203 0.844051C11.1704 0.781958 11.0098 0.75 10.8475 0.75C10.6852 0.75 10.5246 0.781958 10.3747 0.844051C10.2248 0.906143 10.0886 0.997153 9.97384 1.11188Z" stroke="white" stroke-width="1.5" stroke-linecap="round" stroke-linejoin="round"/>
<path d="M10.75 8.74967V10.7497C10.75 11.1033 10.6095 11.4424 10.3595 11.6925C10.1094 11.9425 9.77029 12.083 9.41667 12.083H2.08333C1.72971 12.083 1.39057 11.9425 1.14052 11.6925C0.890476 11.4424 0.75 11.1033 0.75 10.7497V3.41634C0.75 3.06272 0.890476 2.72358 1.14052 2.47353C1.39057 2.22348 1.72971 2.08301 2.08333 2.08301H4.08333" stroke="white" stroke-width="1.5" stroke-linecap="round" stroke-linejoin="round"/>
</svg>
