<svg width="19" height="19" viewBox="0 0 19 19" fill="none" xmlns="http://www.w3.org/2000/svg">
<path d="M3.5 2.73C2.6875 2.81 2.14083 2.99083 1.7325 3.39917C1 4.13083 1 5.31 1 7.66667V11C1 13.3567 1 14.5358 1.7325 15.2675C2.14083 15.6758 2.6875 15.8567 3.5 15.9367M15.1667 2.73C15.9792 2.81 16.5258 2.99083 16.9342 3.39917C17.6667 4.13083 17.6667 5.31 17.6667 7.66667V11C17.6667 13.3567 17.6667 14.5358 16.9342 15.2675C16.5258 15.6758 15.9792 15.8567 15.1667 15.9367M3.5 6C3.5 3.64333 3.5 2.46417 4.2325 1.7325C4.96417 1 6.14333 1 8.5 1H10.1667C12.5233 1 13.7025 1 14.4342 1.7325C15.1667 2.46417 15.1667 3.64333 15.1667 6V12.6667C15.1667 15.0233 15.1667 16.2025 14.4342 16.9342C13.7025 17.6667 12.5233 17.6667 10.1667 17.6667H8.5C6.14333 17.6667 4.96417 17.6667 4.2325 16.9342C3.5 16.2025 3.5 15.0233 3.5 12.6667V6Z" stroke="#122338" stroke-width="2"/>
<path d="M6.83301 10.1668H11.833M6.83301 6.8335H11.833M6.83301 13.5002H9.33301" stroke="#122338" stroke-width="2" stroke-linecap="round"/>
</svg>
