<svg width="72" height="73" viewBox="0 0 72 73" fill="none" xmlns="http://www.w3.org/2000/svg">
<path d="M29.6767 0C30.267 0 30.8331 0.234498 31.2506 0.651908C31.668 1.06932 31.9025 1.63545 31.9025 2.22575V4.45151H45.257C47.4214 4.45151 49.4972 5.31133 51.0277 6.84184C52.5582 8.37234 53.4181 10.4481 53.4181 12.6126V28.9348C53.4181 30.3741 53.0471 31.7244 52.3913 32.8996L51.9016 31.4247C51.5675 30.4765 50.9578 29.6498 50.1507 29.0505C49.3271 28.4653 48.3417 28.1508 47.3314 28.1508C46.321 28.1508 45.3357 28.4653 44.5121 29.0505C43.7202 29.6331 43.1208 30.4393 42.7908 31.3653L41.5474 35.9682C41.4208 36.3639 41.2575 36.7408 41.0577 37.0989H14.0964C13.0245 37.0989 11.963 36.8877 10.9726 36.4773C9.98229 36.067 9.08249 35.4656 8.32462 34.7075C7.56675 33.9493 6.96567 33.0493 6.55572 32.0588C6.14576 31.0683 5.93495 30.0068 5.93534 28.9348V12.6126C5.93534 10.4481 6.79517 8.37234 8.32567 6.84184C9.85617 5.31133 11.932 4.45151 14.0964 4.45151H27.451V2.22575C27.451 1.63545 27.6855 1.06932 28.1029 0.651908C28.5203 0.234498 29.0864 0 29.6767 0ZM30.567 43.2983C30.6264 43.2053 30.6917 43.1163 30.7629 43.0312H8.16109C5.99664 43.0312 3.92083 43.8911 2.39033 45.4216C0.859827 46.9521 0 49.0279 0 51.1923V53.4181C0 59.2852 2.85193 64.2263 8.06316 67.6035C13.1883 70.9184 20.5274 72.7079 29.6767 72.7079C38.826 72.7079 46.1651 70.9214 51.2903 67.6035C51.5613 67.4255 51.8264 67.2445 52.0856 67.0605C51.738 66.8078 51.4351 66.4989 51.1894 66.1464C50.7128 65.4582 50.4552 64.642 50.4504 63.8049C50.4563 63.4231 50.5157 63.0472 50.6285 62.6772L50.2427 63.0036C49.4308 63.5626 48.4684 63.8619 47.4827 63.8619C46.4971 63.8619 45.5346 63.5626 44.7228 63.0036C43.9157 62.4044 43.3059 61.5777 42.9719 60.6295L41.488 56.089C41.2702 55.3997 40.9282 54.756 40.479 54.1897C40.3156 53.9699 40.1371 53.7616 39.9448 53.5665C39.2471 52.8774 38.4061 52.3506 37.4817 52.0233L32.8521 50.5394C31.9227 50.2153 31.1218 49.6016 30.567 48.7885C29.99 47.9895 29.6795 47.029 29.6795 46.0434C29.6795 45.0578 29.99 44.0973 30.567 43.2983ZM20.7737 25.2252C21.9543 25.2252 23.0866 24.7562 23.9214 23.9214C24.7562 23.0866 25.2252 21.9543 25.2252 20.7737C25.2252 19.5931 24.7562 18.4608 23.9214 17.626C23.0866 16.7912 21.9543 16.3222 20.7737 16.3222C19.5931 16.3222 18.4608 16.7912 17.626 17.626C16.7912 18.4608 16.3222 19.5931 16.3222 20.7737C16.3222 21.9543 16.7912 23.0866 17.626 23.9214C18.4608 24.7562 19.5931 25.2252 20.7737 25.2252ZM43.0312 20.7737C43.0312 19.5931 42.5622 18.4608 41.7274 17.626C40.8926 16.7912 39.7603 16.3222 38.5797 16.3222C37.3991 16.3222 36.2668 16.7912 35.432 17.626C34.5972 18.4608 34.1282 19.5931 34.1282 20.7737C34.1282 21.9543 34.5972 23.0866 35.432 23.9214C36.2668 24.7562 37.3991 25.2252 38.5797 25.2252C39.7603 25.2252 40.8926 24.7562 41.7274 23.9214C42.5622 23.0866 43.0312 21.9543 43.0312 20.7737ZM42.0549 51.4238C43.0836 52.4581 43.8569 53.7181 44.3133 55.1037L45.7912 59.6413C45.9154 59.9905 46.1447 60.2927 46.4476 60.5065C46.7505 60.7202 47.112 60.8349 47.4827 60.8349C47.8534 60.8349 48.215 60.7202 48.5179 60.5065C48.8208 60.2927 49.0501 59.9905 49.1743 59.6413L50.6522 55.1007C51.1114 53.7201 51.8865 52.4656 52.9159 51.4373C53.9452 50.4089 55.2005 49.635 56.5816 49.1773L61.1221 47.7023C61.4727 47.5795 61.7765 47.3507 61.9914 47.0476C62.2063 46.7446 62.3217 46.3823 62.3217 46.0108C62.3217 45.6393 62.2063 45.2769 61.9914 44.9739C61.7765 44.6709 61.4727 44.4421 61.1221 44.3192L61.0331 44.2955L56.4896 42.8205C55.1085 42.3627 53.8532 41.5889 52.8239 40.5605C51.7945 39.5322 51.0194 38.2777 50.5602 36.897L49.0853 32.3565C48.9624 32.0059 48.7336 31.7022 48.4306 31.4873C48.1275 31.2724 47.7652 31.1569 47.3937 31.1569C47.0222 31.1569 46.6599 31.2724 46.3568 31.4873C46.0538 31.7022 45.825 32.0059 45.7021 32.3565L44.2242 36.897L44.1856 37.0098C43.7246 38.3561 42.9623 39.5793 41.9569 40.5863C40.9515 41.5933 39.7294 42.3574 38.3839 42.8205L33.8433 44.2955C33.4927 44.4183 33.189 44.6471 32.9741 44.9502C32.7592 45.2532 32.6438 45.6155 32.6438 45.987C32.6438 46.3585 32.7592 46.7208 32.9741 47.0239C33.189 47.3269 33.4927 47.5557 33.8433 47.6786L38.3839 49.1535C39.7698 49.6135 41.0251 50.394 42.0549 51.4238ZM67.7252 61.8997L70.4495 62.784L70.5059 62.7959C70.7168 62.8691 70.8997 63.0061 71.0291 63.188C71.1585 63.3699 71.2281 63.5876 71.2281 63.8109C71.2281 64.0341 71.1585 64.2518 71.0291 64.4337C70.8997 64.6156 70.7168 64.7526 70.5059 64.8258L67.7786 65.7102C66.9514 65.9873 66.1997 66.4527 65.5828 67.0696C64.9659 67.6865 64.5005 68.4382 64.2234 69.2654L63.336 71.9898C63.2615 72.1993 63.1239 72.3806 62.9422 72.5089C62.7605 72.6371 62.5435 72.7059 62.3211 72.7059C62.0987 72.7059 61.8817 72.6371 61.7 72.5089C61.5183 72.3806 61.3807 72.1993 61.3061 71.9898L60.4188 69.2654C60.1453 68.4349 59.6814 67.6797 59.0641 67.0604C58.4468 66.441 57.6932 65.9746 56.8635 65.6983L54.1362 64.8139C53.9253 64.7408 53.7425 64.6037 53.6131 64.4218C53.4836 64.2399 53.4141 64.0222 53.4141 63.799C53.4141 63.5757 53.4836 63.3581 53.6131 63.1762C53.7425 62.9943 53.9253 62.8572 54.1362 62.784L56.8635 61.8997C57.6809 61.6155 58.4219 61.147 59.0292 60.5305C59.6364 59.914 60.0936 59.166 60.3654 58.3444L61.2527 55.6201C61.3273 55.4105 61.4649 55.2292 61.6466 55.101C61.8283 54.9728 62.0453 54.9039 62.2677 54.9039C62.4901 54.9039 62.707 54.9728 62.8888 55.101C63.0705 55.2292 63.2081 55.4105 63.2826 55.6201L64.167 58.3444C64.4424 59.1731 64.9075 59.926 65.5252 60.5433C66.143 61.1605 66.8963 61.625 67.7252 61.8997Z" fill="white"/>
</svg>
