<svg width="106" height="82" viewBox="0 0 106 82" fill="none" xmlns="http://www.w3.org/2000/svg">
<path d="M68.7797 57.0881L65.0703 62.7588L83.6073 74.8844L87.3167 69.2138L68.7797 57.0881Z" fill="white"/>
<path d="M68.3611 66.3756C72.2303 66.3756 75.3668 63.2391 75.3668 59.3699C75.3668 55.5008 72.2303 52.3643 68.3611 52.3643C64.492 52.3643 61.3555 55.5008 61.3555 59.3699C61.3555 63.2391 64.492 66.3756 68.3611 66.3756Z" fill="#122338"/>
<path d="M86.6987 71.3805C87.4285 68.2884 85.5134 65.1901 82.4213 64.4603C79.3292 63.7305 76.2309 65.6455 75.5011 68.7377C74.7713 71.8298 76.6863 74.928 79.7785 75.6579C82.8706 76.3877 85.9689 74.4726 86.6987 71.3805Z" fill="#122338"/>
<path d="M80.8213 42.4537C85.6953 42.4537 89.6465 36.9012 89.6465 30.0518C89.6465 23.2024 85.6953 17.6499 80.8213 17.6499C75.9473 17.6499 71.9961 23.2024 71.9961 30.0518C71.9961 36.9012 75.9473 42.4537 80.8213 42.4537Z" fill="url(#paint0_linear_820_719)"/>
<path d="M53.8461 0H37.236C20.2051 0 6.39844 13.8066 6.39844 30.8376C6.39844 39.9259 13.7659 47.2927 22.8535 47.2927H68.228C77.3156 47.2927 84.683 39.9252 84.683 30.8376C84.683 13.8066 70.8764 0 53.8455 0H53.8461Z" fill="url(#paint1_linear_820_719)"/>
<path d="M50.9342 81.0129H40.1586C29.1091 81.0129 20.1523 72.0555 20.1523 61.0067C20.1523 55.1105 24.9317 50.3311 30.828 50.3311H60.2655C66.1617 50.3311 70.9411 55.1105 70.9411 61.0067C70.9411 72.0562 61.9837 81.0129 50.9349 81.0129H50.9342Z" fill="url(#paint2_linear_820_719)"/>
<path d="M68.9246 40.6416H37.3514C33.0727 40.6416 29.5625 37.3616 29.5625 33.3164V27.1128C29.5625 23.067 33.0727 19.8997 37.3514 20.036L68.9246 21.0434C72.7456 21.1656 75.8088 24.3107 75.8088 28.0699V33.8346C75.8088 37.5938 72.7456 40.6416 68.9246 40.6416Z" fill="#122338"/>
<path d="M47.467 29.8854C47.467 32.5875 45.1669 34.7487 42.307 34.7124C39.421 34.6762 37.0625 32.4204 37.0625 29.6739C37.0625 26.9275 39.421 24.7677 42.307 24.8489C45.1676 24.9288 47.467 27.1839 47.467 29.8854Z" fill="white"/>
<path d="M68.803 30.3187C68.803 32.9296 66.6553 35.0196 63.9847 34.986C61.2913 34.9518 59.0898 32.7739 59.0898 30.1214C59.0898 27.4689 61.2906 25.3803 63.9847 25.4561C66.6553 25.5313 68.803 27.7079 68.803 30.3187Z" fill="white"/>
<g style="mix-blend-mode:soft-light" opacity="0.3">
<path d="M56.9986 42.9678C52.3031 37.4508 54.3898 33.0385 48.2506 25.5617C39.8039 15.2746 29.9505 16.4384 27.6933 9.46096C27.0678 7.52732 26.996 4.87418 28.6739 1.20557C15.8089 4.91647 6.39844 16.7774 6.39844 30.8377C6.39844 39.926 13.7659 47.2928 22.8535 47.2928H62.3968C60.0283 46.0015 58.2973 44.4933 56.9986 42.9671V42.9678Z" fill="white"/>
</g>
<path d="M10.8369 42.3668C15.711 42.3668 19.6621 36.8142 19.6621 29.9649C19.6621 23.1155 15.711 17.563 10.8369 17.563C5.9629 17.563 2.01172 23.1155 2.01172 29.9649C2.01172 36.8142 5.9629 42.3668 10.8369 42.3668Z" fill="url(#paint3_linear_820_719)"/>
<path d="M3.85923 35.3881C5.99062 35.3881 7.71846 32.9601 7.71846 29.965C7.71846 26.97 5.99062 24.542 3.85923 24.542C1.72784 24.542 0 26.97 0 29.965C0 32.9601 1.72784 35.3881 3.85923 35.3881Z" fill="url(#paint4_linear_820_719)"/>
<path style="mix-blend-mode:multiply" opacity="0.4" d="M53.5848 69.9992C52.1062 63.056 35.7531 63.2237 35.3082 58.6853C34.9652 55.1865 44.3542 51.7232 45.5341 51.2876C46.5429 50.9151 47.5449 50.6004 48.5363 50.3306H30.8241C24.9278 50.3306 20.1484 55.11 20.1484 61.0062C20.1484 72.0557 29.1059 81.0131 40.1547 81.0131H50.931C51.9666 81.0131 52.9834 80.9346 53.9761 80.7829C53.0385 79.6204 52.427 78.3492 52.2794 76.9619C51.9518 73.886 54.158 72.6899 53.5848 69.9992Z" fill="url(#paint5_linear_820_719)"/>
<path d="M45.8118 52.9857C55.2111 52.9857 62.8307 52.0632 62.8307 50.9252C62.8307 49.7873 55.2111 48.8647 45.8118 48.8647C36.4126 48.8647 28.793 49.7873 28.793 50.9252C28.793 52.0632 36.4126 52.9857 45.8118 52.9857Z" fill="url(#paint6_linear_820_719)"/>
<path d="M23.9633 57.0857L20.2539 62.7563L38.7909 74.882L42.5002 69.2113L23.9633 57.0857Z" fill="white"/>
<path d="M23.5447 66.3756C27.4139 66.3756 30.5504 63.2391 30.5504 59.3699C30.5504 55.5008 27.4139 52.3643 23.5447 52.3643C19.6756 52.3643 16.5391 55.5008 16.5391 59.3699C16.5391 63.2391 19.6756 66.3756 23.5447 66.3756Z" fill="#122338"/>
<path d="M39.5481 68.1533H55.7749L55.1313 74.8677L39.2266 74.3348L39.5481 68.1533Z" fill="white"/>
<path d="M40.3515 74.1351C42.5981 71.8886 42.5981 68.2462 40.3515 65.9997C38.105 63.7532 34.4627 63.7532 32.2161 65.9997C29.9696 68.2462 29.9696 71.8886 32.2161 74.1351C34.4627 76.3816 38.105 76.3816 40.3515 74.1351Z" fill="#122338"/>
<path d="M57.191 67.9673C56.2078 67.417 54.8191 67.029 52.8653 67.1008C51.9371 67.1344 51.1706 67.8398 51.0619 68.762L50.4961 73.5629H58.8669L59.1401 72.4159C59.5569 70.6648 58.7616 68.8472 57.191 67.968V67.9673Z" fill="#122338"/>
<path d="M71.972 73.6765L41.7747 73.155C41.3592 73.1476 40.9666 73.3449 40.7236 73.6825L39.8028 74.9645C39.3444 75.6028 39.786 76.4941 40.5713 76.5155L72.5357 77.4048L71.9726 73.6765H71.972Z" fill="#1052A2"/>
<path d="M104.384 58.9799L73.246 57.5302C72.3245 57.4872 71.4493 57.9329 70.9412 58.7027L58.9219 76.9384L91.8515 77.7975C92.7556 77.821 93.6099 77.3874 94.1247 76.6438L105.202 60.6337C105.674 59.9518 105.211 59.0182 104.383 58.9793L104.384 58.9799Z" fill="#1052A2"/>
<g style="mix-blend-mode:multiply" opacity="0.3">
<path d="M70.9451 58.7034C71.4525 57.9329 72.3284 57.4872 73.2499 57.5302L73.9325 57.5617C73.968 58.5725 74.215 59.5108 74.7808 60.2927C76.5453 62.7338 79.8253 61.5163 82.0382 64.1224C84.4692 66.9856 81.8482 70.0294 84.0148 72.6879C86.2954 75.4853 90.4063 73.6014 94.8582 75.5894L94.1286 76.6438C93.6145 77.3874 92.7595 77.821 91.8554 77.7975L58.9258 76.9384L70.9451 58.7027V58.7034Z" fill="#122338"/>
</g>
<defs>
<linearGradient id="paint0_linear_820_719" x1="71.9961" y1="30.0518" x2="89.6459" y2="30.0518" gradientUnits="userSpaceOnUse">
<stop stop-color="#FFC444"/>
<stop offset="1" stop-color="#F36F56"/>
</linearGradient>
<linearGradient id="paint1_linear_820_719" x1="6.39911" y1="23.6467" x2="84.6837" y2="23.6467" gradientUnits="userSpaceOnUse">
<stop stop-color="#FCB148"/>
<stop offset="0.05" stop-color="#FDB946"/>
<stop offset="0.14" stop-color="#FEC144"/>
<stop offset="0.32" stop-color="#FFC444"/>
<stop offset="0.48" stop-color="#FDB946"/>
<stop offset="0.78" stop-color="#F99C4C"/>
<stop offset="0.87" stop-color="#F8924F"/>
<stop offset="1" stop-color="#F8924F"/>
</linearGradient>
<linearGradient id="paint2_linear_820_719" x1="20.1517" y1="65.672" x2="70.9405" y2="65.672" gradientUnits="userSpaceOnUse">
<stop stop-color="#FCB148"/>
<stop offset="0.05" stop-color="#FDB946"/>
<stop offset="0.14" stop-color="#FEC144"/>
<stop offset="0.32" stop-color="#FFC444"/>
<stop offset="0.48" stop-color="#FDB946"/>
<stop offset="0.78" stop-color="#F99C4C"/>
<stop offset="0.87" stop-color="#F8924F"/>
<stop offset="1" stop-color="#F8924F"/>
</linearGradient>
<linearGradient id="paint3_linear_820_719" x1="2.01239" y1="29.9649" x2="19.6621" y2="29.9649" gradientUnits="userSpaceOnUse">
<stop stop-color="#FFC444"/>
<stop offset="1" stop-color="#F36F56"/>
</linearGradient>
<linearGradient id="paint4_linear_820_719" x1="0" y1="29.965" x2="7.71846" y2="29.965" gradientUnits="userSpaceOnUse">
<stop stop-color="#FFC444"/>
<stop offset="1" stop-color="#F36F56"/>
</linearGradient>
<linearGradient id="paint5_linear_820_719" x1="20.1484" y1="65.6722" x2="53.9761" y2="65.6722" gradientUnits="userSpaceOnUse">
<stop stop-color="#FCB148"/>
<stop offset="0.05" stop-color="#FDB946"/>
<stop offset="0.14" stop-color="#FEC144"/>
<stop offset="0.32" stop-color="#FFC444"/>
<stop offset="0.48" stop-color="#FDB946"/>
<stop offset="0.78" stop-color="#F99C4C"/>
<stop offset="0.87" stop-color="#F8924F"/>
<stop offset="1" stop-color="#F8924F"/>
</linearGradient>
<linearGradient id="paint6_linear_820_719" x1="38.1961" y1="109.845" x2="43.0902" y2="71.9819" gradientUnits="userSpaceOnUse">
<stop stop-color="#D7AB42"/>
<stop offset="0.05" stop-color="#D7AB42"/>
<stop offset="0.14" stop-color="#D7AB42"/>
<stop offset="0.32" stop-color="#D7AB42"/>
<stop offset="0.4" stop-color="#D7AB42"/>
<stop offset="0.71" stop-color="#FAA24B"/>
<stop offset="0.87" stop-color="#F8924F"/>
<stop offset="1" stop-color="#F8924F"/>
</linearGradient>
</defs>
</svg>
