<svg width="19" height="19" viewBox="0 0 19 19" fill="none" xmlns="http://www.w3.org/2000/svg">
<path d="M7.71429 0C7.86773 0 8.01489 0.0609565 8.1234 0.16946C8.2319 0.277963 8.29286 0.425125 8.29286 0.578571V1.15714H11.7643C12.3269 1.15714 12.8665 1.38065 13.2644 1.7785C13.6622 2.17634 13.8857 2.71593 13.8857 3.27857V7.52143C13.8857 7.89557 13.7893 8.24657 13.6188 8.55206L13.4915 8.16866C13.4047 7.92219 13.2462 7.70729 13.0364 7.55151C12.8223 7.39938 12.5662 7.31764 12.3035 7.31764C12.0409 7.31764 11.7847 7.39938 11.5707 7.55151C11.3648 7.70295 11.209 7.91251 11.1232 8.15323L10.8 9.34972C10.7671 9.45257 10.7247 9.55054 10.6727 9.64363H3.66429C3.38563 9.64363 3.10971 9.58873 2.85227 9.48207C2.59484 9.37541 2.36094 9.21908 2.16394 9.02201C1.96693 8.82493 1.81069 8.59097 1.70412 8.3335C1.59755 8.07603 1.54276 7.80008 1.54286 7.52143V3.27857C1.54286 2.71593 1.76636 2.17634 2.16421 1.7785C2.56205 1.38065 3.10165 1.15714 3.66429 1.15714H7.13571V0.578571C7.13571 0.425125 7.19667 0.277963 7.30517 0.16946C7.41368 0.0609565 7.56084 0 7.71429 0ZM7.94571 11.2551C7.96114 11.231 7.97811 11.2078 7.99663 11.1857H2.12143C1.55879 11.1857 1.0192 11.4092 0.621352 11.8071C0.223507 12.2049 0 12.7445 0 13.3071V13.8857C0 15.4108 0.741343 16.6953 2.09597 17.5731C3.42823 18.4348 5.33597 18.9 7.71429 18.9C10.0926 18.9 12.0003 18.4356 13.3326 17.5731C13.4031 17.5269 13.472 17.4798 13.5393 17.432C13.449 17.3663 13.3703 17.286 13.3064 17.1944C13.1825 17.0155 13.1155 16.8033 13.1143 16.5857C13.1158 16.4865 13.1313 16.3887 13.1606 16.2926L13.0603 16.3774C12.8492 16.5227 12.5991 16.6005 12.3429 16.6005C12.0866 16.6005 11.8365 16.5227 11.6254 16.3774C11.4156 16.2217 11.2571 16.0068 11.1703 15.7603L10.7846 14.58C10.7279 14.4008 10.639 14.2335 10.5223 14.0863C10.4798 14.0291 10.4334 13.975 10.3834 13.9243C10.202 13.7452 9.98344 13.6082 9.74314 13.5231L8.53971 13.1374C8.29812 13.0532 8.08992 12.8936 7.94571 12.6823C7.79573 12.4746 7.715 12.2249 7.715 11.9687C7.715 11.7125 7.79573 11.4628 7.94571 11.2551ZM5.4 6.55714C5.70689 6.55714 6.00122 6.43523 6.21822 6.21822C6.43523 6.00122 6.55714 5.70689 6.55714 5.4C6.55714 5.09311 6.43523 4.79878 6.21822 4.58178C6.00122 4.36477 5.70689 4.24286 5.4 4.24286C5.09311 4.24286 4.79878 4.36477 4.58178 4.58178C4.36477 4.79878 4.24286 5.09311 4.24286 5.4C4.24286 5.70689 4.36477 6.00122 4.58178 6.21822C4.79878 6.43523 5.09311 6.55714 5.4 6.55714ZM11.1857 5.4C11.1857 5.09311 11.0638 4.79878 10.8468 4.58178C10.6298 4.36477 10.3355 4.24286 10.0286 4.24286C9.72168 4.24286 9.42735 4.36477 9.21035 4.58178C8.99334 4.79878 8.87143 5.09311 8.87143 5.4C8.87143 5.70689 8.99334 6.00122 9.21035 6.21822C9.42735 6.43523 9.72168 6.55714 10.0286 6.55714C10.3355 6.55714 10.6298 6.43523 10.8468 6.21822C11.0638 6.00122 11.1857 5.70689 11.1857 5.4ZM10.9319 13.3673C11.1993 13.6362 11.4004 13.9637 11.519 14.3239L11.9031 15.5034C11.9354 15.5942 11.995 15.6727 12.0738 15.7283C12.1525 15.7839 12.2465 15.8137 12.3429 15.8137C12.4392 15.8137 12.5332 15.7839 12.6119 15.7283C12.6907 15.6727 12.7503 15.5942 12.7826 15.5034L13.1667 14.3231C13.2861 13.9642 13.4876 13.6381 13.7552 13.3708C14.0227 13.1035 14.349 12.9023 14.7081 12.7833L15.8883 12.3999C15.9795 12.368 16.0584 12.3085 16.1143 12.2298C16.1702 12.151 16.2002 12.0568 16.2002 11.9602C16.2002 11.8637 16.1702 11.7695 16.1143 11.6907C16.0584 11.6119 15.9795 11.5525 15.8883 11.5205L15.8652 11.5143L14.6841 11.1309C14.3251 11.0119 13.9988 10.8108 13.7313 10.5435C13.4637 10.2762 13.2622 9.95007 13.1428 9.59117L12.7594 8.41089C12.7275 8.31975 12.668 8.2408 12.5892 8.18493C12.5105 8.12907 12.4163 8.09907 12.3197 8.09907C12.2231 8.09907 12.129 8.12907 12.0502 8.18493C11.9714 8.2408 11.9119 8.31975 11.88 8.41089L11.4958 9.59117L11.4858 9.62049C11.366 9.97044 11.1678 10.2884 10.9065 10.5502C10.6451 10.8119 10.3274 11.0106 9.97766 11.1309L8.79737 11.5143C8.70624 11.5463 8.62728 11.6058 8.57142 11.6845C8.51556 11.7633 8.48555 11.8575 8.48555 11.9541C8.48555 12.0506 8.51556 12.1448 8.57142 12.2236C8.62728 12.3024 8.70624 12.3618 8.79737 12.3938L9.97766 12.7772C10.3379 12.8967 10.6642 13.0996 10.9319 13.3673ZM17.6048 16.0905L18.3129 16.3203L18.3276 16.3234C18.3824 16.3425 18.43 16.3781 18.4636 16.4254C18.4972 16.4726 18.5153 16.5292 18.5153 16.5873C18.5153 16.6453 18.4972 16.7019 18.4636 16.7492C18.43 16.7964 18.3824 16.8321 18.3276 16.8511L17.6187 17.081C17.4036 17.153 17.2082 17.274 17.0479 17.4343C16.8875 17.5947 16.7665 17.7901 16.6945 18.0051L16.4638 18.7133C16.4444 18.7678 16.4087 18.8149 16.3615 18.8483C16.3142 18.8816 16.2578 18.8995 16.2 18.8995C16.1422 18.8995 16.0858 18.8816 16.0386 18.8483C15.9913 18.8149 15.9556 18.7678 15.9362 18.7133L15.7055 18.0051C15.6344 17.7892 15.5138 17.593 15.3534 17.432C15.1929 17.271 14.997 17.1497 14.7813 17.0779L14.0724 16.848C14.0176 16.829 13.97 16.7934 13.9364 16.7461C13.9028 16.6988 13.8847 16.6422 13.8847 16.5842C13.8847 16.5261 13.9028 16.4696 13.9364 16.4223C13.97 16.375 14.0176 16.3394 14.0724 16.3203L14.7813 16.0905C14.9938 16.0166 15.1864 15.8948 15.3443 15.7346C15.5021 15.5743 15.621 15.3799 15.6916 15.1663L15.9223 14.4581C15.9417 14.4036 15.9774 14.3565 16.0247 14.3232C16.0719 14.2898 16.1283 14.272 16.1861 14.272C16.2439 14.272 16.3003 14.2898 16.3476 14.3232C16.3948 14.3565 16.4306 14.4036 16.4499 14.4581L16.6798 15.1663C16.7514 15.3817 16.8723 15.5774 17.0329 15.7379C17.1935 15.8983 17.3893 16.0191 17.6048 16.0905Z" fill="white"/>
</svg>
