<svg width="10" height="10" viewBox="0 0 10 10" fill="none" xmlns="http://www.w3.org/2000/svg">
<path d="M5 10C4.31667 10 3.67083 9.86867 3.0625 9.606C2.45417 9.34333 1.923 8.985 1.469 8.531C1.015 8.077 0.656667 7.54583 0.394 6.9375C0.131333 6.32917 0 5.68333 0 5C0 4.30833 0.131333 3.6605 0.394 3.0565C0.656667 2.4525 1.015 1.92333 1.469 1.469C1.923 1.01467 2.45417 0.656333 3.0625 0.394C3.67083 0.131667 4.31667 0.000333333 5 0C5.69167 0 6.33967 0.131333 6.944 0.394C7.54833 0.656667 8.07733 1.015 8.531 1.469C8.98467 1.923 9.343 2.45217 9.606 3.0565C9.869 3.66083 10.0003 4.30867 10 5C10 5.68333 9.86867 6.32917 9.606 6.9375C9.34333 7.54583 8.985 8.07717 8.531 8.5315C8.077 8.98583 7.54783 9.34417 6.9435 9.6065C6.33917 9.86883 5.69133 10 5 10ZM5 8.975C5.21667 8.675 5.40417 8.3625 5.5625 8.0375C5.72083 7.7125 5.85 7.36667 5.95 7H4.05C4.15 7.36667 4.27917 7.7125 4.4375 8.0375C4.59583 8.3625 4.78333 8.675 5 8.975ZM3.7 8.775C3.55 8.5 3.41883 8.2145 3.3065 7.9185C3.19417 7.6225 3.10033 7.31633 3.025 7H1.55C1.79167 7.41667 2.09383 7.77917 2.4565 8.0875C2.81917 8.39583 3.23367 8.625 3.7 8.775ZM6.3 8.775C6.76667 8.625 7.18133 8.39583 7.544 8.0875C7.90667 7.77917 8.20867 7.41667 8.45 7H6.975C6.9 7.31667 6.80633 7.623 6.694 7.919C6.58167 8.215 6.45033 8.50033 6.3 8.775ZM1.125 6H2.825C2.8 5.83333 2.78133 5.66883 2.769 5.5065C2.75667 5.34417 2.75033 5.17533 2.75 5C2.74967 4.82467 2.756 4.656 2.769 4.494C2.782 4.332 2.80067 4.16733 2.825 4H1.125C1.08333 4.16667 1.05217 4.33133 1.0315 4.494C1.01083 4.65667 1.00033 4.82533 1 5C0.999667 5.17467 1.01017 5.3435 1.0315 5.5065C1.05283 5.6695 1.084 5.834 1.125 6ZM3.825 6H6.175C6.2 5.83333 6.21883 5.66883 6.2315 5.5065C6.24417 5.34417 6.25033 5.17533 6.25 5C6.24967 4.82467 6.24333 4.656 6.231 4.494C6.21867 4.332 6.2 4.16733 6.175 4H3.825C3.8 4.16667 3.78133 4.33133 3.769 4.494C3.75667 4.65667 3.75033 4.82533 3.75 5C3.74967 5.17467 3.756 5.3435 3.769 5.5065C3.782 5.6695 3.80067 5.834 3.825 6ZM7.175 6H8.875C8.91667 5.83333 8.948 5.66883 8.969 5.5065C8.99 5.34417 9.00033 5.17533 9 5C8.99967 4.82467 8.98933 4.656 8.969 4.494C8.94867 4.332 8.91733 4.16733 8.875 4H7.175C7.2 4.16667 7.21883 4.33133 7.2315 4.494C7.24417 4.65667 7.25033 4.82533 7.25 5C7.24967 5.17467 7.24333 5.3435 7.231 5.5065C7.21867 5.6695 7.2 5.834 7.175 6ZM6.975 3H8.45C8.20833 2.58333 7.90633 2.22083 7.544 1.9125C7.18167 1.60417 6.767 1.375 6.3 1.225C6.45 1.5 6.58133 1.7855 6.694 2.0815C6.80667 2.3775 6.90033 2.68367 6.975 3ZM4.05 3H5.95C5.85 2.63333 5.72083 2.2875 5.5625 1.9625C5.40417 1.6375 5.21667 1.325 5 1.025C4.78333 1.325 4.59583 1.6375 4.4375 1.9625C4.27917 2.2875 4.15 2.63333 4.05 3ZM1.55 3H3.025C3.1 2.68333 3.19383 2.377 3.3065 2.081C3.41917 1.785 3.55033 1.49967 3.7 1.225C3.23333 1.375 2.81867 1.60417 2.456 1.9125C2.09333 2.22083 1.79133 2.58333 1.55 3Z" fill="#D7AB42"/>
</svg>
