<svg width="48" height="43" viewBox="0 0 48 43" fill="none" xmlns="http://www.w3.org/2000/svg">
<path d="M34.2589 21.2246H13.5289C13.1923 21.2246 12.916 21.4975 12.916 21.8375C12.916 22.1767 13.1923 22.4496 13.5289 22.4496H14.7727V27.2766C14.7727 32.0378 18.6435 35.9098 23.4045 35.9098H23.4497V40.0146H24.3378V35.9098H24.3831C29.1446 35.9098 33.0157 32.0378 33.0157 27.2766V22.4496H34.2592C34.5987 22.4496 34.8744 22.1767 34.8744 21.8375C34.8744 21.4978 34.5984 21.2246 34.2589 21.2246ZM32.4354 27.2769C32.4354 31.7159 28.8227 35.3292 24.3825 35.3292H23.4042C18.9651 35.3292 15.3553 31.7159 15.3553 27.2769V22.4499H32.4354V27.2769Z" fill="#D7AB42"/>
<path d="M23.5409 33.5579H24.2481C27.8302 33.5579 30.7457 30.6427 30.7457 27.0606V23.1035H17.043V27.0606C17.043 30.6427 19.9573 33.5579 23.5409 33.5579Z" fill="#D7AB42"/>
<path d="M18.0427 6.50022C18.0427 3.46817 20.5094 1.00001 23.5406 1.00001H24.2478C27.2759 1.00001 29.7446 3.46845 29.7446 6.50022V20.569H30.7455V6.50022C30.7455 2.91639 27.8299 0 24.2478 0H23.5406C19.957 0 17.043 2.91639 17.043 6.50022V20.569H18.0427V6.50022Z" fill="#D7AB42"/>
<path d="M28.9184 6.45887C28.9184 5.79979 28.7803 5.17158 28.5342 4.60105L28.5192 4.60508C28.3355 4.60508 28.1849 4.45539 28.1849 4.27079C28.1849 4.19435 28.2149 4.12772 28.2594 4.07032C28.127 3.84794 27.9793 3.63421 27.8134 3.43749C27.7532 3.48855 27.6802 3.52229 27.5937 3.52229C27.4114 3.52229 27.2608 3.37346 27.2608 3.188C27.2608 3.10146 27.2957 3.02445 27.3511 2.96474C26.7194 2.3997 25.9418 2.00136 25.0773 1.84042C25.1226 1.89897 25.1517 1.96762 25.1517 2.04694C25.1517 2.23154 25.0058 2.38095 24.8212 2.38095C24.6352 2.38095 24.4846 2.23154 24.4846 2.04694C24.4846 1.93474 24.5449 1.84042 24.6305 1.78013C24.4944 1.76802 24.3565 1.75879 24.2184 1.75879H23.5702C23.4321 1.75879 23.2962 1.76802 23.1598 1.78013C23.2434 1.84042 23.3037 1.93474 23.3037 2.04694C23.3037 2.23154 23.1532 2.38095 22.9683 2.38095C22.7863 2.38095 22.6357 2.23154 22.6357 2.04694C22.6357 1.96791 22.6686 1.89897 22.7139 1.84042C21.8494 2.00165 21.0683 2.39998 20.439 2.96474C20.4932 3.02416 20.5307 3.10146 20.5307 3.188C20.5307 3.37375 20.3801 3.52229 20.197 3.52229C20.1113 3.52229 20.0357 3.48855 19.978 3.43749C19.8122 3.6345 19.6639 3.84823 19.5313 4.07032C19.5737 4.12772 19.6028 4.19464 19.6028 4.27079C19.6028 4.45539 19.456 4.60508 19.2699 4.60508C19.2647 4.60508 19.2596 4.60105 19.2546 4.60105C19.0109 5.17186 18.873 5.79979 18.873 6.45887V20.5692H28.9187L28.9184 6.45887ZM19.2696 20.1752C19.085 20.1752 18.9353 20.0255 18.9353 19.8421C18.9353 19.6563 19.085 19.5078 19.2696 19.5078C19.4557 19.5078 19.6025 19.6566 19.6025 19.8421C19.6025 20.0255 19.4557 20.1752 19.2696 20.1752ZM19.2696 17.9502C19.085 17.9502 18.9353 17.8014 18.9353 17.6159C18.9353 17.433 19.085 17.2828 19.2696 17.2828C19.4557 17.2828 19.6025 17.433 19.6025 17.6159C19.6025 17.8014 19.4557 17.9502 19.2696 17.9502ZM19.2696 15.7261C19.085 15.7261 18.9353 15.5761 18.9353 15.3935C18.9353 15.208 19.085 15.0575 19.2696 15.0575C19.4557 15.0575 19.6025 15.208 19.6025 15.3935C19.6025 15.5761 19.4557 15.7261 19.2696 15.7261ZM19.2696 13.5016C19.085 13.5016 18.9353 13.3519 18.9353 13.1673C18.9353 12.9836 19.085 12.833 19.2696 12.833C19.4557 12.833 19.6025 12.9836 19.6025 13.1673C19.6025 13.3519 19.4557 13.5016 19.2696 13.5016ZM19.2696 11.2784C19.085 11.2784 18.9353 11.1278 18.9353 10.9441C18.9353 10.7595 19.085 10.6089 19.2696 10.6089C19.4557 10.6089 19.6025 10.7595 19.6025 10.9441C19.6025 11.1275 19.4557 11.2784 19.2696 11.2784ZM19.2696 9.05221C19.085 9.05221 18.9353 8.90222 18.9353 8.71993C18.9353 8.53533 19.085 8.38563 19.2696 8.38563C19.4557 8.38563 19.6025 8.53562 19.6025 8.71993C19.6025 8.90251 19.4557 9.05221 19.2696 9.05221ZM19.2696 6.82893C19.085 6.82893 18.9353 6.6801 18.9353 6.49377C18.9353 6.31004 19.085 6.16149 19.2696 6.16149C19.4557 6.16149 19.6025 6.31033 19.6025 6.49377C19.6025 6.68039 19.4557 6.82893 19.2696 6.82893ZM20.1967 19.0924C20.0092 19.0924 19.8624 18.9424 19.8624 18.7581C19.8624 18.5744 20.0092 18.425 20.1967 18.425C20.3798 18.425 20.5304 18.5747 20.5304 18.7581C20.5307 18.9424 20.3798 19.0924 20.1967 19.0924ZM20.1967 16.8671C20.0092 16.8671 19.8624 16.7183 19.8624 16.5348C19.8624 16.3502 20.0092 16.2005 20.1967 16.2005C20.3798 16.2005 20.5304 16.3505 20.5304 16.5348C20.5307 16.7183 20.3798 16.8671 20.1967 16.8671ZM20.1967 14.643C20.0092 14.643 19.8624 14.495 19.8624 14.3087C19.8624 14.1261 20.0092 13.9755 20.1967 13.9755C20.3798 13.9755 20.5304 14.1261 20.5304 14.3087C20.5307 14.495 20.3798 14.643 20.1967 14.643ZM20.1967 12.4197C20.0092 12.4197 19.8624 12.2709 19.8624 12.0854C19.8624 11.9008 20.0092 11.7523 20.1967 11.7523C20.3798 11.7523 20.5304 11.9011 20.5304 12.0854C20.5307 12.2709 20.3798 12.4197 20.1967 12.4197ZM20.1967 10.1956C20.0092 10.1956 19.8624 10.045 19.8624 9.86127C19.8624 9.67638 20.0092 9.52698 20.1967 9.52698C20.3798 9.52698 20.5304 9.67667 20.5304 9.86127C20.5307 10.045 20.3798 10.1956 20.1967 10.1956ZM20.1967 7.97115C20.0092 7.97115 19.8624 7.82058 19.8624 7.63685C19.8624 7.45225 20.0092 7.30284 20.1967 7.30284C20.3798 7.30284 20.5304 7.45225 20.5304 7.63685C20.5307 7.82058 20.3798 7.97115 20.1967 7.97115ZM20.1967 5.74585C20.0092 5.74585 19.8624 5.59702 19.8624 5.41271C19.8624 5.22811 20.0092 5.07956 20.1967 5.07956C20.3798 5.07956 20.5304 5.2284 20.5304 5.41271C20.5307 5.59731 20.3798 5.74585 20.1967 5.74585ZM21.1211 20.1752C20.9351 20.1752 20.7868 20.0255 20.7868 19.8421C20.7868 19.6563 20.9351 19.5078 21.1211 19.5078C21.3043 19.5078 21.4554 19.6566 21.4554 19.8421C21.4554 20.0255 21.3043 20.1752 21.1211 20.1752ZM21.1211 17.9502C20.9351 17.9502 20.7868 17.8014 20.7868 17.6159C20.7868 17.433 20.9351 17.2828 21.1211 17.2828C21.3043 17.2828 21.4554 17.433 21.4554 17.6159C21.4554 17.8014 21.3043 17.9502 21.1211 17.9502ZM21.1211 15.7261C20.9351 15.7261 20.7868 15.5761 20.7868 15.3935C20.7868 15.208 20.9351 15.0575 21.1211 15.0575C21.3043 15.0575 21.4554 15.208 21.4554 15.3935C21.4554 15.5761 21.3043 15.7261 21.1211 15.7261ZM21.1211 13.5016C20.9351 13.5016 20.7868 13.3519 20.7868 13.1673C20.7868 12.9836 20.9351 12.833 21.1211 12.833C21.3043 12.833 21.4554 12.9836 21.4554 13.1673C21.4554 13.3519 21.3043 13.5016 21.1211 13.5016ZM21.1211 11.2784C20.9351 11.2784 20.7868 11.1278 20.7868 10.9441C20.7868 10.7595 20.9351 10.6089 21.1211 10.6089C21.3043 10.6089 21.4554 10.7595 21.4554 10.9441C21.4554 11.1275 21.3043 11.2784 21.1211 11.2784ZM21.1211 9.05221C20.9351 9.05221 20.7868 8.90222 20.7868 8.71993C20.7868 8.53533 20.9351 8.38563 21.1211 8.38563C21.3043 8.38563 21.4554 8.53562 21.4554 8.71993C21.4554 8.90251 21.3043 9.05221 21.1211 9.05221ZM21.1211 6.82893C20.9351 6.82893 20.7868 6.6801 20.7868 6.49377C20.7868 6.31004 20.9351 6.16149 21.1211 6.16149C21.3043 6.16149 21.4554 6.31033 21.4554 6.49377C21.4554 6.68039 21.3043 6.82893 21.1211 6.82893ZM21.1211 4.6048C20.9351 4.6048 20.7868 4.4551 20.7868 4.2705C20.7868 4.0859 20.9351 3.9362 21.1211 3.9362C21.3043 3.9362 21.4554 4.08619 21.4554 4.2705C21.4554 4.4551 21.3043 4.6048 21.1211 4.6048ZM22.0444 19.0924C21.8598 19.0924 21.7113 18.9424 21.7113 18.7581C21.7113 18.5744 21.8598 18.425 22.0444 18.425C22.229 18.425 22.3796 18.5747 22.3796 18.7581C22.3793 18.9424 22.2287 19.0924 22.0444 19.0924ZM22.0444 16.8671C21.8598 16.8671 21.7113 16.7183 21.7113 16.5348C21.7113 16.3502 21.8598 16.2005 22.0444 16.2005C22.229 16.2005 22.3796 16.3505 22.3796 16.5348C22.3793 16.7183 22.2287 16.8671 22.0444 16.8671ZM22.0444 14.643C21.8598 14.643 21.7113 14.495 21.7113 14.3087C21.7113 14.1261 21.8598 13.9755 22.0444 13.9755C22.229 13.9755 22.3796 14.1261 22.3796 14.3087C22.3793 14.495 22.2287 14.643 22.0444 14.643ZM22.0444 12.4197C21.8598 12.4197 21.7113 12.2709 21.7113 12.0854C21.7113 11.9008 21.8598 11.7523 22.0444 11.7523C22.229 11.7523 22.3796 11.9011 22.3796 12.0854C22.3793 12.2709 22.2287 12.4197 22.0444 12.4197ZM22.0444 10.1956C21.8598 10.1956 21.7113 10.045 21.7113 9.86127C21.7113 9.67638 21.8598 9.52698 22.0444 9.52698C22.229 9.52698 22.3796 9.67667 22.3796 9.86127C22.3793 10.045 22.2287 10.1956 22.0444 10.1956ZM22.0444 7.97115C21.8598 7.97115 21.7113 7.82058 21.7113 7.63685C21.7113 7.45225 21.8598 7.30284 22.0444 7.30284C22.229 7.30284 22.3796 7.45225 22.3796 7.63685C22.3793 7.82058 22.2287 7.97115 22.0444 7.97115ZM22.0444 5.74585C21.8598 5.74585 21.7113 5.59702 21.7113 5.41271C21.7113 5.22811 21.8598 5.07956 22.0444 5.07956C22.229 5.07956 22.3796 5.2284 22.3796 5.41271C22.3793 5.59731 22.2287 5.74585 22.0444 5.74585ZM22.0444 3.52172C21.8598 3.52172 21.7113 3.37288 21.7113 3.18742C21.7113 3.00282 21.8598 2.85514 22.0444 2.85514C22.229 2.85514 22.3796 3.00311 22.3796 3.18742C22.3793 3.37317 22.2287 3.52172 22.0444 3.52172ZM22.9683 20.1752C22.7863 20.1752 22.6357 20.0255 22.6357 19.8421C22.6357 19.6563 22.7863 19.5078 22.9683 19.5078C23.1532 19.5078 23.3037 19.6566 23.3037 19.8421C23.3037 20.0255 23.1532 20.1752 22.9683 20.1752ZM22.9683 17.9502C22.7863 17.9502 22.6357 17.8014 22.6357 17.6159C22.6357 17.433 22.7863 17.2828 22.9683 17.2828C23.1532 17.2828 23.3037 17.433 23.3037 17.6159C23.3037 17.8014 23.1532 17.9502 22.9683 17.9502ZM22.9683 15.7261C22.7863 15.7261 22.6357 15.5761 22.6357 15.3935C22.6357 15.208 22.7863 15.0575 22.9683 15.0575C23.1532 15.0575 23.3037 15.208 23.3037 15.3935C23.3037 15.5761 23.1532 15.7261 22.9683 15.7261ZM22.9683 13.5016C22.7863 13.5016 22.6357 13.3519 22.6357 13.1673C22.6357 12.9836 22.7863 12.833 22.9683 12.833C23.1532 12.833 23.3037 12.9836 23.3037 13.1673C23.3037 13.3519 23.1532 13.5016 22.9683 13.5016ZM22.9683 11.2784C22.7863 11.2784 22.6357 11.1278 22.6357 10.9441C22.6357 10.7595 22.7863 10.6089 22.9683 10.6089C23.1532 10.6089 23.3037 10.7595 23.3037 10.9441C23.3037 11.1275 23.1532 11.2784 22.9683 11.2784ZM22.9683 9.05221C22.7863 9.05221 22.6357 8.90222 22.6357 8.71993C22.6357 8.53533 22.7863 8.38563 22.9683 8.38563C23.1532 8.38563 23.3037 8.53562 23.3037 8.71993C23.3037 8.90251 23.1532 9.05221 22.9683 9.05221ZM22.9683 6.82893C22.7863 6.82893 22.6357 6.6801 22.6357 6.49377C22.6357 6.31004 22.7863 6.16149 22.9683 6.16149C23.1532 6.16149 23.3037 6.31033 23.3037 6.49377C23.3037 6.68039 23.1532 6.82893 22.9683 6.82893ZM22.9683 4.6048C22.7863 4.6048 22.6357 4.4551 22.6357 4.2705C22.6357 4.0859 22.7863 3.9362 22.9683 3.9362C23.1532 3.9362 23.3037 4.08619 23.3037 4.2705C23.3037 4.4551 23.1532 4.6048 22.9683 4.6048ZM23.8942 19.0924C23.711 19.0924 23.5604 18.9424 23.5604 18.7581C23.5604 18.5744 23.711 18.425 23.8942 18.425C24.0802 18.425 24.2285 18.5747 24.2285 18.7581C24.2285 18.9424 24.0802 19.0924 23.8942 19.0924ZM23.8942 16.8671C23.711 16.8671 23.5604 16.7183 23.5604 16.5348C23.5604 16.3502 23.711 16.2005 23.8942 16.2005C24.0802 16.2005 24.2285 16.3505 24.2285 16.5348C24.2285 16.7183 24.0802 16.8671 23.8942 16.8671ZM23.8942 14.643C23.711 14.643 23.5604 14.495 23.5604 14.3087C23.5604 14.1261 23.711 13.9755 23.8942 13.9755C24.0802 13.9755 24.2285 14.1261 24.2285 14.3087C24.2285 14.495 24.0802 14.643 23.8942 14.643ZM23.8942 12.4197C23.711 12.4197 23.5604 12.2709 23.5604 12.0854C23.5604 11.9008 23.711 11.7523 23.8942 11.7523C24.0802 11.7523 24.2285 11.9011 24.2285 12.0854C24.2285 12.2709 24.0802 12.4197 23.8942 12.4197ZM23.8942 10.1956C23.711 10.1956 23.5604 10.045 23.5604 9.86127C23.5604 9.67638 23.711 9.52698 23.8942 9.52698C24.0802 9.52698 24.2285 9.67667 24.2285 9.86127C24.2285 10.045 24.0802 10.1956 23.8942 10.1956ZM23.8942 7.97115C23.711 7.97115 23.5604 7.82058 23.5604 7.63685C23.5604 7.45225 23.711 7.30284 23.8942 7.30284C24.0802 7.30284 24.2285 7.45225 24.2285 7.63685C24.2285 7.82058 24.0802 7.97115 23.8942 7.97115ZM23.8942 5.74585C23.711 5.74585 23.5604 5.59702 23.5604 5.41271C23.5604 5.22811 23.711 5.07956 23.8942 5.07956C24.0802 5.07956 24.2285 5.2284 24.2285 5.41271C24.2285 5.59731 24.0802 5.74585 23.8942 5.74585ZM23.8942 3.52172C23.711 3.52172 23.5604 3.37288 23.5604 3.18742C23.5604 3.00282 23.711 2.85514 23.8942 2.85514C24.0802 2.85514 24.2285 3.00311 24.2285 3.18742C24.2285 3.37317 24.0802 3.52172 23.8942 3.52172ZM24.8215 20.1752C24.6354 20.1752 24.4849 20.0255 24.4849 19.8421C24.4849 19.6563 24.6354 19.5078 24.8215 19.5078C25.0061 19.5078 25.152 19.6566 25.152 19.8421C25.1517 20.0255 25.0058 20.1752 24.8215 20.1752ZM24.8215 17.9502C24.6354 17.9502 24.4849 17.8014 24.4849 17.6159C24.4849 17.433 24.6354 17.2828 24.8215 17.2828C25.0061 17.2828 25.152 17.433 25.152 17.6159C25.1517 17.8014 25.0058 17.9502 24.8215 17.9502ZM24.8215 15.7261C24.6354 15.7261 24.4849 15.5761 24.4849 15.3935C24.4849 15.208 24.6354 15.0575 24.8215 15.0575C25.0061 15.0575 25.152 15.208 25.152 15.3935C25.1517 15.5761 25.0058 15.7261 24.8215 15.7261ZM24.8215 13.5016C24.6354 13.5016 24.4849 13.3519 24.4849 13.1673C24.4849 12.9836 24.6354 12.833 24.8215 12.833C25.0061 12.833 25.152 12.9836 25.152 13.1673C25.1517 13.3519 25.0058 13.5016 24.8215 13.5016ZM24.8215 11.2784C24.6354 11.2784 24.4849 11.1278 24.4849 10.9441C24.4849 10.7595 24.6354 10.6089 24.8215 10.6089C25.0061 10.6089 25.152 10.7595 25.152 10.9441C25.1517 11.1275 25.0058 11.2784 24.8215 11.2784ZM24.8215 9.05221C24.6354 9.05221 24.4849 8.90222 24.4849 8.71993C24.4849 8.53533 24.6354 8.38563 24.8215 8.38563C25.0061 8.38563 25.152 8.53562 25.152 8.71993C25.1517 8.90251 25.0058 9.05221 24.8215 9.05221ZM24.8215 6.82893C24.6354 6.82893 24.4849 6.6801 24.4849 6.49377C24.4849 6.31004 24.6354 6.16149 24.8215 6.16149C25.0061 6.16149 25.152 6.31033 25.152 6.49377C25.1517 6.68039 25.0058 6.82893 24.8215 6.82893ZM24.8215 4.6048C24.6354 4.6048 24.4849 4.4551 24.4849 4.2705C24.4849 4.0859 24.6354 3.9362 24.8215 3.9362C25.0061 3.9362 25.152 4.08619 25.152 4.2705C25.1517 4.4551 25.0058 4.6048 24.8215 4.6048ZM28.5192 6.16149C28.7053 6.16149 28.8559 6.31033 28.8559 6.49377C28.8559 6.6801 28.7053 6.82893 28.5192 6.82893C28.3355 6.82893 28.1849 6.6801 28.1849 6.49377C28.1849 6.31004 28.3355 6.16149 28.5192 6.16149ZM25.7456 19.0924C25.5602 19.0924 25.4119 18.9424 25.4119 18.7581C25.4119 18.5744 25.5602 18.425 25.7456 18.425C25.9294 18.425 26.0762 18.5747 26.0762 18.7581C26.0762 18.9424 25.9294 19.0924 25.7456 19.0924ZM25.7456 16.8671C25.5602 16.8671 25.4119 16.7183 25.4119 16.5348C25.4119 16.3502 25.5602 16.2005 25.7456 16.2005C25.9294 16.2005 26.0762 16.3505 26.0762 16.5348C26.0762 16.7183 25.9294 16.8671 25.7456 16.8671ZM25.7456 14.643C25.5602 14.643 25.4119 14.495 25.4119 14.3087C25.4119 14.1261 25.5602 13.9755 25.7456 13.9755C25.9294 13.9755 26.0762 14.1261 26.0762 14.3087C26.0762 14.495 25.9294 14.643 25.7456 14.643ZM25.7456 12.4197C25.5602 12.4197 25.4119 12.2709 25.4119 12.0854C25.4119 11.9008 25.5602 11.7523 25.7456 11.7523C25.9294 11.7523 26.0762 11.9011 26.0762 12.0854C26.0762 12.2709 25.9294 12.4197 25.7456 12.4197ZM25.7456 10.1956C25.5602 10.1956 25.4119 10.045 25.4119 9.86127C25.4119 9.67638 25.5602 9.52698 25.7456 9.52698C25.9294 9.52698 26.0762 9.67667 26.0762 9.86127C26.0762 10.045 25.9294 10.1956 25.7456 10.1956ZM25.7456 7.97115C25.5602 7.97115 25.4119 7.82058 25.4119 7.63685C25.4119 7.45225 25.5602 7.30284 25.7456 7.30284C25.9294 7.30284 26.0762 7.45225 26.0762 7.63685C26.0762 7.82058 25.9294 7.97115 25.7456 7.97115ZM25.7456 5.74585C25.5602 5.74585 25.4119 5.59702 25.4119 5.41271C25.4119 5.22811 25.5602 5.07956 25.7456 5.07956C25.9294 5.07956 26.0762 5.2284 26.0762 5.41271C26.0762 5.59731 25.9294 5.74585 25.7456 5.74585ZM25.7456 3.52172C25.5602 3.52172 25.4119 3.37288 25.4119 3.18742C25.4119 3.00282 25.5602 2.85514 25.7456 2.85514C25.9294 2.85514 26.0762 3.00311 26.0762 3.18742C26.0762 3.37317 25.9294 3.52172 25.7456 3.52172ZM26.6701 20.1752C26.4866 20.1752 26.3358 20.0255 26.3358 19.8421C26.3358 19.6563 26.4866 19.5078 26.6701 19.5078C26.8561 19.5078 27.0044 19.6566 27.0044 19.8421C27.0047 20.0255 26.8561 20.1752 26.6701 20.1752ZM26.6701 17.9502C26.4866 17.9502 26.3358 17.8014 26.3358 17.6159C26.3358 17.433 26.4866 17.2828 26.6701 17.2828C26.8561 17.2828 27.0044 17.433 27.0044 17.6159C27.0047 17.8014 26.8561 17.9502 26.6701 17.9502ZM26.6701 15.7261C26.4866 15.7261 26.3358 15.5761 26.3358 15.3935C26.3358 15.208 26.4866 15.0575 26.6701 15.0575C26.8561 15.0575 27.0044 15.208 27.0044 15.3935C27.0047 15.5761 26.8561 15.7261 26.6701 15.7261ZM26.6701 13.5016C26.4866 13.5016 26.3358 13.3519 26.3358 13.1673C26.3358 12.9836 26.4866 12.833 26.6701 12.833C26.8561 12.833 27.0044 12.9836 27.0044 13.1673C27.0047 13.3519 26.8561 13.5016 26.6701 13.5016ZM26.6701 11.2784C26.4866 11.2784 26.3358 11.1278 26.3358 10.9441C26.3358 10.7595 26.4866 10.6089 26.6701 10.6089C26.8561 10.6089 27.0044 10.7595 27.0044 10.9441C27.0047 11.1275 26.8561 11.2784 26.6701 11.2784ZM26.6701 9.05221C26.4866 9.05221 26.3358 8.90222 26.3358 8.71993C26.3358 8.53533 26.4866 8.38563 26.6701 8.38563C26.8561 8.38563 27.0044 8.53562 27.0044 8.71993C27.0047 8.90251 26.8561 9.05221 26.6701 9.05221ZM26.6701 6.82893C26.4866 6.82893 26.3358 6.6801 26.3358 6.49377C26.3358 6.31004 26.4866 6.16149 26.6701 6.16149C26.8561 6.16149 27.0044 6.31033 27.0044 6.49377C27.0047 6.68039 26.8561 6.82893 26.6701 6.82893ZM26.6701 4.6048C26.4866 4.6048 26.3358 4.4551 26.3358 4.2705C26.3358 4.0859 26.4866 3.9362 26.6701 3.9362C26.8561 3.9362 27.0044 4.08619 27.0044 4.2705C27.0047 4.4551 26.8561 4.6048 26.6701 4.6048ZM27.5937 19.0924C27.4114 19.0924 27.2608 18.9424 27.2608 18.7581C27.2608 18.5744 27.4114 18.425 27.5937 18.425C27.7806 18.425 27.9288 18.5747 27.9288 18.7581C27.9288 18.9424 27.7806 19.0924 27.5937 19.0924ZM27.5937 16.8671C27.4114 16.8671 27.2608 16.7183 27.2608 16.5348C27.2608 16.3502 27.4114 16.2005 27.5937 16.2005C27.7806 16.2005 27.9288 16.3505 27.9288 16.5348C27.9288 16.7183 27.7806 16.8671 27.5937 16.8671ZM27.5937 14.643C27.4114 14.643 27.2608 14.495 27.2608 14.3087C27.2608 14.1261 27.4114 13.9755 27.5937 13.9755C27.7806 13.9755 27.9288 14.1261 27.9288 14.3087C27.9288 14.495 27.7806 14.643 27.5937 14.643ZM27.5937 12.4197C27.4114 12.4197 27.2608 12.2709 27.2608 12.0854C27.2608 11.9008 27.4114 11.7523 27.5937 11.7523C27.7806 11.7523 27.9288 11.9011 27.9288 12.0854C27.9288 12.2709 27.7806 12.4197 27.5937 12.4197ZM27.5937 10.1956C27.4114 10.1956 27.2608 10.045 27.2608 9.86127C27.2608 9.67638 27.4114 9.52698 27.5937 9.52698C27.7806 9.52698 27.9288 9.67667 27.9288 9.86127C27.9288 10.045 27.7806 10.1956 27.5937 10.1956ZM27.5937 7.97115C27.4114 7.97115 27.2608 7.82058 27.2608 7.63685C27.2608 7.45225 27.4114 7.30284 27.5937 7.30284C27.7806 7.30284 27.9288 7.45225 27.9288 7.63685C27.9288 7.82058 27.7806 7.97115 27.5937 7.97115ZM27.5937 5.74585C27.4114 5.74585 27.2608 5.59702 27.2608 5.41271C27.2608 5.22811 27.4114 5.07956 27.5937 5.07956C27.7806 5.07956 27.9288 5.2284 27.9288 5.41271C27.9288 5.59731 27.7806 5.74585 27.5937 5.74585ZM28.5192 20.1752C28.3355 20.1752 28.1849 20.0255 28.1849 19.8421C28.1849 19.6563 28.3355 19.5078 28.5192 19.5078C28.7053 19.5078 28.8559 19.6566 28.8559 19.8421C28.8559 20.0255 28.7053 20.1752 28.5192 20.1752ZM28.5192 17.9502C28.3355 17.9502 28.1849 17.8014 28.1849 17.6159C28.1849 17.433 28.3355 17.2828 28.5192 17.2828C28.7053 17.2828 28.8559 17.433 28.8559 17.6159C28.8559 17.8014 28.7053 17.9502 28.5192 17.9502ZM28.5192 15.7261C28.3355 15.7261 28.1849 15.5761 28.1849 15.3935C28.1849 15.208 28.3355 15.0575 28.5192 15.0575C28.7053 15.0575 28.8559 15.208 28.8559 15.3935C28.8559 15.5761 28.7053 15.7261 28.5192 15.7261ZM28.5192 13.5016C28.3355 13.5016 28.1849 13.3519 28.1849 13.1673C28.1849 12.9836 28.3355 12.833 28.5192 12.833C28.7053 12.833 28.8559 12.9836 28.8559 13.1673C28.8559 13.3519 28.7053 13.5016 28.5192 13.5016ZM28.5192 11.2784C28.3355 11.2784 28.1849 11.1278 28.1849 10.9441C28.1849 10.7595 28.3355 10.6089 28.5192 10.6089C28.7053 10.6089 28.8559 10.7595 28.8559 10.9441C28.8559 11.1275 28.7053 11.2784 28.5192 11.2784ZM28.5192 9.05221C28.3355 9.05221 28.1849 8.90222 28.1849 8.71993C28.1849 8.53533 28.3355 8.38563 28.5192 8.38563C28.7053 8.38563 28.8559 8.53562 28.8559 8.71993C28.8559 8.90251 28.7053 9.05221 28.5192 9.05221Z" fill="#D7AB42"/>
<path d="M30.1657 42.167V41.4666C30.1657 40.6651 29.5153 40.0146 28.7134 40.0146H18.743C17.9409 40.0146 17.291 40.6651 17.291 41.4666V42.167H30.1657Z" fill="#D7AB42"/>
<path d="M5.36287 5.47656H4.38086V17.3812H5.36287V5.47656Z" fill="#D7AB42"/>
<path d="M7.55723 2.17383H6.57422V20.6859H7.55723V2.17383Z" fill="#D7AB42"/>
<path d="M3.25809 6.88574H2.2793V15.9745H3.25809V6.88574Z" fill="#D7AB42"/>
<path d="M0.981274 8.71094H0V14.148H0.981274V8.71094Z" fill="#D7AB42"/>
<path d="M9.76426 3.93262H8.78125V18.9269H9.76426V3.93262Z" fill="#D7AB42"/>
<path d="M11.8812 6.88574H10.9004V15.9745H11.8812V6.88574Z" fill="#D7AB42"/>
<path d="M13.9156 8.71094H12.9355V14.148H13.9156V8.71094Z" fill="#D7AB42"/>
<path d="M15.7088 10.8047H14.7285V12.0556H15.7088V10.8047Z" fill="#D7AB42"/>
<path d="M42.6371 5.47656H43.6191V17.3812H42.6371V5.47656Z" fill="#D7AB42"/>
<path d="M40.4428 2.17383H41.4258V20.6859H40.4428V2.17383Z" fill="#D7AB42"/>
<path d="M44.7419 6.88574H45.7207V15.9745H44.7419V6.88574Z" fill="#D7AB42"/>
<path d="M47.0187 8.71094H48V14.148H47.0187V8.71094Z" fill="#D7AB42"/>
<path d="M38.2357 3.93262H39.2188V18.9269H38.2357V3.93262Z" fill="#D7AB42"/>
<path d="M36.1188 6.88574H37.0996V15.9745H36.1188V6.88574Z" fill="#D7AB42"/>
<path d="M34.0844 8.71094H35.0645V14.148H34.0844V8.71094Z" fill="#D7AB42"/>
<path d="M32.2912 10.8047H33.2715V12.0556H32.2912V10.8047Z" fill="#D7AB42"/>
</svg>
