<svg width="27" height="27" viewBox="0 0 27 27" fill="none" xmlns="http://www.w3.org/2000/svg">
<path d="M1.71854 0.0720272C1.04451 0.236284 0.512091 0.683746 0.200567 1.34078C0.0419736 1.68062 0.0249814 1.77691 0.0249814 2.23003C0.0249814 2.70015 0.115606 3.07964 1.16346 7.25972C1.79217 9.74624 2.31326 11.7966 2.33025 11.808C2.35858 11.8363 4.47127 12.0402 11.8459 12.7142C13.4885 12.8671 14.8308 13.0031 14.8308 13.0201C14.8308 13.0371 13.4885 13.173 11.8459 13.3259C4.47127 14 2.35858 14.2039 2.33025 14.2322C2.27361 14.2832 0.0533017 23.2437 0.0136532 23.5609C-0.11662 24.7107 0.699005 25.7812 1.87713 25.9964C2.64178 26.138 1.92244 26.4666 14.0435 20.406C22.5226 16.1693 25.1451 14.8326 25.332 14.6627C25.6492 14.3681 25.9041 13.881 25.9947 13.3996C26.125 12.6859 25.8588 11.8589 25.332 11.3775C25.0148 11.083 3.18553 0.156988 2.72108 0.0550346C2.35291 -0.0242615 2.0867 -0.0185986 1.71854 0.0720272Z" fill="#E6B72D"/>
</svg>
