<svg width="16" height="24" viewBox="0 0 16 24" fill="none" xmlns="http://www.w3.org/2000/svg">
<path d="M6.60547 0.0703259C5.83672 0.234388 5.17109 0.614077 4.54297 1.23751C3.86797 1.91251 3.49297 2.62501 3.34766 3.52033C3.31953 3.70783 3.30078 5.49376 3.30078 8.34376C3.30078 12.2438 3.31016 12.9281 3.37578 13.261C3.81172 15.5719 6.07578 17.0719 8.39609 16.5938C9.24922 16.4156 9.87734 16.0641 10.543 15.3985C11.1711 14.7656 11.5508 14.025 11.6914 13.1578C11.757 12.7547 11.757 3.92345 11.6914 3.52033C11.5461 2.62501 11.1711 1.91251 10.4961 1.23751C9.85859 0.600014 9.19766 0.2297 8.40078 0.0703259C7.94609 -0.0234241 7.05078 -0.0234241 6.60547 0.0703259ZM8.08203 1.85158C8.69141 1.9922 9.32891 2.4797 9.62891 3.03283C9.71328 3.17814 9.81641 3.45939 9.86797 3.65626C9.95703 3.99845 9.95703 4.17658 9.94766 8.48439C9.93359 12.7031 9.92891 12.9703 9.84453 13.1813C9.49297 14.0906 8.77578 14.7047 7.88516 14.8547C6.66641 15.061 5.41484 14.1844 5.14766 12.9375C5.09609 12.6844 5.08203 11.836 5.08203 8.31095C5.08203 4.20001 5.08672 3.9797 5.17109 3.64689C5.29297 3.18751 5.49453 2.82658 5.81797 2.50314C6.43203 1.89376 7.25234 1.6547 8.08203 1.85158Z" fill="#E7E9EB"/>
<path d="M0.666773 11.0105C0.427711 11.0855 0.226148 11.2402 0.113648 11.4418C0.00114796 11.634 -0.00353954 11.6715 0.00114796 12.4355C0.010523 13.2605 0.0620855 13.734 0.212085 14.3621C0.788648 16.734 2.56521 18.7496 4.82927 19.6074C5.23709 19.7621 5.91209 19.9449 6.23084 19.9871C6.67146 20.048 6.62927 19.9309 6.62927 21.1355V22.2043L5.77146 22.223C4.90896 22.2371 4.90896 22.2371 4.71677 22.373C4.2574 22.6918 4.19646 23.3949 4.5949 23.7699C4.6699 23.8402 4.79177 23.9199 4.86209 23.9434C5.0449 24.0137 9.9949 24.0137 10.1777 23.9434C10.8105 23.7043 10.8949 22.7668 10.323 22.373C10.1308 22.2371 10.1308 22.2371 9.26834 22.223L8.41052 22.2043V21.1355C8.41052 19.9309 8.36834 20.048 8.80896 19.9871C9.12771 19.9449 9.80271 19.7621 10.2105 19.6074C12.4746 18.7496 14.2511 16.734 14.8277 14.3621C14.9777 13.734 15.0293 13.2605 15.0386 12.4355C15.0433 11.6574 15.0433 11.6387 14.9168 11.4324C14.584 10.8652 13.7871 10.8371 13.4027 11.3809L13.2621 11.5777L13.2293 12.5012C13.2105 13.0121 13.1683 13.5605 13.1308 13.7293C12.5683 16.2324 10.5058 18.0559 8.00271 18.2715C5.14802 18.5199 2.55115 16.5887 1.90896 13.7293C1.87146 13.5605 1.82927 13.0121 1.81052 12.5012L1.77771 11.5777L1.63709 11.3809C1.41677 11.0715 0.985523 10.9074 0.666773 11.0105Z" fill="#E7E9EB"/>
</svg>
