<svg width="19" height="20" viewBox="0 0 19 20" fill="none" xmlns="http://www.w3.org/2000/svg">
<path d="M7.85714 0C8.01343 0 8.16332 0.0620853 8.27383 0.172598C8.38434 0.28311 8.44643 0.432997 8.44643 0.589286V1.17857H11.9821C12.5552 1.17857 13.1048 1.40622 13.51 1.81143C13.9152 2.21664 14.1429 2.76623 14.1429 3.33929V7.66072C14.1429 8.04179 14.0446 8.39929 13.871 8.71043L13.7414 8.31993C13.6529 8.0689 13.4915 7.85002 13.2778 7.69136C13.0597 7.5364 12.7989 7.45315 12.5314 7.45315C12.2639 7.45315 12.003 7.5364 11.7849 7.69136C11.5753 7.8456 11.4166 8.05904 11.3292 8.30422L11 9.52286C10.9665 9.62762 10.9233 9.72741 10.8704 9.82222H3.73214C3.44833 9.82222 3.16729 9.7663 2.90509 9.65767C2.64289 9.54903 2.40466 9.3898 2.20401 9.18908C2.00336 8.98836 1.84422 8.75007 1.73568 8.48783C1.62714 8.22559 1.57133 7.94453 1.57143 7.66072V3.33929C1.57143 2.76623 1.79907 2.21664 2.20429 1.81143C2.6095 1.40622 3.15909 1.17857 3.73214 1.17857H7.26786V0.589286C7.26786 0.432997 7.32994 0.28311 7.44046 0.172598C7.55097 0.0620853 7.70086 0 7.85714 0ZM8.09286 11.4636C8.10857 11.439 8.12586 11.4154 8.14472 11.3929H2.16071C1.58766 11.3929 1.03807 11.6205 0.632859 12.0257C0.227646 12.4309 0 12.9805 0 13.5536V14.1429C0 15.6962 0.755072 17.0044 2.13479 17.8986C3.49171 18.7762 5.43479 19.25 7.85714 19.25C10.2795 19.25 12.2226 18.777 13.5795 17.8986C13.6513 17.8514 13.7215 17.8035 13.7901 17.7548C13.6981 17.6879 13.6179 17.6061 13.5528 17.5128C13.4266 17.3306 13.3584 17.1145 13.3571 16.8929C13.3587 16.7918 13.3744 16.6922 13.4043 16.5943L13.3021 16.6807C13.0872 16.8287 12.8324 16.9079 12.5714 16.9079C12.3105 16.9079 12.0557 16.8287 11.8407 16.6807C11.627 16.5221 11.4656 16.3032 11.3771 16.0521L10.9843 14.85C10.9266 14.6675 10.8361 14.4971 10.7171 14.3471C10.6739 14.2889 10.6266 14.2338 10.5757 14.1821C10.391 13.9997 10.1683 13.8602 9.92357 13.7736L8.69786 13.3807C8.45179 13.2949 8.23973 13.1324 8.09286 12.9171C7.94009 12.7056 7.85787 12.4513 7.85787 12.1904C7.85787 11.9294 7.94009 11.6751 8.09286 11.4636ZM5.5 6.67857C5.81258 6.67857 6.11235 6.5544 6.33338 6.33338C6.5544 6.11235 6.67857 5.81258 6.67857 5.5C6.67857 5.18742 6.5544 4.88765 6.33338 4.66662C6.11235 4.4456 5.81258 4.32143 5.5 4.32143C5.18742 4.32143 4.88765 4.4456 4.66662 4.66662C4.4456 4.88765 4.32143 5.18742 4.32143 5.5C4.32143 5.81258 4.4456 6.11235 4.66662 6.33338C4.88765 6.5544 5.18742 6.67857 5.5 6.67857ZM11.3929 5.5C11.3929 5.18742 11.2687 4.88765 11.0477 4.66662C10.8266 4.4456 10.5269 4.32143 10.2143 4.32143C9.90171 4.32143 9.60194 4.4456 9.38091 4.66662C9.15989 4.88765 9.03572 5.18742 9.03572 5.5C9.03572 5.81258 9.15989 6.11235 9.38091 6.33338C9.60194 6.5544 9.90171 6.67857 10.2143 6.67857C10.5269 6.67857 10.8266 6.5544 11.0477 6.33338C11.2687 6.11235 11.3929 5.81258 11.3929 5.5ZM11.1344 13.6149C11.4067 13.8887 11.6115 14.2223 11.7323 14.5891L12.1236 15.7905C12.1565 15.883 12.2172 15.963 12.2974 16.0196C12.3776 16.0761 12.4733 16.1065 12.5714 16.1065C12.6696 16.1065 12.7653 16.0761 12.8455 16.0196C12.9257 15.963 12.9864 15.883 13.0193 15.7905L13.4106 14.5884C13.5321 14.2228 13.7374 13.8907 14.0099 13.6184C14.2824 13.3462 14.6148 13.1413 14.9804 13.0201L16.1826 12.6296C16.2754 12.597 16.3558 12.5365 16.4127 12.4562C16.4696 12.376 16.5002 12.2801 16.5002 12.1817C16.5002 12.0834 16.4696 11.9874 16.4127 11.9072C16.3558 11.827 16.2754 11.7664 16.1826 11.7339L16.159 11.7276L14.9561 11.3371C14.5904 11.2159 14.2581 11.011 13.9855 10.7387C13.713 10.4665 13.5078 10.1343 13.3862 9.76879L12.9957 8.56664C12.9632 8.47382 12.9026 8.3934 12.8224 8.33651C12.7421 8.27961 12.6462 8.24905 12.5479 8.24905C12.4495 8.24905 12.3536 8.27961 12.2733 8.33651C12.1931 8.3934 12.1325 8.47382 12.1 8.56664L11.7087 9.76879L11.6985 9.79864C11.5764 10.1551 11.3746 10.4789 11.1084 10.7455C10.8422 11.0121 10.5187 11.2145 10.1624 11.3371L8.96029 11.7276C8.86747 11.7601 8.78705 11.8207 8.73015 11.9009C8.67325 11.9811 8.64269 12.0771 8.64269 12.1754C8.64269 12.2738 8.67325 12.3697 8.73015 12.4499C8.78705 12.5302 8.86747 12.5908 8.96029 12.6233L10.1624 13.0138C10.5294 13.1356 10.8617 13.3422 11.1344 13.6149ZM17.9308 16.3884L18.6521 16.6226L18.667 16.6257C18.7228 16.6451 18.7713 16.6814 18.8055 16.7295C18.8398 16.7777 18.8582 16.8353 18.8582 16.8944C18.8582 16.9535 18.8398 17.0112 18.8055 17.0593C18.7713 17.1075 18.7228 17.1438 18.667 17.1631L17.9449 17.3973C17.7259 17.4707 17.5269 17.5939 17.3636 17.7572C17.2002 17.9205 17.077 18.1195 17.0036 18.3386L16.7687 19.0599C16.749 19.1153 16.7126 19.1633 16.6644 19.1973C16.6163 19.2312 16.5589 19.2495 16.5 19.2495C16.4411 19.2495 16.3837 19.2312 16.3356 19.1973C16.2875 19.1633 16.251 19.1153 16.2313 19.0599L15.9964 18.3386C15.9239 18.1187 15.8011 17.9188 15.6377 17.7548C15.4742 17.5908 15.2747 17.4673 15.0551 17.3941L14.333 17.16C14.2772 17.1406 14.2287 17.1043 14.1945 17.0562C14.1602 17.008 14.1418 16.9504 14.1418 16.8913C14.1418 16.8322 14.1602 16.7745 14.1945 16.7264C14.2287 16.6782 14.2772 16.6419 14.333 16.6226L15.0551 16.3884C15.2715 16.3132 15.4677 16.1892 15.6284 16.0259C15.7892 15.8627 15.9103 15.6647 15.9822 15.4471L16.2171 14.7259C16.2369 14.6704 16.2733 14.6224 16.3214 14.5884C16.3695 14.5545 16.427 14.5362 16.4859 14.5362C16.5447 14.5362 16.6022 14.5545 16.6503 14.5884C16.6984 14.6224 16.7348 14.6704 16.7546 14.7259L16.9887 15.4471C17.0616 15.6665 17.1848 15.8659 17.3483 16.0293C17.5119 16.1927 17.7113 16.3157 17.9308 16.3884Z" fill="#777777"/>
</svg>
