<svg width="18" height="23" viewBox="0 0 18 23" fill="none" xmlns="http://www.w3.org/2000/svg">
<g clip-path="url(#clip0_821_6592)">
<path d="M8.82708 -0.234171C9.40076 -0.353342 9.70885 0.228659 10.0862 0.564002C11.9634 2.23287 14.108 3.53821 16.4499 4.45463C16.8337 4.60475 17.6804 4.76827 17.8855 5.09761C17.9456 5.19368 17.9941 5.29253 17.988 5.41078C17.9151 7.41221 18.1377 9.47601 17.8393 11.4562C17.2181 15.5815 14.709 19.2296 11.1172 21.3165C10.7093 21.5535 9.40908 22.2528 9.00121 22.2532C8.50974 22.2532 6.96282 21.365 6.48752 21.0675C3.30037 19.0749 1.00332 15.7958 0.269812 12.0895C-0.168075 9.87648 0.0651876 7.54201 0.038859 5.29669C0.159416 4.8334 1.09524 4.6648 1.50679 4.50129C3.85328 3.56731 5.98636 2.29291 7.87047 0.610655C8.10003 0.405568 8.5624 -0.178742 8.82708 -0.233709V-0.234171ZM5.97573 8.13879C5.92585 8.67553 6.01268 9.28062 5.97573 9.82475C5.46163 9.78964 4.87224 9.81228 4.73274 10.4063L4.72766 15.1607C4.75861 15.4189 4.95631 15.6235 5.18911 15.7154L12.6974 15.7381C12.9754 15.7006 13.1399 15.5168 13.2521 15.2757C13.2969 15.1796 13.2434 15.0775 13.3699 14.9778L13.3464 10.3753C13.1667 9.79565 12.5828 9.80073 12.0729 9.82429C12.0586 8.71109 12.2336 7.7083 11.5842 6.73321C10.0054 4.36318 6.23763 5.31332 5.97619 8.13787L5.97573 8.13879Z" fill="#122338"/>
<path d="M10.6428 10.0741H7.36328V8.34198C7.36328 8.29256 7.55682 7.86853 7.60162 7.79508C8.2252 6.78028 9.82431 6.78674 10.4206 7.82464C10.4617 7.89624 10.6428 8.29717 10.6428 8.34152V10.0737V10.0741Z" fill="#122338"/>
</g>
<defs>
<clipPath id="clip0_821_6592">
<rect width="18" height="22.5036" fill="white"/>
</clipPath>
</defs>
</svg>
