<svg width="180" height="83" viewBox="0 0 180 83" fill="none" xmlns="http://www.w3.org/2000/svg">
<path d="M68.6165 10.4724L69.1628 25.342C69.16 25.4335 69.1655 25.5236 69.1628 25.6151C68.749 25.5386 68.9006 25.824 68.8896 26.0862C68.7872 28.6712 68.5469 31.0322 68.3366 33.5913C68.3188 33.8084 68.271 34.2113 68.4813 34.3451C65.936 54.5826 56.5846 71.5947 38.1988 81.2096C37.5474 81.5496 35.2874 82.7745 34.7194 82.7813C34.2974 82.7868 32.5044 81.9115 32.0046 81.667C14.3029 73.0449 4.30572 56.1189 1.22503 37.0735C1.47902 36.9314 1.34656 36.5846 1.32198 36.3647C0.491726 29.0972 0.0547487 22.6546 0.400234 15.3079C0.473974 13.7484 0.781221 12.1698 0.678804 10.6063C11.9733 6.89469 23.3812 3.5163 34.7398 0L68.6165 10.4711V10.4724ZM5.99901 11.5635C5.87884 11.3013 5.56203 11.5048 5.38314 11.5594C5.00488 11.6755 2.94836 12.3187 2.85004 12.4716C2.78995 12.5959 2.75718 12.7297 2.73806 12.8663C2.46768 14.8013 2.37346 17.419 2.31064 19.4018C2.16999 23.8453 2.33659 28.775 2.99889 33.1174C3.00298 33.1475 3.12861 33.2062 3.13544 33.254C2.85414 34.0023 3.13134 35.1234 3.27609 35.9114C3.32935 36.2009 3.12861 36.3879 3.54374 36.1189C4.62116 42.38 5.98945 47.9801 8.56762 53.8097C13.683 65.3801 23.0411 75.1219 34.718 80.1308C43.362 76.1884 50.8411 70.0912 56.1791 62.2174C61.4829 54.3942 64.4052 45.193 65.8677 35.8909L66.7089 28.2055C66.713 28.4814 66.5846 29.156 66.844 29.2966C66.7211 28.2752 66.9574 27.2073 66.9874 26.2337C67.1035 22.4415 67.0707 18.1264 66.7075 14.3602C66.6447 13.7047 66.5204 13.0315 66.433 12.3788L66.2992 12.5167C55.7721 9.10962 45.2027 5.79542 34.5787 2.69287C25.0813 5.73124 15.4746 8.45825 6.00037 11.5622L5.99901 11.5635Z" fill="#E6B92E"/>
<path d="M1.22516 37.0747C-0.0147613 29.4139 -0.362979 19.896 0.408559 12.1793C0.444064 11.8215 0.539651 10.7714 0.680303 10.6089C0.78272 12.1711 0.475473 13.7497 0.401733 15.3105C0.0548822 22.6572 0.493225 29.0999 1.32348 36.3674C1.34806 36.5858 1.48052 36.9341 1.22653 37.0761L1.22516 37.0747Z" fill="#F6DA31"/>
<path d="M68.6172 10.4726C68.7988 10.5832 68.8548 10.7566 68.8835 10.9546C68.9681 11.5391 69.0036 12.6192 69.0323 13.2624C69.2071 17.2088 69.2576 21.3833 69.1634 25.3407L68.6172 10.4712V10.4726Z" fill="#FADE2A"/>
<path d="M69.1653 25.6148C69.0875 28.4947 68.843 31.488 68.4825 34.3461C68.2722 34.2123 68.32 33.8095 68.3378 33.5923C68.5481 31.0333 68.7884 28.6722 68.8908 26.0873C68.9017 25.8251 68.7502 25.5397 69.1639 25.6161L69.1653 25.6148Z" fill="#FADE2A"/>
<path d="M5.99954 11.5637C5.00815 11.8887 4.02495 12.2588 3.01853 12.5388C2.74679 14.9298 2.64164 17.34 2.58975 19.7489C2.36307 19.8909 2.45319 20.2664 2.45046 20.4972C2.43544 21.6784 2.43817 22.8664 2.45046 24.0477C2.45319 24.2784 2.36307 24.654 2.58975 24.796C2.60477 25.5457 2.58156 26.3008 2.58429 27.0532L2.99942 33.119C2.33849 28.7766 2.17189 23.8469 2.31118 19.4034C2.37399 17.422 2.46685 14.8028 2.73859 12.8679C2.75771 12.7313 2.79185 12.5975 2.85057 12.4732C2.94889 12.3203 5.00542 11.6771 5.38367 11.561C5.56393 11.5064 5.87937 11.3016 5.99954 11.5651V11.5637Z" fill="#F6DA31"/>
<path d="M66.3008 12.5193L66.4346 12.3813C66.522 13.0341 66.6463 13.7073 66.7091 14.3628C67.0723 18.129 67.1037 22.4441 66.989 26.2363C66.959 27.2099 66.7227 28.2791 66.8456 29.2992C66.5862 29.1586 66.7145 28.484 66.7104 28.2081C66.6954 27.0529 66.6818 25.8799 66.705 24.7246C66.7132 24.3122 66.8374 23.9066 66.847 23.4341C66.862 22.709 66.8484 21.9757 66.847 21.252C66.8456 20.5583 66.9631 19.6789 66.7104 19.0698C66.6941 18.3912 66.5739 17.5199 66.5739 16.956V14.909C66.5739 14.8639 66.4455 14.6809 66.4319 14.5048C66.38 13.8466 66.3773 13.1775 66.3008 12.5206V12.5193Z" fill="#FADE2A"/>
<path d="M3.54208 36.1203C3.12559 36.3893 3.32769 36.2022 3.27443 35.9127C3.12832 35.1248 2.85111 34.0023 3.13378 33.2554C3.27717 34.2113 3.37822 35.1658 3.54345 36.1203H3.54208Z" fill="#F6DA31"/>
<path d="M29.6009 25.0701V27.6619C29.5681 27.677 29.5121 27.6524 29.4643 27.6619C29.4438 27.666 29.1926 27.524 29.0546 27.6633C28.97 27.7493 29.1926 27.7889 29.1912 27.7985C29.1598 27.9719 27.4788 29.1122 27.0801 30.531C26.0095 34.3381 28.5794 36.3086 31.4689 38.0033C35.5533 40.3998 43.7985 43.1514 46.2183 47.1266C49.5161 52.5424 46.5938 58.9577 41.0565 61.2874C34.8255 63.9092 28.6737 61.3229 22.3703 60.6742L22.0958 50.9883C23.4723 50.8695 23.1281 51.0361 23.4927 51.9797C26.0177 58.5098 30.3628 61.2355 37.5129 59.6528C42.093 58.6396 44.0635 54.1114 40.5157 50.6442C35.1751 45.4237 22.0575 44.7915 21.9729 34.8366C21.9401 30.9488 25.5124 25.4648 29.5995 25.0674L29.6009 25.0701Z" fill="#E6B92D"/>
<path d="M53.884 16.4756V26.1628C53.6041 26.1055 52.8517 26.2557 52.6755 26.1437C52.61 26.1014 52.2836 24.9093 52.1771 24.6648C51.9204 24.0776 51.6213 23.4345 51.2922 22.8896C51.5803 22.7353 50.9877 22.144 50.8771 22.0088C48.5474 19.133 45.2865 18.9104 41.8166 18.7916C41.1939 18.7697 37.1683 18.741 36.9757 18.9404L37.1054 38.9881C37.0699 39.1916 37.1314 39.4538 37.1054 39.6695C34.9124 38.9608 32.7999 37.8301 30.8307 36.6011V18.9349C28.7783 19.0456 26.6726 18.9609 24.6243 19.0729C21.9655 19.219 19.1252 19.7352 17.2544 21.7985C17.0591 22.0143 16.3313 23.1477 16.2329 23.1641C16.222 23.1654 16.1674 23.048 16.11 23.0316C15.725 23.4058 15.1118 25.9102 14.9917 26.014C14.892 26.1 14.2611 25.9867 14.0508 26.0276V16.4783H53.8868L53.884 16.4756Z" fill="#E5B72C"/>
<path d="M31.5117 58.63L31.7165 58.3569C31.5773 58.331 31.143 58.3979 31.102 58.3583C31.042 58.2982 31.1157 56.949 31.102 56.6541C31.0611 55.8416 31.1075 55.3595 31.1089 54.6126C31.113 51.9047 31.0925 49.1954 31.1048 46.4902L36.978 49.4385L37.1064 58.4962C35.5387 58.5549 33.9506 58.4184 32.3829 58.4853C32.1344 58.4962 31.9596 58.6287 31.9214 58.6314C31.7862 58.6409 31.6469 58.6205 31.5117 58.6314V58.63Z" fill="#E5B72C"/>
<path d="M45.0175 25.8882L45.0857 26.022C45.3179 25.4812 45.5719 25.5973 46.1085 25.615V29.7076H46.2437L46.2396 28.8104C46.1973 28.6848 46.3803 28.5155 46.3817 28.48L46.5182 36.1203C46.1154 36.0779 45.5609 36.2828 45.3015 35.9031C44.2487 32.7501 42.468 29.9848 39.6017 28.2342C39.263 28.028 38.3959 27.7207 38.1951 27.5255C38.1146 26.743 38.3686 25.8008 38.0586 25.0702C38.1651 24.7547 38.923 25.047 39.1784 25.1098C40.4784 25.4334 42.4106 26.4753 43.6028 26.5614C44.3593 26.6174 44.575 26.4043 45.0161 25.8882H45.0175Z" fill="#E6B92E"/>
<path d="M53.8825 16.4751H14.0465V26.0245C14.2582 25.9821 14.8877 26.0968 14.9874 26.0108C15.1076 25.907 15.7207 23.4026 16.1058 23.0284C16.1632 23.0448 16.2164 23.1623 16.2287 23.1609C15.8941 23.5351 15.2523 26.0586 15.1199 26.1446C14.9396 26.2607 14.0711 26.1009 13.7734 26.161C13.8622 25.9726 13.9032 25.8292 13.91 25.6162C13.9441 24.4418 13.9196 23.2456 13.91 22.0698C13.8977 20.5226 13.8895 19.0301 13.9209 17.4979C13.9305 17.0377 13.5276 16.4328 14.1148 16.3413L53.8811 16.4765L53.8825 16.4751Z" fill="#FCED71"/>
<path d="M51.2905 22.8868C48.8557 18.8516 43.4713 18.9212 39.2176 18.9226C38.554 18.9226 37.9135 19.1616 37.2389 19.0673C37.2362 21.0665 37.2458 23.0711 37.2389 25.0703C37.0095 25.8637 37.0109 27.0176 37.2389 27.7987C37.2376 29.2066 37.2458 30.6199 37.2389 32.0278C37.0123 32.1698 37.1024 32.5454 37.0997 32.7761C37.0887 33.7075 37.0997 34.6442 37.1024 35.5742C37.1024 36.4017 36.9863 37.3917 37.2389 38.166C37.2212 38.5606 37.1556 38.6808 37.1024 38.984L36.9727 18.9362C37.1666 18.7369 41.1909 18.7656 41.8136 18.7874C45.2834 18.9062 48.5444 19.1288 50.874 22.0046C50.9846 22.1398 51.5773 22.7311 51.2891 22.8854L51.2905 22.8868Z" fill="#F6DA31"/>
<path d="M37.1025 49.3525L37.2391 54.263C37.2541 55.7228 37.2637 57.1744 37.3757 58.6287H31.9175C31.9558 58.6246 32.1306 58.4921 32.3791 58.4812C33.9467 58.4143 35.5349 58.5508 37.1025 58.4921L36.9742 49.4344L31.1009 46.4862C31.0886 49.1913 31.1091 51.9019 31.105 54.6085C31.105 55.3554 31.0559 55.8375 31.0982 56.65C31.1132 56.9449 31.0381 58.2941 31.0982 58.3542C31.1378 58.3938 31.572 58.3255 31.7127 58.3528L31.5079 58.6259C30.735 58.6901 30.8715 58.5044 30.8251 57.808C31.0408 57.7178 31.0408 57.2153 30.8251 57.1252C30.7513 54.5921 30.8114 52.0207 30.8251 49.4849C31.0531 48.5563 31.0531 47.2754 30.8251 46.3469C30.8852 46.1502 30.9657 46.1571 31.1078 46.2677L37.0998 49.3484L37.1025 49.3525Z" fill="#F6DA31"/>
<path d="M45.0156 25.8884C45.1167 25.7709 45.1494 25.4186 45.3475 25.3886C45.4267 25.3763 46.2132 25.4951 46.2596 25.5579C46.5696 25.9785 46.2788 26.9863 46.2706 27.456C46.2651 27.7578 46.3989 28.0842 46.3798 28.4802C46.3784 28.5157 46.1955 28.6837 46.2378 28.8107L46.2419 29.7078H46.1067V25.6153C45.57 25.5975 45.316 25.4814 45.0839 26.0222L45.0156 25.8884Z" fill="#FBE42A"/>
<path d="M2.58831 24.7971C2.36299 24.6551 2.45176 24.2795 2.44902 24.0488C2.43673 22.8676 2.434 21.6795 2.44902 20.4983C2.45176 20.2675 2.36163 19.892 2.58831 19.75C2.55144 21.4214 2.55554 23.1257 2.58831 24.7971Z" fill="#B39837"/>
<path d="M37.242 54.2645L37.1055 49.354C37.2611 49.4168 37.2352 49.5493 37.2502 49.6804C37.3963 51.0254 37.2284 52.8498 37.242 54.2645Z" fill="#B39837"/>
<path d="M29.6016 25.0702C29.6903 25.062 29.8842 25.0211 29.8774 25.144C29.7231 25.7995 29.9662 26.7062 29.8692 27.3166C29.8337 27.5419 29.8064 27.5733 29.6016 27.6621V25.0702Z" fill="#FBE42A"/>
<path d="M37.2407 35.5737H37.1041C37.1041 34.6437 37.0904 33.707 37.1014 32.7757C37.1041 32.5449 37.014 32.1694 37.2407 32.0273C37.2352 33.2072 37.2543 34.3939 37.2407 35.5737Z" fill="#97833D"/>
<path d="M30.8281 49.4891C30.8322 48.8296 30.6943 46.7935 30.8281 46.3511C31.0562 47.2797 31.0562 48.5605 30.8281 49.4891Z" fill="#E5B72C"/>
<path d="M37.2419 27.7987C37.0138 27.0162 37.0124 25.8637 37.2419 25.0703C37.2391 25.9784 37.2419 26.8906 37.2419 27.7987Z" fill="#97833D"/>
<path d="M37.2408 38.166C36.9881 37.3918 37.1056 36.4017 37.1042 35.5742H37.2408C37.2312 36.4332 37.279 37.3085 37.2408 38.166Z" fill="#B39837"/>
<path d="M38.1964 27.5256C38.0284 27.3603 37.9738 25.3243 38.0598 25.0703C38.3698 25.8009 38.1158 26.7445 38.1964 27.5256Z" fill="#C8A433"/>
<path d="M66.8444 21.2495H66.7079C66.7024 20.5258 66.7256 19.7829 66.7079 19.0674C66.9605 19.6778 66.8431 20.5572 66.8444 21.2495Z" fill="#B39837"/>
<path d="M30.8296 57.8107C30.8146 57.5854 30.8364 57.3546 30.8296 57.1279C31.0454 57.2181 31.0454 57.7206 30.8296 57.8107Z" fill="#E5B72C"/>
<path d="M29.464 27.662L29.1909 27.7986C29.1923 27.789 28.9697 27.7494 29.0544 27.6634C29.1923 27.5241 29.4436 27.6661 29.464 27.662Z" fill="#FBE42A"/>
<path d="M99.2218 27.0866C99.4048 27.1139 99.5345 27.0975 99.6041 27.316L103.11 35.5462L106.656 27.0798L106.792 26.9814C106.855 26.9855 106.899 27.0866 106.93 27.0866H110C110.104 28.0015 109.375 27.6396 109.04 27.9687C108.669 28.3333 109.018 30.6452 109.043 31.2488C109.121 33.1087 109.022 35.4397 109.33 37.2368C109.366 37.4552 109.429 37.7775 109.59 37.9305C110.015 38.3306 110.613 37.7693 110.408 38.8194C110.227 38.8235 110.044 38.8153 109.862 38.8194C108.983 38.5914 107.74 38.5914 106.861 38.8194C106.372 38.8017 105.824 39.012 106.056 38.3565C106.136 38.1339 106.933 38.0547 107.134 37.7284L107.268 37.8663C107.218 37.4894 107.419 36.9336 107.134 36.6373V29.408C107.019 29.3835 106.863 30.0526 106.861 30.0895C106.685 29.8054 106.373 30.4991 106.331 30.5838C105.483 32.3358 104.806 34.2626 104.019 36.0487C103.862 36.4065 102.846 38.788 102.696 38.8222C102.466 38.8741 102.166 38.4002 102.059 38.2336C100.959 36.5253 100.036 33.4951 99.0647 31.5424C99.0019 31.4154 98.5076 30.2438 98.2659 30.5005C98.2686 30.8473 98.1498 31.1723 98.1239 31.5178C98.0174 32.9093 97.8808 35.6459 97.9873 36.9841C98.0037 37.1821 98.0556 37.7106 98.1607 37.8335C98.2659 37.9564 98.7042 37.951 98.6742 38.1394C98.6715 38.1599 98.5445 38.2008 98.5349 38.2732C98.9555 38.2309 99.0019 38.2582 98.9473 38.6856H98.8107C97.8412 38.3743 96.6859 38.6324 95.6727 38.5491C95.6645 38.5122 95.6686 38.4521 95.6727 38.4125C97.2117 38.3456 97.2199 36.7342 96.9003 35.5476C96.9085 35.4574 96.8921 35.3646 96.9003 35.2745C97.3141 35.3509 97.1625 35.0669 97.1734 34.8033C97.2513 32.9967 97.706 30.2123 97.437 28.53C97.2813 27.5509 96.3118 27.9278 96.0824 27.2259C96.2654 27.0675 98.7862 27.4457 99.219 27.0893L99.2218 27.0866Z" fill="#E5BA2E"/>
<path d="M133.189 38.0001C133.233 37.8813 133.394 37.7694 133.426 37.6274C133.812 35.8521 133.74 31.3909 133.604 29.4682C133.561 28.8578 133.555 28.0767 132.918 27.8309C132.329 27.6042 132.3 28.0207 132.371 26.9501C132.519 26.8982 132.669 27.0866 132.711 27.0866H136.872C136.718 28.0343 136.648 27.6151 136.087 27.8691C135.724 28.033 135.669 28.9165 135.639 29.333C135.578 30.1946 135.695 31.1287 135.645 31.9985H140.828V28.3839C140.828 28.3115 140.57 27.9797 140.473 27.9196C139.906 27.5687 139.587 28.1408 139.737 26.9514C139.785 26.8832 139.912 27.088 139.941 27.088H144.238C144.1 27.2464 144.136 27.6998 144.085 27.753C143.832 28.0138 143.17 27.387 143.012 28.9315C142.819 30.8214 142.816 35.0901 143.009 36.9787C143.064 37.5113 143.18 37.7939 143.555 38.1381C143.801 38.3634 144.103 38.1654 143.965 38.8208C143.914 38.8427 143.778 38.8127 143.692 38.8208V38.6843L143.828 38.5491L139.872 38.5464L140.419 38.2651C140.404 38.2036 140.281 38.149 140.282 38.1381C140.3 38.0261 140.592 37.9196 140.677 37.783C141.09 37.1098 140.696 34.2831 140.95 33.2849C140.987 33.1688 140.825 32.9544 140.76 32.9544H135.645V36.9787C135.645 37.5236 136.278 38.5313 136.871 38.1381V38.8208C136.736 38.8263 136.599 38.8154 136.463 38.8208V38.6843C135.258 38.3702 133.887 38.6338 132.643 38.5477C132.539 38.1312 133.098 38.2487 133.326 38.1326C133.312 38.0698 133.185 38.0111 133.188 38.0029L133.189 38.0001ZM136.669 38.5464V38.6829C136.757 38.6379 136.757 38.5914 136.669 38.5464Z" fill="#E5BA2E"/>
<path d="M158.977 38.8194C158.589 38.7716 158.501 38.5777 158.701 38.2295C158.873 37.9304 159.638 38.5149 159.793 36.9759C159.998 34.9521 159.949 31.1258 159.8 29.0611C159.786 28.8645 159.705 28.1872 159.627 28.0752C159.449 27.8239 158.609 27.8034 158.566 27.7693C158.54 27.7475 158.684 27.2463 158.567 27.0879H164.502C164.711 27.0879 166.028 27.518 166.255 27.6532C168.089 28.7429 168.116 31.5628 166.214 32.6211C165.968 32.7577 165.194 32.8765 165.268 33.14L168.521 37.9386C169.087 38.4329 169.666 37.6887 169.479 38.8207H167.092C165.697 38.8207 163.876 34.6913 163.147 33.6262C162.695 33.3012 162.336 33.5743 161.977 33.6371C161.932 33.6453 161.883 33.6275 161.84 33.6371C161.833 33.6385 161.741 33.3708 161.704 33.5688L161.706 37.1834L161.842 37.0469H161.978C161.975 37.137 161.984 37.2299 161.978 37.32C161.975 37.3582 161.775 37.5125 161.842 37.7952C162.004 38.0752 162.1 37.8567 162.115 37.8662C162.474 38.0683 162.695 38.1243 163.002 38.2677C163.9 38.6869 162.879 38.803 162.388 38.8221C161.594 38.5804 160.572 38.6746 159.725 38.6828C159.494 38.6856 159.119 38.5954 158.977 38.8221V38.8194ZM161.842 28.1776C161.683 28.3824 161.715 28.4057 161.698 28.646C161.611 29.9296 161.777 31.3143 161.705 32.6102C161.754 32.8096 161.835 32.5446 161.842 32.5419C161.877 32.5324 161.932 32.5419 161.978 32.5419C161.902 32.9489 162.187 32.8109 162.449 32.815C163.262 32.826 164.45 32.6662 165.07 32.0886C165.182 31.9834 165.415 31.6215 164.978 31.7226C165.754 30.9128 165.697 29.6852 164.895 28.8727C164.033 27.9974 163.118 28.1653 161.977 28.1762C161.907 28.1762 161.981 27.9946 161.84 28.1762L161.842 28.1776Z" fill="#E5BA2E"/>
<path d="M129.235 44.0029C133.43 44.007 134.479 48.7988 130.327 49.9363C131.2 50.7925 133.1 54.5832 134.013 54.9834C134.566 55.2251 134.808 54.7102 134.692 55.7358C133.919 55.4149 132.985 55.7153 132.178 55.591C131.23 55.4449 130.672 54.3538 130.188 53.6246C129.84 53.0975 128.626 50.7351 128.36 50.5412C128.118 50.365 127.437 50.3118 127.251 50.5508C127.158 50.6696 127.221 50.8553 127.189 50.9618C126.99 51.6473 126.944 53.6711 127.112 54.3825C127.165 54.6078 127.326 54.9397 127.52 55.0653C127.925 55.3261 128.504 54.9738 128.416 55.464H123.915C123.867 54.6625 123.935 55.0298 124.498 54.885C125.099 54.7307 124.973 54.3538 125.006 53.8267H125.142V46.0513H125.006V45.6416L125.14 45.094C125.069 45.1049 125.026 45.2292 125.006 45.2319C124.811 45.2579 124.895 45.0599 124.869 44.9588C124.868 44.9506 124.996 44.8892 124.949 44.8236C124.756 44.5601 124.2 44.5765 123.915 44.4126C123.915 44.3211 123.915 44.231 123.915 44.1395C125.533 44.1327 127.154 44.1436 128.773 44.149C129.025 44.149 129.21 44.0029 129.235 44.0029ZM127.189 49.4597C128.94 49.5771 130.747 49.3887 130.748 47.2093C130.748 45.1882 128.847 44.7868 127.189 44.9588V49.461V49.4597Z" fill="#E6B92E"/>
<path d="M171.664 37.9999C171.698 37.9699 171.895 37.9972 171.997 37.8607C172.134 37.679 172.186 37.3417 172.209 37.1123C172.408 35.1732 172.41 30.7297 172.209 28.792C172.052 27.2694 170.944 28.2867 170.981 27.0864H179.303V29.8148C178.762 29.9978 178.618 29.4761 178.485 28.9968C178.48 28.975 178.781 29.016 178.493 28.6486C178.361 28.4807 177.787 28.1529 177.562 28.0778C177.047 27.9085 174.693 27.7405 174.393 28.0409C174.259 28.1748 174.27 28.1775 174.249 28.3673C174.11 29.6182 174.367 31.1244 174.257 32.4053C175.186 32.0393 176.599 32.6183 177.334 31.8686C177.557 31.6405 177.64 31.2008 177.671 31.179C177.693 31.1626 178.213 31.2869 178.213 31.3142V34.3157C177.421 34.4932 177.779 33.9538 177.402 33.5578C177.319 33.4704 176.86 33.2246 176.781 33.2246H174.257V37.7268H176.781C177.312 37.7268 178.343 37.2052 178.765 36.846C178.988 36.6562 179.012 36.3954 179.306 36.2261C179.313 36.222 179.352 36.3572 179.416 36.3408L179.714 36.0909L179.441 38.5448H171.257C171.151 38.1146 171.506 38.3591 171.627 38.2403C171.705 38.1652 171.649 38.015 171.666 38.0013L171.664 37.9999Z" fill="#E6B92E"/>
<path d="M121.576 46.8476C121.53 46.9213 120.957 47.0483 120.915 47.0046C120.615 44.025 115.992 44.268 114.502 46.2536C113.361 47.7762 113.365 51.5861 114.442 53.1346C115.659 54.8825 118.834 55.5625 120.372 53.8966C120.962 53.2575 120.949 52.2634 121.868 52.4614C121.538 52.9147 121.639 54.9904 121.374 55.2034C120.376 56.005 116.941 55.9449 115.701 55.6936C109.012 54.3404 109.888 44.07 117.299 43.7314C117.945 43.7013 121.256 43.9567 121.441 44.4975C121.479 44.6094 121.637 46.7465 121.576 46.8462V46.8476Z" fill="#E7BD2F"/>
<path d="M101.542 45.7768C101.515 45.5119 101.581 45.0599 101.374 44.8537C100.976 44.4549 100.214 45.1213 100.451 44.0029H108.636V46.7313C107.902 46.8965 108.127 46.3749 107.795 45.8669C107.33 45.1541 106.8 45.1404 106.045 45.094V44.9575L106.316 44.8223C105.489 44.9015 104.504 44.6461 103.724 44.9575C103.72 45.0025 103.729 45.0489 103.724 45.094C103.592 46.3831 103.823 47.8743 103.724 49.1866H105.975C106.826 49.1866 106.776 48.0422 107.544 48.232V51.2335C106.802 51.564 106.931 50.1425 106.248 50.1425H103.724V54.6447C103.823 54.941 105.774 54.7061 106.18 54.7799L105.771 54.5081C106.584 54.4098 107.014 54.4904 107.776 53.9879C108.21 53.7025 108.927 52.3096 109.303 52.8886C109.437 53.0948 109.016 54.8222 108.909 55.1896L108.773 55.1226C108.754 55.2182 108.804 55.4313 108.773 55.464C108.49 55.7604 101.575 55.1363 100.586 55.5992C100.343 55.5023 100.47 55.1486 100.45 54.9192C100.756 54.9752 100.992 54.8577 101.268 54.7813C101.29 54.7758 101.463 54.9806 101.616 54.6406C101.754 54.3347 101.542 54.2719 101.541 54.235C101.538 54.1449 101.535 54.052 101.541 53.9619C101.955 54.0384 101.803 53.753 101.814 53.4908C101.918 50.8594 101.736 48.2061 101.814 45.572L101.541 45.7768H101.542Z" fill="#E5BA2E"/>
<path d="M146.425 38.8195C146.199 38.8086 145.969 38.829 145.742 38.8195C145.641 37.8595 145.818 38.2869 146.282 38.0657C146.468 37.9769 146.622 37.7284 146.724 37.5495L150.738 26.9419L152.141 26.9637L155.908 37.0443C155.888 37.3665 156.631 38.0439 156.657 38.1367C156.66 38.1463 156.532 38.2036 156.521 38.2623L157.067 38.545C155.819 38.5832 154.558 38.4972 153.309 38.545C153.047 38.5559 152.761 38.4044 152.838 38.8181C152.64 38.7239 152.663 38.1736 152.7 38.1367C152.79 38.0466 153.78 38.4112 153.801 37.5277C153.809 37.1767 153.062 35.1885 152.836 34.8621C152.816 34.8321 152.858 34.7351 152.836 34.7256C151.749 34.4128 150.488 34.6737 149.358 34.589C149.143 34.7693 149.461 34.7215 149.563 34.7256V34.8621C149.35 34.8785 149.118 34.7925 148.947 34.9959C148.863 35.097 148.213 37.3515 148.217 37.5263C148.24 38.4549 149.328 38.0357 149.427 38.1353V38.8195C149.063 38.825 148.697 38.8099 148.334 38.8195C147.877 38.5928 146.91 38.5887 146.424 38.8195H146.425ZM149.29 33.771C149.264 33.8721 149.037 33.8407 149.29 34.0441C149.565 34.2654 152.144 34.2722 152.428 34.0441C152.455 34.0223 152.544 34.0537 152.557 33.9595C152.566 33.842 152.436 33.7983 152.428 33.771C152.025 32.4055 151.304 31.0631 150.926 29.6785C150.66 29.7822 150.557 30.1236 150.452 30.3626C150.056 31.2625 149.537 32.811 149.29 33.771Z" fill="#E5BA2E"/>
<path d="M129.918 29.6785C128.975 29.7672 129.375 29.6402 129.171 29.1336C128.314 27.0034 124.088 27.5728 125.256 30.1796C125.968 31.7664 129.464 32.0573 130.314 34.1247C130.876 35.4875 130.525 37.0088 129.445 38.0029C127.869 39.4531 124.983 39.0434 123.117 38.3893L122.961 35.9518C123.859 35.8125 123.559 36.1089 123.862 36.6196C125.034 38.6037 129.036 38.6119 128.546 35.6173C128.349 34.4142 125.053 33.4064 124.047 32.3413C121.972 30.1482 123.504 27.1522 126.319 26.8245C126.804 26.7685 129.92 26.9446 129.92 27.4239V29.6744L129.918 29.6785Z" fill="#E7BD2F"/>
<path d="M97.8462 44.1518C97.7082 44.9096 98.3555 46.7955 97.1784 46.5947C97.3505 44.332 93.0845 44.0261 93.0722 46.252C93.0572 48.908 98.1958 48.7045 98.5412 51.8453C99.0055 56.0594 94.0117 56.5483 91.0566 55.3056C91.159 54.9219 90.7589 53.0224 90.9092 52.8763C90.9337 52.8517 91.5578 52.707 91.581 52.7315C91.6138 52.7643 91.7053 53.3215 91.8773 53.5973C92.7608 55.012 95.5438 55.5432 96.3837 53.9196C97.543 51.6801 94.4377 50.9782 93.0954 50.0605C91.4731 48.9517 90.3943 47.2188 91.6042 45.3207C92.937 43.2286 95.7937 43.652 97.8448 44.1518H97.8462Z" fill="#E7BD2F"/>
<path d="M166.057 44.1516C165.919 44.9108 166.568 46.7939 165.389 46.5946C165.751 44.5408 161.87 44.1311 161.387 45.6605C160.435 48.6757 166.069 48.6429 166.692 51.6335C167.129 53.7255 165.565 55.5581 163.512 55.8353C162.61 55.9568 160.059 55.8462 159.33 55.3123C158.912 55.0064 159.213 53.4592 158.977 52.8693C160.002 52.6153 159.542 52.9212 159.953 53.5985C161.156 55.5908 165.594 55.3737 164.646 52.3149C164.208 50.8974 159.849 50.2474 159.419 47.7198C159.075 45.696 160.338 44.0355 162.355 43.7624C163.528 43.604 164.904 43.9099 166.058 44.1489L166.057 44.1516Z" fill="#E7BD2F"/>
<path d="M137.283 54.7799C137.363 54.4248 137.531 54.2255 137.561 53.7625C137.696 51.6814 137.781 47.7186 137.556 45.7085C137.518 45.3671 137.41 44.8236 137.048 44.7116C136.532 44.5519 136.422 44.9097 136.328 44.0029H144.513C144.42 44.3525 145.043 47.3335 144.112 46.7258C144.037 46.6767 143.619 45.602 143.149 45.2306C142.962 45.0831 142.45 44.8209 142.263 44.8209H139.671C139.656 44.8209 139.466 45.0107 139.466 45.0257V49.2548C139.466 49.5116 140.961 49.487 141.103 49.1866H141.377C141.539 49.4337 141.946 49.2999 142.197 49.3204C142.182 49.2548 142.061 49.2057 142.059 49.1866C142.048 49.05 142.517 48.9845 142.689 48.7906C142.931 48.5188 142.767 48.004 143.424 48.2321C143.342 49.1989 143.598 50.3118 143.287 51.2335C142.685 50.985 142.972 50.7187 142.741 50.4156C142.679 50.2544 142.562 50.0701 142.468 50.279C142.434 50.2613 142.373 50.294 142.331 50.279C142.412 49.913 142.148 50.0032 141.904 49.9636C141.213 49.8502 140.275 49.7369 139.603 50.0059C139.599 50.051 139.607 50.0974 139.603 50.1425C139.465 50.1875 139.48 50.2012 139.462 50.3405C139.298 51.6282 139.488 53.4812 139.603 54.7813H141.99C142.083 54.7813 143.251 54.4658 143.389 54.4016C143.589 54.3074 143.613 54.1627 143.695 54.0998C143.896 53.9455 144.08 53.8322 144.24 53.6219C144.673 53.0497 144.378 52.5254 145.334 52.8736C145.244 53.144 145.236 53.4143 145.196 53.6915C144.885 53.514 144.795 54.4167 144.781 54.7225C144.767 55.0284 144.922 55.038 144.923 55.0557C144.927 55.0994 144.923 55.1472 144.923 55.1923C144.653 55.165 144.698 55.4435 144.453 55.475C142.152 55.7767 139.179 55.2278 136.802 55.4654L136.601 54.9192C136.639 54.911 136.697 54.9164 136.738 54.9192C136.85 54.9246 137.101 55.1445 137.422 54.9137C137.412 54.8441 137.281 54.7922 137.284 54.7826L137.283 54.7799Z" fill="#E6B92E"/>
<path d="M113 38.1367C113.727 37.6997 113.734 37.6232 113.817 36.7015C113.99 34.776 113.964 31.414 113.825 29.4681C113.79 28.9656 113.712 27.9564 113.239 27.7325C112.823 27.5359 112.469 27.839 112.591 27.2231L120.504 27.4266V29.677C120.209 29.4545 120.18 29.0284 119.896 28.7157C119.059 27.7939 117.624 27.8868 116.478 27.9005C116.248 27.9032 115.872 27.8131 115.73 28.0397V28.1763C115.686 28.1831 115.639 28.1708 115.594 28.1763C115.368 28.3183 115.457 28.6938 115.454 28.9246C115.443 30.002 115.353 31.2365 115.594 32.2689C115.639 32.273 115.685 32.2648 115.73 32.2689C116.327 32.3303 118.29 32.3453 118.697 31.9616C118.848 31.8196 118.975 31.2024 119.009 31.1778C119.031 31.1614 119.55 31.287 119.55 31.3157V34.3172C118.788 34.4497 119.103 34.1192 118.854 33.7191C118.721 33.5033 118.337 33.3395 118.322 33.2261C118.322 33.2166 118.448 33.1578 118.46 33.0923C117.6 32.9967 116.575 32.7687 115.73 33.0896C115.721 33.0909 115.614 33.2015 115.594 33.2261C115.428 33.4269 115.467 33.4542 115.449 33.6918C115.353 34.9454 115.535 36.3246 115.458 37.5918C115.565 37.6259 115.562 37.4634 115.594 37.4552C115.636 37.4443 115.686 37.4634 115.73 37.4552C115.68 37.8991 117.385 37.7693 117.843 37.7256C118.886 37.6273 119.797 37.2053 120.432 36.3573C120.557 36.1894 120.624 35.8371 120.647 35.8193C120.675 35.7988 121.299 35.9313 121.322 35.9559C121.42 36.0624 120.833 38.4166 120.911 38.8181C120.776 38.8331 120.639 38.8153 120.504 38.8181V38.6815C120.606 38.6774 120.925 38.7238 120.709 38.545H112.593C112.511 38.2104 112.775 38.2732 113.002 38.1367H113Z" fill="#E5B72C"/>
<path d="M77.2575 28.3143L77.5293 28.9957L77.532 27.0867C77.5811 27.0184 77.7054 27.2232 77.7355 27.2232H87.2848C87.3257 27.2232 87.3899 27.0512 87.4896 27.0867V29.542H87.2179L87.2151 29.1296C87.1455 29.1377 87.0909 29.2702 87.0813 29.2688C87.0103 29.262 86.4846 28.4755 86.0681 28.3034C85.3252 27.9961 84.3243 28.0439 83.5336 28.0398C83.7726 31.0605 83.1553 34.656 83.6702 37.5905C83.6756 37.6206 83.3875 37.7285 83.7985 38.0767L84.7612 38.5451C83.5582 38.5614 82.3497 38.5287 81.1452 38.5451C80.9145 38.5478 80.5389 38.4577 80.3969 38.6843C80.3355 38.6898 80.2754 38.7567 80.2604 38.8209C80.1702 38.8168 80.0774 38.8291 79.9873 38.8209C80.0118 38.6639 79.9449 38.3962 79.9873 38.2747C80.5089 38.4358 81.3733 38.2132 81.4702 37.6219C81.503 37.4185 81.3514 37.3365 81.3514 37.3202C81.3555 37.23 81.346 37.1372 81.3514 37.047C81.7229 37.2901 81.6082 37.1795 81.6246 36.8449C81.7638 33.9718 81.5208 30.9963 81.6246 28.1122C81.6013 27.9388 81.3965 28.1887 81.3514 28.1805C80.0665 27.9524 79.0955 27.9538 78.0768 28.8633C78.0714 28.8687 77.9853 28.7472 77.9376 28.7964C77.7409 28.993 77.6959 29.404 77.6658 29.6826L77.2575 29.1377C77.2534 28.866 77.252 28.5915 77.2575 28.3198V28.3143Z" fill="#E6B92D"/>
<path d="M148.333 45.2306C148.322 45.2333 148.235 45.1008 148.15 45.124C147.663 45.2565 147.493 46.1919 147.105 46.4582V44.0029L156.849 44.0193C157.336 44.1381 156.917 46.0458 156.927 46.4582C156.655 46.2793 156.611 45.8642 156.382 45.5733C155.811 44.8523 153.463 44.4659 152.972 44.9588C152.79 45.1404 152.845 45.2019 152.827 45.4245C152.613 48.0955 153.003 51.0546 152.834 53.7584C153.014 53.9742 152.966 53.656 152.971 53.5536H153.107C153.136 54.0834 153.021 54.6338 153.651 54.8577C153.858 54.9315 154.048 54.8809 154.2 54.9178C154.051 55.1063 153.738 54.9629 153.791 55.1896H154.337V55.464H149.699V55.1923C150.137 55.2223 150.599 55.0707 150.79 54.6461C150.965 54.2582 150.906 53.8254 150.926 53.4184H151.063L151.199 53.6233V45.0298C151.005 44.8086 151.066 45.1814 151.063 45.3002C151.048 45.8232 151.067 46.3503 151.063 46.872H150.926C150.921 46.237 150.93 45.5965 150.926 44.9615C149.974 44.8564 149.229 45.0298 148.333 45.2347V45.2306Z" fill="#E5B72C"/>
<path d="M90.2192 28.7241C90.1782 28.4837 90.2998 28.212 90.0963 27.9593C89.7877 27.5756 88.8809 28.0563 89.1281 26.9502C90.4964 27.2779 91.963 27.0007 93.3504 27.0062C93.6809 27.0075 93.73 27.4268 93.5716 27.6425C93.4132 27.8583 92.9271 27.6371 92.6827 27.9812C92.5693 28.141 92.4437 28.8429 92.4177 29.0805C92.2115 30.9827 92.2662 34.4853 92.3945 36.4367C92.4191 36.8095 92.6226 38.2433 93.0377 38.2788C93.405 38.3102 93.7369 37.8077 93.629 38.5451H89.2633C89.4012 38.186 89.8437 38.3403 90.1004 38.0726C90.3025 37.861 90.0772 37.7463 90.0826 37.7258C90.1086 37.6056 90.1946 37.4786 90.2192 37.3161C90.633 37.3926 90.4814 37.1072 90.4923 36.845C90.592 34.3406 90.5934 31.4278 90.4923 28.9248C90.4786 28.5889 90.5879 28.4796 90.2192 28.7227V28.7241Z" fill="#E6B92E"/>
<path d="M113.545 29.6782C113.529 29.1948 113.655 28.1966 113.182 27.9262C112.732 27.6681 112.334 27.9918 112.316 27.0864H120.638C120.504 27.5043 120.943 29.6537 120.773 29.8148C120.735 29.8517 120.334 29.823 120.223 29.752C119.995 29.6031 120.16 28.9053 119.319 28.4738C118.866 28.2403 118.642 28.2567 118.181 28.1789C118.138 28.172 118.034 28.0546 117.851 28.0368C117.175 27.9727 116.413 28.0942 115.726 28.0423C115.868 27.8156 116.244 27.9058 116.475 27.903C117.622 27.888 119.057 27.7951 119.893 28.7183C120.177 29.031 120.205 29.457 120.5 29.6796V27.4292L112.587 27.2257C112.465 27.8416 112.819 27.5384 113.235 27.7351C113.707 27.9576 113.784 28.9682 113.821 29.4707C113.961 31.4166 113.986 34.7786 113.813 36.704C113.73 37.6258 113.723 37.7023 112.996 38.1392V38.0027C113.722 37.563 113.515 36.6958 113.543 35.9557V29.6796L113.545 29.6782Z" fill="#F6DA31"/>
<path d="M148.333 45.2304C147.475 45.4994 147.754 46.7844 146.969 46.7311V43.8662H157.201V46.7311C156.427 46.9141 156.651 46.2764 156.309 45.7821C155.676 44.8658 153.96 44.9628 152.973 44.9587C153.465 44.4657 155.812 44.8521 156.383 45.5732C156.612 45.864 156.657 46.2791 156.928 46.458C156.918 46.0443 157.339 44.138 156.85 44.0192L147.107 44.0028V46.458C147.494 46.1917 147.665 45.2563 148.151 45.1239C148.236 45.1007 148.323 45.2331 148.334 45.2304H148.333Z" fill="#F6DA31"/>
<path d="M77.2557 28.3142C77.2639 27.8608 77.2489 27.402 77.2557 26.9486L87.5356 26.9404C87.8716 27.0032 87.5438 29.4421 87.623 29.8136L87.0782 29.2673C87.0877 29.2673 87.1424 29.1362 87.212 29.128L87.2147 29.5404H87.4865V27.0838C87.3868 27.0469 87.324 27.2204 87.2816 27.2204H77.7323C77.7036 27.2204 77.578 27.0169 77.5289 27.0838L77.5261 28.9929L77.2544 28.3114L77.2557 28.3142Z" fill="#FADE2A"/>
<path d="M179.302 36.2265C179.25 35.683 179.976 35.7622 179.997 36.1568C180.036 36.9188 179.516 38.0031 179.571 38.8169C179.482 38.8333 179.39 38.8128 179.302 38.8169C179.16 38.5902 178.784 38.6804 178.553 38.6776C177.599 38.6654 176.639 38.6681 175.684 38.6776C175.453 38.6804 175.078 38.5902 174.936 38.8169C174.891 38.8169 174.844 38.8169 174.799 38.8169C173.871 38.5889 172.59 38.5889 171.661 38.8169C171.435 38.806 171.205 38.8265 170.979 38.8169C170.879 37.973 171.015 38.2134 171.661 37.9976C171.646 38.0113 171.701 38.1615 171.623 38.2366C171.502 38.3554 171.145 38.1109 171.253 38.5425H179.437L179.71 36.0886L179.412 36.3385C179.348 36.3562 179.308 36.221 179.302 36.2237V36.2265Z" fill="#F6DA31"/>
<path d="M101.54 45.7771L101.813 45.5723C101.733 48.2064 101.916 50.8597 101.813 53.4911C101.802 53.7533 101.953 54.0387 101.54 53.9622C101.593 52.9954 101.542 52.2963 101.54 51.3704C101.768 50.394 101.768 49.0735 101.54 48.0958C101.531 47.3038 101.624 46.5787 101.54 45.7771Z" fill="#FBE42A"/>
<path d="M127.187 50.9604C127.413 52.2808 126.413 55.2004 128.551 55.0543C128.528 55.2782 128.658 55.6524 128.415 55.7357C127.43 55.4954 126.238 55.5855 125.207 55.5964C124.976 55.5991 124.601 55.509 124.459 55.7357C124.277 55.7275 124.093 55.7453 123.913 55.7357C123.904 55.6456 123.92 55.5541 123.913 55.4626H128.414C128.502 54.971 127.923 55.3233 127.518 55.0625C127.322 54.9369 127.161 54.605 127.109 54.3797C126.941 53.6696 126.988 51.6445 127.187 50.959V50.9604Z" fill="#FBE42A"/>
<path d="M136.604 54.9165L136.804 55.4627C139.182 55.2251 142.153 55.7741 144.456 55.4723C144.701 55.4395 144.655 55.1623 144.925 55.1896C144.921 55.3234 144.916 55.4477 144.79 55.5324C144.669 55.6307 144.486 55.5679 144.379 55.5993C142.608 55.6047 140.83 55.5911 139.059 55.5993C138.605 55.602 136.526 55.7946 136.329 55.5993C136.247 55.5173 136.315 54.9821 136.604 54.9179V54.9165Z" fill="#FBE42A"/>
<path d="M81.3515 28.1775C81.3966 28.1857 81.6014 27.9358 81.6246 28.1093C81.5208 30.9933 81.7625 33.9689 81.6246 36.842C81.6082 37.1765 81.7229 37.2885 81.3515 37.0441C81.372 36.6972 81.4785 36.2944 81.4881 35.953C81.5099 35.1378 81.4826 34.313 81.4881 33.4977C81.4976 32.1322 81.5686 30.6983 81.4935 29.3314C81.4717 28.9409 81.3064 28.5735 81.3515 28.1775Z" fill="#FBE42A"/>
<path d="M99.2212 27.0865C98.7883 27.4429 96.2675 27.066 96.0845 27.223C96.3153 27.9236 97.2835 27.548 97.4392 28.5271C97.7068 30.2095 97.2534 32.9939 97.1756 34.8005C97.1647 35.0627 97.3149 35.3467 96.9025 35.2716C97.0459 33.637 97.2698 31.9274 97.3108 30.2914C97.3258 29.7124 97.4323 28.4302 96.9776 28.0355C96.4546 27.5808 95.7131 28.1598 95.9466 27.0865C96.9598 27.1957 98.2489 26.9404 99.2212 27.0865Z" fill="#F6DA31"/>
<path d="M152.971 47.6859C152.943 49.6345 153.048 51.6064 152.971 53.5523C152.967 53.6547 153.015 53.9729 152.835 53.7572C153.004 51.0534 152.613 48.0942 152.828 45.4232C152.846 45.2006 152.791 45.1391 152.973 44.9575C153.161 45.8697 152.986 46.7628 152.973 47.6859H152.971Z" fill="#FBE42A"/>
<path d="M150.789 54.6436C150.598 55.0682 150.136 55.2198 149.696 55.1898V55.4615H154.335V55.1898L153.79 55.1884C153.737 54.9617 154.05 55.1051 154.199 54.9167C154.623 55.0191 154.778 55.3373 154.335 55.5994C153.61 55.6104 152.878 55.5844 152.153 55.5994C151.281 55.6172 150.427 55.6595 149.56 55.736C149.586 55.568 149.52 54.9549 149.56 54.9167C149.606 54.8716 150.565 54.9686 150.789 54.6449V54.6436Z" fill="#FBE42A"/>
<path d="M112.999 38.1366C112.773 38.2731 112.509 38.2103 112.591 38.5449H120.707C120.922 38.7251 120.605 38.6773 120.502 38.6814C118.131 38.7756 115.715 38.6541 113.338 38.6787C113.107 38.6814 112.732 38.5913 112.59 38.818C112.119 38.0396 112.62 38.2294 112.999 38V38.1366Z" fill="#FADE2A"/>
<path d="M90.2188 28.7238C90.5874 28.4807 90.4782 28.5899 90.4919 28.9259C90.5929 31.4303 90.5915 34.3417 90.4919 36.8461C90.4809 37.1096 90.6325 37.3937 90.2188 37.3172C90.5233 35.3426 90.5547 30.6792 90.2188 28.7224V28.7238Z" fill="#FBE42A"/>
<path d="M108.908 55.19C108.879 55.2896 108.947 55.4658 108.902 55.5901C108.497 55.6174 108.087 55.5928 107.68 55.5996C106.727 55.6146 105.768 55.5914 104.815 55.5996C104.679 55.5996 104.542 55.5996 104.405 55.5996C103.544 55.5969 102.675 55.6037 101.814 55.5996C101.456 55.5983 100.971 55.7526 100.586 55.5996C101.575 55.1367 108.488 55.7608 108.772 55.4644C108.804 55.4317 108.753 55.22 108.772 55.123L108.909 55.19H108.908Z" fill="#FBE42A"/>
<path d="M107.133 36.3625C107.133 34.4124 106.723 31.8875 106.86 30.0864C106.863 30.0495 107.017 29.3804 107.132 29.405V36.3625H107.133Z" fill="#FADE2A"/>
<path d="M83.6691 37.5902C83.7729 37.806 83.9791 38.0054 84.2072 38.075C84.879 38.2826 85.1562 37.7923 85.0333 38.8192C84.8981 38.8247 84.7602 38.8138 84.6237 38.8192C84.4816 38.5926 84.1061 38.6827 83.8753 38.6799C82.802 38.6663 81.4283 38.583 80.3945 38.6827C80.5365 38.456 80.9121 38.5461 81.1429 38.5434C82.3473 38.5284 83.5558 38.5598 84.7588 38.5434L83.7961 38.075C83.3851 37.7268 83.6732 37.6189 83.6678 37.5889L83.6691 37.5902Z" fill="#F6DA31"/>
<path d="M120.502 38.6828V38.8193C117.872 38.9026 115.221 38.7579 112.59 38.8193C112.732 38.594 113.107 38.6828 113.338 38.68C115.716 38.6554 118.133 38.7756 120.502 38.6828Z" fill="#C8A433"/>
<path d="M125.14 53.8253H125.004C125.158 51.3495 125.004 48.5624 125.004 46.0498H125.14V53.8253Z" fill="#97833D"/>
<path d="M143.148 45.2306C142.791 45.1336 142.413 45.1432 142.057 45.094C141.381 45.0012 140.647 44.8632 139.935 44.952C139.801 44.9684 139.616 44.9056 139.601 45.094C139.712 46.4623 139.566 47.8101 139.601 49.1879C140.1 49.1879 140.604 49.1879 141.102 49.1879C140.96 49.4884 139.465 49.5129 139.465 49.2562V45.0271C139.465 45.0121 139.655 44.8223 139.67 44.8223H142.261C142.45 44.8223 142.962 45.0831 143.148 45.2319V45.2306Z" fill="#FADE2A"/>
<path d="M151.062 53.416H150.926C151.03 51.3076 150.946 48.9943 150.926 46.8682H151.062C151.046 49.049 151.075 51.2366 151.062 53.416Z" fill="#C8A433"/>
<path d="M113.547 35.9548C113.619 33.9461 113.615 31.6888 113.547 29.6787V35.9548Z" fill="#E5B72C"/>
<path d="M153.11 53.5525H152.974C153.05 51.6065 152.945 49.6347 152.974 47.686C153.201 47.8281 153.11 48.2036 153.113 48.4344C153.134 50.1154 153.019 51.8892 153.11 53.5525Z" fill="#97833D"/>
<path d="M133.189 37.9999C133.187 38.0095 133.312 38.0668 133.327 38.1296C133.101 38.2457 132.541 38.1283 132.645 38.5448C133.889 38.6308 135.26 38.3686 136.464 38.6813H132.371C132.137 37.9835 132.699 38.1542 133.189 37.9985V37.9999Z" fill="#F6DA31"/>
<path d="M156.656 38.1367H157.203C157.178 38.3607 157.31 38.7362 157.066 38.8195C156.034 38.5805 154.799 38.6693 153.722 38.6802C153.491 38.6829 153.115 38.5928 152.973 38.8195C152.924 38.8127 152.866 38.8332 152.837 38.8195C152.76 38.4057 153.046 38.5573 153.308 38.5464C154.557 38.4972 155.818 38.5833 157.066 38.5464L156.52 38.2637C156.531 38.205 156.659 38.1476 156.656 38.1381V38.1367Z" fill="#F6DA31"/>
<path d="M90.0834 37.7271C90.0793 37.7462 90.3046 37.8622 90.1011 38.0739C89.8444 38.3415 89.402 38.1872 89.264 38.545H93.6297C93.6229 38.5955 93.6434 38.6529 93.6297 38.6829H89.1275C89.0852 38.5559 89.1534 38.2965 89.1275 38.1367C89.6341 38.1299 89.9728 38.3142 90.0834 37.7284V37.7271Z" fill="#FADE2A"/>
<path d="M140.285 38.1366C140.283 38.1475 140.406 38.2022 140.421 38.2636L139.875 38.5449L143.831 38.5477L143.694 38.6828C142.495 38.7661 141.168 38.5067 140.011 38.8194C139.921 38.8153 139.83 38.8262 139.738 38.8194V38.1353H140.283L140.285 38.1366Z" fill="#FADE2A"/>
<path d="M129.234 44.0029C129.21 44.0029 129.024 44.1504 128.773 44.149C127.153 44.1436 125.532 44.1327 123.914 44.1395L129.234 44.0029Z" fill="#FBE42A"/>
<path d="M143.695 54.0985C143.612 54.1613 143.589 54.3061 143.389 54.4003C143.253 54.4645 142.083 54.7799 141.99 54.7799H139.603C139.489 53.4799 139.298 51.6268 139.462 50.3391C139.48 50.2012 139.463 50.1862 139.603 50.1411C139.509 51.0533 139.488 53.2778 139.596 54.1722C139.614 54.3183 139.59 54.4863 139.73 54.5833C140.208 54.9165 143.044 54.4194 143.695 54.0971V54.0985Z" fill="#FADE2A"/>
<path d="M95.6758 38.4099C95.729 37.8964 95.8792 38.2733 96.3545 38.0657C96.9198 37.8199 96.8502 36.1635 96.9034 35.5449C97.223 36.7316 97.2148 38.3429 95.6758 38.4099Z" fill="#F6DA31"/>
<path d="M93.6272 38.6826C93.5371 38.8724 93.4634 38.811 93.294 38.826C92.3969 38.9066 90.3267 38.9325 89.4582 38.826C89.3066 38.8069 89.1919 38.8847 89.125 38.684H93.6272V38.6826Z" fill="#C8A433"/>
<path d="M84.6235 38.8193C83.2361 38.8603 81.6357 38.8903 80.2578 38.8193C80.2715 38.7551 80.3329 38.6882 80.3944 38.6827C81.4281 38.583 82.8018 38.6677 83.8752 38.68C84.1059 38.6827 84.4815 38.5926 84.6235 38.8193Z" fill="#C8A433"/>
<path d="M179.303 38.8193C177.895 38.8944 176.36 38.8234 174.938 38.8193C175.08 38.594 175.455 38.6827 175.686 38.68C176.64 38.6704 177.6 38.6677 178.555 38.68C178.786 38.6827 179.161 38.5926 179.303 38.8193Z" fill="#C8A433"/>
<path d="M178.483 28.997C178.094 28.3006 177.43 28.2269 176.709 28.1791C176.078 27.8746 175.23 28.1163 174.527 28.0425H174.391C174.691 27.7421 177.045 27.9101 177.56 28.0794C177.785 28.1531 178.359 28.4822 178.491 28.6502C178.781 29.0175 178.478 28.9766 178.483 28.9984V28.997Z" fill="#F6DA31"/>
<path d="M117.776 33.2261C117.096 33.2261 116.409 33.2261 115.729 33.2261V37.4552C115.685 37.4634 115.635 37.4443 115.594 37.4552V33.2261C115.613 33.2015 115.721 33.0923 115.73 33.0895C116.181 32.9926 117.346 33.0513 117.777 33.2261H117.776Z" fill="#B39837"/>
<path d="M115.867 28.1776C115.561 29.483 115.81 30.9278 115.73 32.2701C115.685 32.266 115.639 32.2742 115.594 32.2701V28.1776C115.639 28.1721 115.687 28.1844 115.73 28.1776C115.774 28.1707 115.822 28.1789 115.867 28.1776Z" fill="#97833D"/>
<path d="M136.464 38.6826V38.8192C135.4 38.8506 133.704 38.9489 132.704 38.8246C132.553 38.8055 132.438 38.8834 132.371 38.6826H136.464Z" fill="#C8A433"/>
<path d="M157.065 38.8191C156.864 38.8874 153.365 38.8737 152.973 38.8191C153.115 38.5938 153.49 38.6826 153.721 38.6798C154.798 38.6689 156.033 38.5788 157.065 38.8191Z" fill="#C8A433"/>
<path d="M143.695 38.6829V38.8194C142.647 38.915 141.084 38.8727 140.012 38.8194C141.17 38.5067 142.497 38.7675 143.695 38.6829Z" fill="#C8A433"/>
<path d="M161.976 37.0454H161.84V33.6343C161.882 33.6247 161.931 33.6425 161.976 33.6343C161.952 34.7677 162.009 35.912 161.976 37.0454Z" fill="#C8A433"/>
<path d="M162.384 38.8195C161.418 38.855 159.888 38.9314 158.973 38.8195C159.115 38.5942 159.49 38.6829 159.721 38.6802C160.568 38.6706 161.589 38.5764 162.384 38.8195Z" fill="#C8A433"/>
<path d="M98.8125 38.6826H98.949V38.8192C98.213 38.897 96.7505 38.8929 96.0076 38.826C95.8287 38.8096 95.7837 38.8683 95.6758 38.6826H98.8138H98.8125Z" fill="#C8A433"/>
<path d="M143.422 48.2324C143.622 48.3021 143.545 48.414 143.564 48.5656C143.67 49.4218 143.474 50.4869 143.557 51.3691C143.325 51.4401 143.314 51.2462 143.285 51.2339C143.597 50.3122 143.34 49.1992 143.422 48.2324Z" fill="#97833D"/>
<path d="M152.837 34.7268C152.859 34.7363 152.817 34.8333 152.837 34.8633C151.767 34.9207 150.622 34.7841 149.562 34.8633V34.7268C150.648 34.7691 151.749 34.6954 152.837 34.7268Z" fill="#97833D"/>
<path d="M98.8114 38.6826H95.6733C95.657 38.6553 95.6843 38.5952 95.6733 38.5461C96.6866 38.6294 97.8418 38.3699 98.8114 38.6826Z" fill="#F6DA31"/>
<path d="M174.802 38.8195C173.766 38.8167 172.696 38.8673 171.664 38.8195C172.593 38.5914 173.874 38.5914 174.802 38.8195Z" fill="#C8A433"/>
<path d="M109.865 38.8195C108.877 38.8386 107.849 38.8563 106.863 38.8195C107.743 38.5914 108.985 38.5914 109.865 38.8195Z" fill="#C8A433"/>
<path d="M139.603 50.0061C140.275 49.737 141.213 49.849 141.904 49.9637C142.148 50.0033 142.412 49.9132 142.331 50.2792C142.042 50.1768 141.926 50.1849 141.649 50.1426C141.609 50.1372 141.5 50.017 141.318 50.0006C140.768 49.9514 140.16 50.0457 139.602 50.0061H139.603Z" fill="#FADE2A"/>
<path d="M115.728 33.0893C116.573 32.7683 117.597 32.9964 118.458 33.092C118.445 33.1575 118.318 33.2163 118.32 33.2258H117.774C117.343 33.051 116.177 32.9923 115.727 33.0893H115.728Z" fill="#FADE2A"/>
<path d="M105.77 54.5068L106.178 54.7786C105.772 54.7062 103.821 54.9397 103.723 54.6434C104.423 54.7253 105.092 54.5888 105.77 54.5068Z" fill="#FBE42A"/>
<path d="M78.0777 28.8603C77.7677 29.3628 78.0422 29.9992 77.2597 29.8162C77.2543 29.5895 77.2625 29.3601 77.2597 29.1334L77.668 29.6783C77.6967 29.3997 77.7418 28.99 77.9398 28.792C77.9876 28.7442 78.0736 28.8644 78.0791 28.8589L78.0777 28.8603Z" fill="#FADE2A"/>
<path d="M142.057 45.0939H139.602C139.617 44.9055 139.802 44.9683 139.935 44.9519C140.648 44.8632 141.381 45.0011 142.057 45.0939Z" fill="#97833D"/>
<path d="M79.9844 38.2729C80.0636 38.0462 81.4332 38.2524 81.3486 37.3184C81.3486 37.3347 81.5001 37.4167 81.4674 37.6201C81.3718 38.2128 80.506 38.4354 79.9844 38.2729Z" fill="#FBE42A"/>
<path d="M118.186 28.1778C117.416 28.2011 116.636 28.1451 115.867 28.1778C115.822 28.1792 115.774 28.171 115.73 28.1778V28.0413C116.417 28.0932 117.181 27.9716 117.855 28.0358C118.038 28.0536 118.142 28.171 118.186 28.1778Z" fill="#B39837"/>
<path d="M106.043 44.9575V45.0941C105.276 45.0476 104.491 45.1282 103.724 45.0941C103.728 45.049 103.72 45.0026 103.724 44.9575H106.043Z" fill="#97833D"/>
<path d="M176.709 28.1775C176.006 28.1297 175.146 28.3277 174.527 28.041C175.232 28.1147 176.08 27.873 176.709 28.1775Z" fill="#B39837"/>
<path d="M141.65 50.141C141.125 50.2407 140.032 50.0017 139.603 50.141C139.607 50.0959 139.599 50.0495 139.603 50.0044C140.161 50.044 140.769 49.9498 141.319 49.999C141.501 50.0153 141.61 50.1355 141.65 50.141Z" fill="#B39837"/>
<path d="M145.197 53.689C145.133 54.1397 145.012 54.6053 144.924 55.0532C144.923 55.0355 144.767 55.03 144.782 54.72C144.797 54.41 144.887 53.5115 145.197 53.689Z" fill="#FBE42A"/>
<path d="M148.332 38.8195C147.707 38.8345 147.046 38.8482 146.422 38.8195C146.907 38.5887 147.875 38.5928 148.332 38.8195Z" fill="#C8A433"/>
<path d="M98.6744 38.1364C99.1947 38.0094 99.1169 38.4054 99.2193 38.8178C99.1305 38.826 99.0363 38.8096 98.9476 38.8178V38.6813C99.0022 38.2539 98.9557 38.2266 98.5352 38.2689C98.5447 38.1965 98.6717 38.1555 98.6744 38.1351V38.1364Z" fill="#F6DA31"/>
<path d="M107.133 36.6357C107.418 36.9321 107.217 37.4878 107.267 37.8647L107.133 37.7268C107.133 37.3636 107.133 36.999 107.133 36.6357Z" fill="#FADE2A"/>
<path d="M143.559 38.1367H144.105C144.082 38.3716 144.211 38.713 143.968 38.8195C144.106 38.1654 143.804 38.362 143.559 38.1367Z" fill="#FADE2A"/>
<path d="M101.27 54.7801L101.543 54.2339C101.543 54.2708 101.756 54.3322 101.618 54.6395C101.465 54.9795 101.291 54.7733 101.27 54.7801Z" fill="#FBE42A"/>
<path d="M124.869 44.9574C124.482 44.4972 123.915 44.941 123.914 44.4111C124.199 44.575 124.755 44.5586 124.948 44.8222C124.996 44.8877 124.867 44.9492 124.869 44.9574Z" fill="#FBE42A"/>
<path d="M137.285 54.7803C137.282 54.7898 137.414 54.8417 137.422 54.9114C137.102 55.1421 136.852 54.9223 136.738 54.9168L137.285 54.7803Z" fill="#FBE42A"/>
<path d="M162.115 37.8636C162.1 37.8554 162.004 38.0725 161.842 37.7926C161.775 37.5113 161.976 37.357 161.978 37.3174L162.115 37.8636Z" fill="#F6DA31"/>
<path d="M142.058 49.1865C142.059 49.2056 142.182 49.2548 142.196 49.3203C141.946 49.2999 141.539 49.4337 141.375 49.1865C141.602 49.1865 141.83 49.1865 142.058 49.1865Z" fill="#FADE2A"/>
<path d="M125.004 45.6404V45.2307C125.024 45.228 125.067 45.1037 125.138 45.0928L125.004 45.6404Z" fill="#FADE2A"/>
<path d="M142.742 50.4144C142.732 50.4022 142.551 50.3202 142.469 50.2779C142.562 50.0676 142.68 50.2519 142.742 50.4144Z" fill="#FADE2A"/>
<path d="M136.672 38.5464C136.761 38.5915 136.761 38.6379 136.672 38.6829V38.5464Z" fill="#F6DA31"/>
<path d="M164.978 31.7256C165.415 31.6246 165.181 31.9865 165.069 32.0916C164.448 32.6679 163.26 32.829 162.449 32.8181C162.186 32.814 161.901 32.9519 161.977 32.545C162.023 32.545 162.069 32.545 162.114 32.545C163.46 32.5368 164.008 32.7389 164.979 31.727L164.978 31.7256Z" fill="#FADE2A"/>
<path d="M161.976 28.1779V28.3144C162.03 29.5339 161.904 30.7806 161.976 31.9973C161.989 32.194 161.997 32.3756 162.113 32.5436C162.068 32.5436 162.021 32.5436 161.976 32.5436C161.931 32.5436 161.875 32.534 161.84 32.5436V28.1779C161.979 27.9963 161.907 28.1779 161.976 28.1779Z" fill="#B39837"/>
<path d="M161.841 32.543C161.834 32.5444 161.754 32.8107 161.705 32.6113C161.778 31.3154 161.61 29.9307 161.698 28.6471C161.714 28.4068 161.684 28.3835 161.841 28.1787V32.5444V32.543Z" fill="#FADE2A"/>
<path d="M161.841 33.6346V37.0458L161.706 37.1824L161.703 33.5677C161.74 33.3684 161.833 33.6374 161.84 33.636L161.841 33.6346Z" fill="#F6DA31"/>
<path d="M103.723 44.9576C104.501 44.6463 105.487 44.9016 106.314 44.8224L106.043 44.9576H103.724H103.723Z" fill="#FBE42A"/>
<path d="M152.428 33.771C152.436 33.7983 152.566 33.842 152.557 33.9594C152.544 34.0523 152.455 34.0223 152.428 34.0441H149.29C149.038 33.8406 149.264 33.872 149.29 33.771C150.219 33.999 151.5 33.999 152.428 33.771Z" fill="#97833D"/>
<path d="M152.834 34.7267C151.747 34.6953 150.647 34.7691 149.56 34.7267C149.457 34.7226 149.139 34.7704 149.355 34.5902C150.485 34.6762 151.746 34.414 152.833 34.7267H152.834Z" fill="#FADE2A"/>
<path d="M152.427 34.0439C152.144 34.272 149.564 34.2652 149.289 34.0439H152.427Z" fill="#FBE42A"/>
<path d="M115.591 37.4552C115.561 37.4634 115.564 37.6259 115.456 37.5918C115.533 36.3245 115.351 34.9439 115.447 33.6917C115.464 33.4541 115.426 33.4282 115.591 33.2261V37.4552Z" fill="#FADE2A"/>
<path d="M115.594 32.2703C115.355 31.2379 115.444 30.0035 115.455 28.9261C115.458 28.6953 115.367 28.3198 115.594 28.1777V32.2703Z" fill="#FADE2A"/>
<path d="M151.061 46.8679C151.065 46.3463 151.046 45.8192 151.061 45.2962C151.065 45.1774 151.005 44.8046 151.197 45.0258V53.6193L151.061 53.4144C151.073 51.2336 151.044 49.046 151.061 46.8666V46.8679Z" fill="#FADE2A"/>
<path d="M161.976 31.9969C161.904 30.7788 162.029 29.5334 161.976 28.314C162.202 28.456 162.113 28.8315 162.116 29.0623C162.125 30.0018 162.218 31.1079 161.976 31.9969Z" fill="#918EA2"/>
</svg>
