<svg width="152" height="152" viewBox="0 0 152 152" fill="none" xmlns="http://www.w3.org/2000/svg">
<path d="M151.339 85.0714C149.905 79.3192 149.904 72.6742 151.337 66.9217C151.373 66.7766 151.408 66.6311 151.441 66.4851C152.241 62.9718 152.171 59.3164 151.239 55.836C150.306 52.3556 148.538 49.1553 146.089 46.5127C145.986 46.4023 145.883 46.2931 145.779 46.185C141.662 41.9209 138.34 36.1677 136.705 30.4703C136.664 30.3256 136.621 30.1813 136.576 30.0374C135.512 26.5947 133.624 23.4637 131.076 20.9159C128.528 18.3681 125.397 16.4805 121.954 15.4169C121.812 15.3729 121.669 15.3304 121.526 15.2893C115.826 13.6538 110.071 10.3298 105.805 6.21144C105.698 6.10781 105.589 6.0052 105.48 5.90364C102.837 3.45356 99.6366 1.68553 96.1557 0.75307C92.6748 -0.179393 89.0189 -0.248106 85.5054 0.552894C85.3598 0.586091 85.2146 0.62074 85.0699 0.656831C79.3167 2.0914 72.6703 2.09317 66.9166 0.660612C66.7723 0.624671 66.6275 0.590164 66.4822 0.557101C62.9689 -0.242793 59.3135 -0.173402 55.8331 0.759251C52.3527 1.6919 49.1524 3.45965 46.5098 5.90914C46.399 6.01182 46.2894 6.11557 46.1809 6.22037C41.9177 10.3373 36.1657 13.659 30.469 15.2937C30.3242 15.3353 30.1797 15.3784 30.0356 15.4229C26.5934 16.4872 23.4628 18.3753 20.9154 20.9233C18.368 23.4714 16.4808 26.6024 15.4173 30.0449C15.3731 30.1882 15.3303 30.3318 15.289 30.4758C13.6547 36.1738 10.3329 41.9277 6.21564 46.1922C6.11147 46.3001 6.00833 46.4092 5.90625 46.5193C3.45676 49.1618 1.689 52.3622 0.756348 55.8426C-0.176305 59.323 -0.245706 62.9784 0.554188 66.4917C0.587501 66.638 0.62228 66.7839 0.658515 66.9293C2.09159 72.6814 2.091 79.3255 0.657373 85.0774C0.621029 85.2232 0.586148 85.3695 0.55274 85.5162C-0.247381 89.0299 -0.17792 92.6857 0.755142 96.1665C1.6882 99.6472 3.45664 102.848 5.90698 105.49C6.00819 105.599 6.11045 105.707 6.21372 105.814C10.3327 110.08 13.6567 115.837 15.2928 121.536C15.3338 121.679 15.3761 121.821 15.4199 121.963C16.4835 125.406 18.3713 128.537 20.9193 131.084C23.4673 133.632 26.5986 135.519 30.0414 136.583C30.184 136.627 30.3269 136.669 30.4701 136.71C36.1693 138.345 41.9255 141.667 46.1915 145.784C46.2987 145.888 46.407 145.99 46.5164 146.092C49.159 148.541 52.3593 150.309 55.8397 151.242C59.3201 152.174 62.9755 152.244 66.4888 151.444C66.6351 151.41 66.781 151.376 66.9265 151.339C72.6785 149.906 79.3227 149.907 85.0746 151.341C85.2204 151.377 85.3667 151.412 85.5134 151.445C89.027 152.245 92.6828 152.176 96.1636 151.243C99.6443 150.31 102.845 148.541 105.487 146.091C105.596 145.99 105.705 145.887 105.812 145.784C110.077 141.665 115.833 138.341 121.533 136.705C121.676 136.664 121.818 136.622 121.96 136.578C125.403 135.514 128.534 133.626 131.082 131.078C133.63 128.531 135.518 125.399 136.581 121.957C136.626 121.814 136.668 121.67 136.709 121.527C138.344 115.828 141.667 110.073 145.784 105.808C145.888 105.7 145.991 105.592 146.093 105.482C148.542 102.839 150.31 99.6386 151.242 96.1579C152.175 92.6773 152.244 89.0217 151.443 85.5084C151.41 85.3623 151.375 85.2166 151.339 85.0714Z" fill="#D7AB42"/>
<path d="M62.3556 105.008L41.2361 83.9021C40.4346 83.0992 39.9844 82.0112 39.9844 80.8767C39.9844 79.7423 40.4346 78.6542 41.2361 77.8514L43.8019 75.2823C44.6048 74.4808 45.6928 74.0306 46.8272 74.0306C47.9617 74.0306 49.0498 74.4808 49.8526 75.2823L65.2047 90.6246L101.36 52.203C102.138 51.3775 103.212 50.8945 104.346 50.8599C105.48 50.8253 106.581 51.242 107.408 52.0186L110.043 54.5053C110.869 55.2834 111.353 56.3579 111.387 57.4925C111.422 58.6271 111.005 59.7289 110.227 60.5559L68.5084 104.913C68.1156 105.332 67.6426 105.667 67.1176 105.899C66.5926 106.131 66.0262 106.256 65.4523 106.264C64.8783 106.273 64.3083 106.167 63.7763 105.951C63.2444 105.735 62.7612 105.415 62.3556 105.008Z" fill="white"/>
</svg>
