<svg width="12" height="12" viewBox="0 0 12 12" fill="none" xmlns="http://www.w3.org/2000/svg">
<path d="M8 1.5C8.38261 1.49998 8.75076 1.64616 9.02913 1.90864C9.3075 2.17112 9.47505 2.53005 9.4975 2.912L9.5 3V8H9.875C10.1985 8 10.465 8.246 10.497 8.561L10.5 8.625V9.5C10.5 9.88261 10.3538 10.2508 10.0914 10.5291C9.82888 10.8075 9.46995 10.9751 9.088 10.9975L9 11H4C3.61739 11 3.24924 10.8538 2.97087 10.5914C2.6925 10.3289 2.52495 9.96995 2.5025 9.588L2.5 9.5V4.5H1.625C1.47027 4.50007 1.32102 4.44274 1.20612 4.33911C1.09122 4.23548 1.01884 4.09292 1.003 3.939L1 3.875V3C0.999979 2.61739 1.14616 2.24924 1.40864 1.97087C1.67112 1.6925 2.03005 1.52495 2.412 1.5025L2.5 1.5H8ZM9.5 9H5V9.5C5 9.675 4.97 9.8435 4.915 10H9C9.13261 10 9.25979 9.94732 9.35355 9.85355C9.44732 9.75979 9.5 9.63261 9.5 9.5V9ZM6 6H5C4.87256 6.00014 4.74998 6.04894 4.65732 6.13642C4.56465 6.22391 4.50888 6.34348 4.50141 6.4707C4.49395 6.59792 4.53534 6.72319 4.61713 6.82092C4.69893 6.91864 4.81495 6.98145 4.9415 6.9965L5 7H6C6.12744 6.99986 6.25002 6.95106 6.34268 6.86358C6.43535 6.77609 6.49112 6.65652 6.49859 6.5293C6.50605 6.40208 6.46466 6.27681 6.38287 6.17908C6.30107 6.08136 6.18505 6.01855 6.0585 6.0035L6 6ZM7 4H5C4.86739 4 4.74021 4.05268 4.64645 4.14645C4.55268 4.24021 4.5 4.36739 4.5 4.5C4.5 4.63261 4.55268 4.75979 4.64645 4.85355C4.74021 4.94732 4.86739 5 5 5H7C7.13261 5 7.25979 4.94732 7.35355 4.85355C7.44732 4.75979 7.5 4.63261 7.5 4.5C7.5 4.36739 7.44732 4.24021 7.35355 4.14645C7.25979 4.05268 7.13261 4 7 4ZM2.5 2.5C2.36739 2.5 2.24021 2.55268 2.14645 2.64645C2.05268 2.74021 2 2.86739 2 3V3.5H2.5V2.5Z" fill="#D7AB42"/>
</svg>
