<svg width="12" height="12" viewBox="0 0 12 12" fill="none" xmlns="http://www.w3.org/2000/svg">
<g clip-path="url(#clip0_792_7878)">
<path d="M8.7603 3.69869C9.38936 3.559 10.2087 2.93463 10.3334 2.62713C10.4065 2.44713 10.0419 2.16588 9.94436 2.05244C9.72123 1.79369 9.81123 1.66619 9.89748 1.35775C9.99592 1.00713 9.76248 0.619939 9.43155 0.468064C9.10061 0.316189 8.70498 0.364001 8.37217 0.512126C8.03936 0.660251 7.7553 0.898376 7.47686 1.13275C7.27342 1.00431 6.94905 0.437126 6.42405 0.805564C6.06123 1.05963 6.02842 1.61275 6.0753 2.05431C6.18498 3.07338 6.43623 3.60213 6.90967 3.74463C7.5078 3.92463 8.16967 3.82994 8.7603 3.69869Z" fill="#D7AB42"/>
<path d="M9.78321 0.767578C9.70352 2.14102 8.36384 3.05227 7.72821 3.45352L8.14071 3.80789C8.14071 3.80789 8.40227 3.81352 8.7604 3.69914C9.37446 3.50414 10.2716 2.95289 10.3335 2.62758C10.4245 2.15414 9.93884 2.25727 9.82915 1.8832C9.77196 1.68539 10.1076 1.31133 9.78321 0.767578ZM7.47884 1.13414C7.47884 1.13414 7.23977 0.889453 7.06258 0.777891C6.97446 0.943828 6.91165 1.12383 6.88071 1.30945C6.8254 1.6357 6.88071 2.09883 7.01102 2.44383C7.03165 2.49727 7.10852 2.48883 7.11696 2.43258C7.22946 1.69102 7.47884 1.13414 7.47884 1.13414Z" fill="#D7AB42"/>
<path d="M5.81023 3.57792C5.81023 3.57792 2.88617 3.89386 1.56711 6.43261C0.248044 8.97136 1.36929 10.5107 2.55617 11.0714C3.74304 11.632 6.73367 11.8298 8.67898 11.3685C10.6243 10.9073 11.1109 9.95104 11.0199 9.02761C10.8877 7.67948 9.63523 6.85073 9.63523 6.85073C9.63523 6.85073 9.68492 5.18573 8.39304 4.10479C7.24648 3.14479 5.81023 3.57792 5.81023 3.57792Z" fill="#D7AB42"/>
<path d="M7.00804 7.85026C6.38085 7.05901 5.64023 6.95308 5.40304 6.66901C5.27367 6.51433 5.19773 6.35776 5.22679 6.1637C5.25773 5.95745 5.49679 5.81495 5.68242 5.78026C5.89898 5.73901 6.41554 5.76058 6.8496 6.17401C6.95273 6.27151 6.91523 6.42339 6.91242 6.55933C6.90492 6.85089 7.3221 7.13401 7.6596 6.89026C7.99804 6.64558 7.73835 6.10089 7.51992 5.83651C7.35492 5.63683 6.75679 5.19714 6.01335 5.12776C5.80429 5.10808 4.96335 4.98339 4.47773 5.90683C4.33804 6.17214 4.28648 6.81339 5.01773 7.35526C5.17054 7.4687 5.96367 7.87183 6.18398 8.13339C6.56554 8.5862 6.30398 8.98464 6.00585 9.03714C5.19304 9.17964 4.73273 8.73995 4.64742 8.49901C4.58648 8.32745 4.65023 8.14183 4.57148 7.98058C4.49085 7.81464 4.32585 7.74901 4.15148 7.80433C3.5796 7.9862 3.76148 8.61151 4.0146 8.95558C4.28554 9.32401 4.61835 9.5462 4.99242 9.66808C6.38835 10.1228 7.0596 9.40464 7.17679 8.8787C7.26304 8.49339 7.25367 8.15964 7.00804 7.85026Z" fill="#6B4B46"/>
<path d="M6.66953 4.59277C5.48172 7.12965 5.27734 10.3331 5.27734 10.3331" stroke="#6B4B46" stroke-width="0.625" stroke-miterlimit="10"/>
<path d="M7.65673 2.9963C8.44798 3.25411 8.6233 3.96942 8.56611 4.16442C8.49767 4.39317 7.62111 3.50255 6.31798 3.55599C5.86236 3.57474 5.99455 3.29536 6.20548 3.13411C6.48392 2.9213 6.95173 2.76755 7.65673 2.9963Z" fill="#6B4B46"/>
<path d="M7.65673 2.9963C8.44798 3.25411 8.6233 3.96942 8.56611 4.16442C8.49767 4.39317 7.62111 3.50255 6.31798 3.55599C5.86236 3.57474 5.99455 3.29536 6.20548 3.13411C6.48392 2.9213 6.95173 2.76755 7.65673 2.9963Z" fill="#6B4B46"/>
<path d="M9.04567 5.51807C9.14504 5.44963 9.47879 5.56776 9.57254 6.2212C9.61848 6.54088 9.63254 6.85026 9.63254 6.85026C9.63254 6.85026 9.23879 6.49682 9.10848 6.24838C8.94442 5.93432 8.88067 5.63057 9.04567 5.51807Z" fill="#D7AB42"/>
</g>
<defs>
<clipPath id="clip0_792_7878">
<rect width="12" height="12" fill="white"/>
</clipPath>
</defs>
</svg>
