<svg width="4" height="17" viewBox="0 0 4 17" fill="none" xmlns="http://www.w3.org/2000/svg">
<path d="M1.83333 12.8333C2.31956 12.8333 2.78588 13.0265 3.1297 13.3703C3.47351 13.7141 3.66667 14.1804 3.66667 14.6667C3.66667 15.1529 3.47351 15.6192 3.1297 15.963C2.78588 16.3068 2.31956 16.5 1.83333 16.5C1.3471 16.5 0.880788 16.3068 0.536971 15.963C0.193155 15.6192 0 15.1529 0 14.6667C0 14.1804 0.193155 13.7141 0.536971 13.3703C0.880788 13.0265 1.3471 12.8333 1.83333 12.8333ZM1.83333 6.41667C2.31956 6.41667 2.78588 6.60982 3.1297 6.95364C3.47351 7.29745 3.66667 7.76377 3.66667 8.25C3.66667 8.73623 3.47351 9.20255 3.1297 9.54636C2.78588 9.89018 2.31956 10.0833 1.83333 10.0833C1.3471 10.0833 0.880788 9.89018 0.536971 9.54636C0.193155 9.20255 0 8.73623 0 8.25C0 7.76377 0.193155 7.29745 0.536971 6.95364C0.880788 6.60982 1.3471 6.41667 1.83333 6.41667ZM1.83333 0C2.31956 0 2.78588 0.193153 3.1297 0.536971C3.47351 0.880788 3.66667 1.3471 3.66667 1.83333C3.66667 2.31956 3.47351 2.78588 3.1297 3.12969C2.78588 3.47351 2.31956 3.66667 1.83333 3.66667C1.3471 3.66667 0.880788 3.47351 0.536971 3.12969C0.193155 2.78588 0 2.31956 0 1.83333C0 1.3471 0.193155 0.880788 0.536971 0.536971C0.880788 0.193153 1.3471 0 1.83333 0Z" fill="white"/>
</svg>
