<svg width="10" height="10" viewBox="0 0 10 10" fill="none" xmlns="http://www.w3.org/2000/svg">
<path d="M3.085 0.38C3.69254 0.129974 4.34303 0.000895761 5 0C5.655 0 6.305 0.13 6.915 0.38C7.52 0.63 8.07 1 8.535 1.465C9 1.93 9.37 2.48 9.62 3.085C9.87 3.695 10 4.345 10 5C10 6.325 9.475 7.6 8.535 8.535C8.07131 8.99999 7.52032 9.36878 6.91367 9.62019C6.30702 9.8716 5.65668 10.0007 5 10C4.34303 9.9991 3.69254 9.87003 3.085 9.62C2.47903 9.36815 1.92857 8.99947 1.465 8.535C1.00001 8.07131 0.631219 7.52031 0.379808 6.91367C0.128398 6.30702 -0.000675704 5.65668 2.66008e-06 5C2.66008e-06 3.675 0.525003 2.4 1.465 1.465C1.93 1 2.48 0.63 3.085 0.38ZM5 7.5L5.78 5.79L7.5 5L5.78 4.22L5 2.5L4.215 4.22L2.5 5L4.215 5.79L5 7.5Z" fill="#D7AB42"/>
</svg>
