<svg width="16" height="18" viewBox="0 0 16 18" fill="none" xmlns="http://www.w3.org/2000/svg">
<path d="M7.56179 0C5.92076 0 4.34695 0.651895 3.18657 1.81228C2.02619 2.97266 1.37429 4.54647 1.37429 6.1875V9.48888L0.0487909 12.8081C0.00727538 12.9124 -0.00809558 13.0252 0.00401943 13.1367C0.0161344 13.2483 0.0553672 13.3552 0.118294 13.4481C0.18122 13.541 0.265927 13.617 0.365022 13.6697C0.464117 13.7223 0.574587 13.7499 0.686791 13.75H14.4368C14.549 13.7499 14.6595 13.7223 14.7586 13.6697C14.8577 13.617 14.9424 13.541 15.0053 13.4481C15.0682 13.3552 15.1074 13.2483 15.1196 13.1367C15.1317 13.0252 15.1163 12.9124 15.0748 12.8081L13.7493 9.4875V6.1875C13.7493 4.54647 13.0974 2.97266 11.937 1.81228C10.7766 0.651895 9.20282 0 7.56179 0ZM7.56179 17.1875C6.95201 17.1877 6.35947 16.9851 5.87734 16.6118C5.39522 16.2384 5.05086 15.7154 4.89842 15.125H10.2252C10.0727 15.7154 9.72836 16.2384 9.24624 16.6118C8.76411 16.9851 8.17157 17.1877 7.56179 17.1875Z" fill="#D7AB42"/>
</svg>
