<svg width="27" height="24" viewBox="0 0 27 24" fill="none" xmlns="http://www.w3.org/2000/svg">
<path d="M7.76563 1.70833L7.22396 3.33333H3.33333C1.49479 3.33333 0 4.82813 0 6.66667V20C0 21.8385 1.49479 23.3333 3.33333 23.3333H23.3333C25.1719 23.3333 26.6667 21.8385 26.6667 20V6.66667C26.6667 4.82813 25.1719 3.33333 23.3333 3.33333H19.4427L18.901 1.70833C18.5625 0.6875 17.6094 0 16.5312 0H10.1354C9.05729 0 8.10417 0.6875 7.76563 1.70833ZM13.3333 8.33333C14.6594 8.33333 15.9312 8.86012 16.8689 9.7978C17.8066 10.7355 18.3333 12.0073 18.3333 13.3333C18.3333 14.6594 17.8066 15.9312 16.8689 16.8689C15.9312 17.8066 14.6594 18.3333 13.3333 18.3333C12.0073 18.3333 10.7355 17.8066 9.7978 16.8689C8.86012 15.9312 8.33333 14.6594 8.33333 13.3333C8.33333 12.0073 8.86012 10.7355 9.7978 9.7978C10.7355 8.86012 12.0073 8.33333 13.3333 8.33333Z" fill="#D7AB42"/>
</svg>
