<svg width="14" height="12" viewBox="0 0 14 12" fill="none" xmlns="http://www.w3.org/2000/svg">
<path d="M1.33333 1.33333H3.33333L4.66667 0H8.66667L10 1.33333H12C12.3536 1.33333 12.6928 1.47381 12.9428 1.72386C13.1929 1.97391 13.3333 2.31304 13.3333 2.66667V10.6667C13.3333 11.0203 13.1929 11.3594 12.9428 11.6095C12.6928 11.8595 12.3536 12 12 12H1.33333C0.979711 12 0.640573 11.8595 0.390524 11.6095C0.140476 11.3594 0 11.0203 0 10.6667V2.66667C0 2.31304 0.140476 1.97391 0.390524 1.72386C0.640573 1.47381 0.979711 1.33333 1.33333 1.33333ZM6.66667 3.33333C5.78261 3.33333 4.93477 3.68452 4.30964 4.30964C3.68452 4.93477 3.33333 5.78261 3.33333 6.66667C3.33333 7.55072 3.68452 8.39857 4.30964 9.02369C4.93477 9.64881 5.78261 10 6.66667 10C7.55072 10 8.39857 9.64881 9.02369 9.02369C9.64881 8.39857 10 7.55072 10 6.66667C10 5.78261 9.64881 4.93477 9.02369 4.30964C8.39857 3.68452 7.55072 3.33333 6.66667 3.33333ZM6.66667 4.66667C7.1971 4.66667 7.70581 4.87738 8.08088 5.25245C8.45595 5.62753 8.66667 6.13623 8.66667 6.66667C8.66667 7.1971 8.45595 7.70581 8.08088 8.08088C7.70581 8.45595 7.1971 8.66667 6.66667 8.66667C6.13623 8.66667 5.62753 8.45595 5.25245 8.08088C4.87738 7.70581 4.66667 7.1971 4.66667 6.66667C4.66667 6.13623 4.87738 5.62753 5.25245 5.25245C5.62753 4.87738 6.13623 4.66667 6.66667 4.66667Z" fill="#D7AB42"/>
</svg>
