<svg width="20" height="10" viewBox="0 0 20 10" fill="none" xmlns="http://www.w3.org/2000/svg">
<path d="M4.73 6.576C5.24333 6.576 5.67933 6.39667 6.038 6.038C6.39667 5.67934 6.576 5.24334 6.576 4.73C6.576 4.21667 6.39667 3.78067 6.038 3.422C5.67933 3.06334 5.24333 2.884 4.73 2.884C4.21667 2.884 3.78067 3.06334 3.422 3.422C3.06333 3.78067 2.884 4.21667 2.884 4.73C2.884 5.24334 3.06333 5.67934 3.422 6.038C3.78067 6.39667 4.21667 6.576 4.73 6.576ZM4.73 9.461C3.39667 9.461 2.27467 9.00567 1.364 8.095C0.454667 7.185 0 6.06334 0 4.73C0 3.39667 0.455333 2.27467 1.366 1.364C2.27667 0.453336 3.398 -0.00133041 4.73 2.92398e-06C5.862 2.92398e-06 6.84233 0.319336 7.671 0.958003C8.49967 1.59667 9.03067 2.35434 9.264 3.231H18.313L19.807 4.725L17.327 7.36L15.499 5.981L13.672 7.423L12.115 6.231H9.265C9.02767 7.12367 8.49167 7.88534 7.657 8.516C6.82233 9.14667 5.84667 9.46134 4.73 9.46" fill="#E6B72D"/>
</svg>
