<svg width="24" height="24" viewBox="0 0 24 24" fill="none" xmlns="http://www.w3.org/2000/svg">
<path fill-rule="evenodd" clip-rule="evenodd" d="M16.9491 0C17.5406 0 18.0206 0.48 18.0206 1.07143V2.47714C18.0206 2.7613 17.9077 3.03383 17.7068 3.23476C17.5058 3.43569 17.2333 3.54857 16.9491 3.54857C16.665 3.54857 16.3925 3.43569 16.1915 3.23476C15.9906 3.03383 15.8777 2.7613 15.8777 2.47714V1.07143C15.8777 0.48 16.3577 0 16.9491 0ZM6.93771 14.9794C7.49154 14.9907 8.04203 14.8913 8.55697 14.6871C9.0719 14.483 9.54093 14.1781 9.93657 13.7904C10.3322 13.4027 10.6465 12.94 10.8611 12.4293C11.0757 11.9186 11.1862 11.3702 11.1862 10.8163C11.1862 10.2624 11.0757 9.71398 10.8611 9.2033C10.6465 8.69261 10.3322 8.22987 9.93657 7.84217C9.54093 7.45448 9.0719 7.14962 8.55697 6.94545C8.04203 6.74128 7.49154 6.6419 6.93771 6.65314C5.84821 6.67525 4.81078 7.12358 4.04809 7.90192C3.28539 8.68025 2.8582 9.72656 2.8582 10.8163C2.8582 11.906 3.28539 12.9523 4.04809 13.7307C4.81078 14.509 5.84821 14.9573 6.93771 14.9794ZM0 23.3057C0.0286293 21.4844 0.772248 19.7473 2.07037 18.4695C3.36849 17.1916 5.11701 16.4754 6.93857 16.4754C8.76013 16.4754 10.5087 17.1916 11.8068 18.4695C13.1049 19.7473 13.8485 21.4844 13.8771 23.3057C13.8771 23.4899 13.804 23.6664 13.6738 23.7966C13.5436 23.9269 13.367 24 13.1829 24H0.694286C0.51015 24 0.333555 23.9269 0.203352 23.7966C0.0731478 23.6664 0 23.4899 0 23.3057ZM23.5131 4.27371C23.6309 4.19399 23.7317 4.09161 23.8095 3.97255C23.8873 3.85349 23.9406 3.72013 23.9663 3.58025C23.992 3.44037 23.9897 3.29677 23.9593 3.15781C23.929 3.01886 23.8712 2.88735 23.7895 2.77093C23.7078 2.65451 23.6038 2.55553 23.4834 2.47975C23.363 2.40398 23.2288 2.35292 23.0885 2.32956C22.9482 2.30621 22.8047 2.31102 22.6662 2.34371C22.5278 2.37641 22.3973 2.43634 22.2823 2.52L21.132 3.32743C20.9047 3.49274 20.7515 3.74072 20.7054 4.01792C20.6592 4.29513 20.7238 4.57937 20.8853 4.80939C21.0467 5.03941 21.2921 5.1968 21.5685 5.24763C21.8448 5.29846 22.1301 5.23867 22.3629 5.08114L23.5131 4.27371ZM10.1194 2.78229C9.95643 3.01469 9.89232 3.30228 9.94118 3.58191C9.99003 3.86153 10.1479 4.11035 10.38 4.27371L11.532 5.08114C11.647 5.16481 11.7775 5.22473 11.916 5.25743C12.0544 5.29013 12.1979 5.29494 12.3382 5.27158C12.4785 5.24822 12.6128 5.19717 12.7331 5.12139C12.8535 5.04561 12.9575 4.94663 13.0392 4.83021C13.121 4.7138 13.1787 4.58228 13.209 4.44333C13.2394 4.30438 13.2417 4.16077 13.216 4.02089C13.1903 3.88101 13.137 3.74765 13.0592 3.62859C12.9814 3.50953 12.8806 3.40715 12.7629 3.32743L11.6109 2.52C11.3785 2.357 11.0909 2.29289 10.8112 2.34175C10.5316 2.3906 10.2828 2.54843 10.1194 2.78057V2.78229ZM16.8686 4.86857C17.376 4.8636 17.8794 4.95879 18.3499 5.14868C18.8204 5.33858 19.2489 5.61945 19.6107 5.97521C19.9725 6.33097 20.2606 6.75463 20.4584 7.2219C20.6562 7.68917 20.7598 8.19088 20.7634 8.69829C20.7463 10.104 19.9063 11.4411 18.648 12.0686V13.9766C18.6445 14.0873 18.5982 14.1923 18.519 14.2696C18.4397 14.3469 18.3336 14.3906 18.2229 14.3914H15.672C15.5613 14.3906 15.4552 14.3469 15.3759 14.2696C15.2966 14.1923 15.2504 14.0873 15.2469 13.9766V12.1011C14.6417 11.7929 14.1282 11.331 13.7578 10.7618C13.3874 10.1925 13.1732 9.53587 13.1366 8.85771C13.1189 8.35056 13.2016 7.8449 13.3797 7.36973C13.5579 6.89456 13.828 6.45922 14.1747 6.08864C14.5214 5.71806 14.9378 5.41954 15.4001 5.21018C15.8623 5.00082 16.3614 4.88473 16.8686 4.86857Z" fill="#D7AB42"/>
</svg>
