<svg width="220" height="220" viewBox="0 0 220 220" fill="none" xmlns="http://www.w3.org/2000/svg">
<path d="M160.665 36.7094L161.48 58.8907C161.476 59.0272 161.484 59.1617 161.48 59.2981C160.863 59.1841 161.089 59.6098 161.073 60.0009C160.92 63.857 160.561 67.3791 160.248 71.1965C160.221 71.5204 160.15 72.1213 160.464 72.3209C156.666 102.51 142.717 127.887 115.29 142.23C114.319 142.737 110.947 144.564 110.1 144.575C109.47 144.583 106.796 143.277 106.05 142.912C79.6441 130.051 64.7309 104.801 60.1354 76.3909C60.5143 76.1791 60.3167 75.6617 60.28 75.3337C59.0415 64.4926 58.3896 54.8818 58.905 43.9226C59.015 41.5963 59.4733 39.2415 59.3206 36.9091C76.1689 31.3724 93.1863 26.3328 110.13 21.0874L160.665 36.7074V36.7094ZM67.2569 38.337C67.0776 37.9459 66.605 38.2494 66.3381 38.3309C65.7739 38.5041 62.7061 39.4635 62.5594 39.6917C62.4698 39.877 62.4209 40.0767 62.3924 40.2804C61.9891 43.1668 61.8485 47.0718 61.7548 50.0296C61.545 56.6581 61.7935 64.0119 62.7815 70.4896C62.7876 70.5344 62.975 70.622 62.9852 70.6933C62.5656 71.8096 62.9791 73.482 63.195 74.6574C63.2744 75.0893 62.975 75.3683 63.5943 74.967C65.2015 84.3068 67.2426 92.6607 71.0885 101.357C78.7193 118.617 92.6791 133.149 110.098 140.621C122.992 134.74 134.149 125.644 142.112 113.899C150.024 102.229 154.383 88.5031 156.565 74.6269L157.819 63.1624C157.826 63.5739 157.634 64.5802 158.021 64.79C157.838 63.2663 158.19 61.6733 158.235 60.2209C158.408 54.5641 158.359 48.127 157.817 42.5089C157.724 41.5311 157.538 40.5268 157.408 39.5531L157.208 39.7589C141.505 34.6765 125.738 29.7326 109.89 25.1044C95.7224 29.6368 81.3918 33.7048 67.2589 38.335L67.2569 38.337Z" fill="#E6B92E"/>
<path d="M65.4256 153.725C65.6985 153.766 65.892 153.741 65.9959 154.067L71.225 166.344L76.5152 153.715L76.7189 153.568C76.8126 153.574 76.8778 153.725 76.9246 153.725H81.5039C81.6587 155.09 80.5709 154.55 80.0718 155.041C79.5178 155.585 80.0393 159.034 80.0759 159.934C80.192 162.708 80.0454 166.186 80.5037 168.866C80.5587 169.192 80.6524 169.673 80.8928 169.901C81.5263 170.498 82.4185 169.661 82.113 171.227C81.842 171.233 81.5691 171.221 81.2981 171.227C79.9863 170.887 78.1326 170.887 76.8207 171.227C76.0915 171.201 75.2746 171.514 75.6209 170.537C75.7391 170.205 76.9287 170.087 77.2281 169.6L77.4278 169.805C77.3544 169.243 77.6539 168.414 77.2281 167.972V157.188C77.057 157.151 76.8248 158.149 76.8207 158.204C76.558 157.781 76.0935 158.816 76.0304 158.942C74.7654 161.555 73.755 164.43 72.5817 167.094C72.3474 167.628 70.8318 171.18 70.6078 171.231C70.2656 171.309 69.8174 170.602 69.6585 170.353C68.0167 167.805 66.6396 163.285 65.1913 160.372C65.0976 160.182 64.3602 158.435 63.9996 158.818C64.0037 159.335 63.8265 159.82 63.7878 160.335C63.6289 162.411 63.4252 166.493 63.5841 168.489C63.6085 168.785 63.6859 169.573 63.8428 169.757C63.9996 169.94 64.6535 169.932 64.6087 170.213C64.6046 170.243 64.4152 170.304 64.4009 170.412C65.0283 170.349 65.0976 170.39 65.0161 171.028H64.8124C63.3661 170.563 61.6428 170.948 60.1313 170.824C60.1191 170.769 60.1252 170.679 60.1313 170.62C62.427 170.52 62.4393 168.117 61.9626 166.347C61.9748 166.212 61.9504 166.074 61.9626 165.939C62.5798 166.053 62.3537 165.629 62.37 165.236C62.4861 162.541 63.1644 158.388 62.7631 155.878C62.5309 154.418 61.0846 154.98 60.7424 153.933C61.0154 153.697 64.7757 154.261 65.4215 153.729L65.4256 153.725Z" fill="#E5BA2E"/>
<path d="M116.097 170.005C116.162 169.828 116.402 169.661 116.449 169.449C117.026 166.801 116.918 160.146 116.716 157.278C116.651 156.367 116.643 155.202 115.691 154.835C114.814 154.497 114.771 155.118 114.877 153.521C115.097 153.444 115.321 153.725 115.384 153.725H121.591C121.361 155.139 121.257 154.513 120.419 154.892C119.878 155.137 119.796 156.455 119.751 157.076C119.66 158.361 119.835 159.755 119.759 161.052H127.492V155.66C127.492 155.552 127.107 155.057 126.962 154.968C126.117 154.444 125.64 155.298 125.864 153.523C125.936 153.421 126.125 153.727 126.168 153.727H132.579C132.373 153.963 132.426 154.64 132.35 154.719C131.974 155.108 130.986 154.173 130.749 156.477C130.462 159.296 130.458 165.664 130.745 168.481C130.827 169.276 131 169.697 131.56 170.211C131.927 170.547 132.377 170.251 132.171 171.229C132.096 171.262 131.892 171.217 131.764 171.229V171.026L131.967 170.824L126.066 170.82L126.881 170.4C126.859 170.309 126.675 170.227 126.677 170.211C126.704 170.044 127.14 169.885 127.266 169.681C127.883 168.677 127.294 164.46 127.673 162.971C127.728 162.798 127.488 162.478 127.39 162.478H119.759V168.481C119.759 169.294 120.705 170.797 121.589 170.211V171.229C121.387 171.237 121.183 171.221 120.98 171.229V171.026C119.183 170.557 117.138 170.95 115.282 170.822C115.127 170.201 115.96 170.376 116.301 170.203C116.28 170.109 116.091 170.021 116.095 170.009L116.097 170.005ZM121.287 170.82V171.024C121.42 170.956 121.42 170.887 121.287 170.82Z" fill="#E5BA2E"/>
<path d="M154.56 171.227C153.982 171.156 153.851 170.867 154.149 170.347C154.405 169.901 155.546 170.773 155.778 168.477C156.084 165.458 156.011 159.751 155.789 156.671C155.768 156.377 155.646 155.367 155.53 155.2C155.265 154.825 154.012 154.794 153.947 154.744C153.908 154.711 154.124 153.963 153.949 153.727H162.802C163.114 153.727 165.079 154.369 165.418 154.57C168.153 156.196 168.194 160.402 165.356 161.981C164.99 162.185 163.835 162.362 163.945 162.755L168.797 169.913C169.642 170.651 170.506 169.541 170.227 171.229H166.666C164.584 171.229 161.869 165.069 160.781 163.48C160.107 162.996 159.571 163.403 159.036 163.497C158.968 163.509 158.895 163.482 158.832 163.497C158.822 163.499 158.683 163.099 158.628 163.395L158.632 168.787L158.834 168.583H159.038C159.034 168.718 159.046 168.856 159.038 168.991C159.034 169.048 158.734 169.278 158.834 169.699C159.076 170.117 159.219 169.791 159.241 169.805C159.777 170.107 160.107 170.19 160.565 170.404C161.904 171.03 160.382 171.203 159.649 171.231C158.465 170.871 156.939 171.011 155.676 171.024C155.332 171.028 154.772 170.893 154.56 171.231V171.227ZM158.834 155.353C158.598 155.658 158.644 155.693 158.62 156.051C158.49 157.966 158.738 160.032 158.63 161.965C158.704 162.262 158.824 161.867 158.834 161.863C158.887 161.849 158.968 161.863 159.038 161.863C158.924 162.47 159.349 162.264 159.74 162.27C160.952 162.287 162.725 162.048 163.649 161.187C163.816 161.03 164.165 160.49 163.513 160.641C164.67 159.433 164.584 157.601 163.389 156.389C162.103 155.084 160.739 155.334 159.036 155.351C158.932 155.351 159.042 155.08 158.832 155.351L158.834 155.353Z" fill="#E5BA2E"/>
<path d="M110.196 178.96C116.453 178.966 118.018 186.114 111.825 187.811C113.127 189.088 115.96 194.743 117.323 195.34C118.148 195.7 118.509 194.932 118.336 196.462C117.183 195.983 115.789 196.431 114.585 196.246C113.172 196.028 112.339 194.401 111.617 193.313C111.098 192.526 109.287 189.002 108.89 188.713C108.529 188.45 107.513 188.371 107.236 188.727C107.097 188.905 107.191 189.182 107.144 189.341C106.847 190.363 106.777 193.382 107.028 194.443C107.107 194.779 107.348 195.274 107.637 195.462C108.242 195.851 109.106 195.325 108.973 196.057H102.259C102.188 194.861 102.29 195.409 103.129 195.193C104.025 194.963 103.838 194.401 103.887 193.614H104.091V182.015H103.887V181.404L104.086 180.587C103.981 180.604 103.917 180.789 103.887 180.793C103.596 180.832 103.722 180.536 103.683 180.386C103.681 180.374 103.873 180.282 103.801 180.184C103.514 179.791 102.685 179.815 102.259 179.571C102.259 179.434 102.259 179.3 102.259 179.164C104.673 179.153 107.091 179.17 109.507 179.178C109.882 179.178 110.159 178.96 110.196 178.96ZM107.144 187.1C109.756 187.275 112.451 186.994 112.453 183.743C112.453 180.728 109.617 180.129 107.144 180.386V187.102V187.1Z" fill="#E6B92E"/>
<path d="M173.486 170.005C173.537 169.96 173.831 170.001 173.983 169.797C174.187 169.526 174.264 169.023 174.299 168.681C174.596 165.788 174.599 159.16 174.299 156.269C174.065 153.998 172.413 155.516 172.468 153.725H184.881V157.795C184.075 158.068 183.859 157.29 183.661 156.575C183.653 156.542 184.103 156.603 183.674 156.055C183.476 155.805 182.62 155.316 182.284 155.204C181.516 154.951 178.004 154.701 177.556 155.149C177.357 155.349 177.373 155.353 177.342 155.636C177.135 157.502 177.518 159.749 177.355 161.659C178.74 161.113 180.848 161.977 181.944 160.859C182.276 160.519 182.4 159.863 182.447 159.83C182.48 159.806 183.256 159.991 183.256 160.032V164.509C182.074 164.774 182.608 163.969 182.046 163.379C181.922 163.248 181.237 162.881 181.119 162.881H177.355V169.598H181.119C181.911 169.598 183.449 168.819 184.079 168.284C184.411 168.001 184.448 167.611 184.886 167.359C184.896 167.353 184.955 167.554 185.051 167.53L185.495 167.157L185.087 170.818H172.879C172.72 170.176 173.25 170.541 173.431 170.364C173.547 170.251 173.464 170.027 173.488 170.007L173.486 170.005Z" fill="#E6B92E"/>
<path d="M98.7698 183.203C98.7006 183.313 97.847 183.502 97.7839 183.437C97.3357 178.992 90.4404 179.355 88.218 182.317C86.515 184.588 86.5211 190.271 88.1283 192.581C89.9433 195.189 94.6794 196.203 96.9731 193.718C97.8531 192.765 97.8348 191.282 99.2057 191.577C98.7128 192.254 98.8635 195.35 98.4683 195.668C96.9793 196.863 91.8561 196.774 90.0065 196.399C80.027 194.38 81.3348 179.06 92.3898 178.554C93.3533 178.51 98.2931 178.891 98.5681 179.697C98.6252 179.864 98.8615 183.052 98.7698 183.201V183.203Z" fill="#E7BD2F"/>
<path d="M68.8845 181.606C68.8437 181.211 68.9415 180.536 68.6339 180.229C68.0391 179.634 66.9024 180.628 67.2569 178.96H79.4669V183.03C78.3709 183.276 78.707 182.498 78.212 181.74C77.5174 180.677 76.727 180.657 75.6006 180.587V180.384L76.0059 180.182C74.7715 180.3 73.3028 179.919 72.1396 180.384C72.1335 180.451 72.1457 180.52 72.1396 180.587C71.942 182.51 72.2863 184.735 72.1396 186.692H75.4967C76.7657 186.692 76.6924 184.985 77.8372 185.269V189.746C76.7311 190.239 76.9226 188.118 75.9041 188.118H72.1396V194.834C72.2863 195.276 75.1972 194.926 75.8022 195.036L75.1932 194.631C76.4052 194.484 77.0469 194.604 78.1835 193.855C78.8313 193.429 79.9007 191.351 80.4609 192.215C80.6606 192.522 80.0331 195.099 79.8743 195.647L79.6706 195.547C79.642 195.69 79.7174 196.008 79.6706 196.057C79.2489 196.499 68.9333 195.568 67.4585 196.258C67.0959 196.114 67.2854 195.586 67.2548 195.244C67.7111 195.327 68.0635 195.152 68.475 195.038C68.5076 195.03 68.7663 195.336 68.9945 194.828C69.2002 194.372 68.8844 194.278 68.8824 194.223C68.8783 194.089 68.8743 193.95 68.8824 193.816C69.4996 193.93 69.2735 193.504 69.2898 193.113C69.4446 189.188 69.1737 185.23 69.2898 181.3L68.8824 181.606H68.8845Z" fill="#E5BA2E"/>
<path d="M135.838 171.227C135.5 171.211 135.157 171.241 134.819 171.227C134.669 169.795 134.931 170.433 135.624 170.103C135.901 169.97 136.131 169.6 136.284 169.333L142.271 153.509L144.365 153.542L149.983 168.579C149.954 169.06 151.063 170.07 151.101 170.209C151.105 170.223 150.914 170.309 150.898 170.396L151.712 170.818C149.851 170.875 147.97 170.746 146.106 170.818C145.715 170.834 145.29 170.608 145.404 171.225C145.108 171.085 145.143 170.264 145.198 170.209C145.332 170.074 146.809 170.618 146.84 169.3C146.852 168.777 145.738 165.811 145.402 165.324C145.371 165.279 145.434 165.134 145.402 165.12C143.78 164.654 141.898 165.043 140.213 164.917C139.891 165.185 140.366 165.114 140.519 165.12V165.324C140.201 165.348 139.855 165.22 139.6 165.524C139.474 165.674 138.504 169.037 138.51 169.298C138.545 170.683 140.169 170.058 140.315 170.207V171.227C139.773 171.235 139.227 171.213 138.686 171.227C138.003 170.889 136.561 170.883 135.836 171.227H135.838ZM140.111 163.696C140.073 163.847 139.735 163.8 140.111 164.104C140.521 164.434 144.369 164.444 144.793 164.104C144.833 164.071 144.966 164.118 144.984 163.977C144.998 163.802 144.805 163.737 144.793 163.696C144.192 161.659 143.116 159.657 142.552 157.591C142.155 157.746 142.002 158.255 141.845 158.612C141.254 159.954 140.48 162.264 140.111 163.696Z" fill="#E5BA2E"/>
<path d="M111.214 157.591C109.806 157.724 110.403 157.534 110.1 156.779C108.821 153.601 102.516 154.45 104.26 158.339C105.321 160.706 110.536 161.14 111.805 164.224C112.642 166.257 112.119 168.526 110.507 170.009C108.156 172.172 103.852 171.561 101.068 170.586L100.835 166.949C102.176 166.742 101.728 167.184 102.18 167.946C103.928 170.905 109.898 170.918 109.167 166.45C108.874 164.656 103.956 163.152 102.455 161.563C99.3606 158.292 101.646 153.823 105.844 153.334C106.568 153.25 111.216 153.513 111.216 154.228V157.585L111.214 157.591Z" fill="#E7BD2F"/>
<path d="M63.3702 179.182C63.1644 180.312 64.13 183.126 62.3741 182.826C62.6307 179.451 56.267 178.994 56.2487 182.315C56.2263 186.277 63.8917 185.973 64.407 190.659C65.0996 196.945 57.6502 197.674 53.242 195.82C53.3948 195.248 52.798 192.414 53.022 192.197C53.0587 192.16 53.9896 191.944 54.0243 191.981C54.0732 192.029 54.2096 192.861 54.4663 193.272C55.7843 195.382 59.9357 196.175 61.1885 193.753C62.918 190.412 58.2857 189.365 56.2833 187.996C53.8633 186.342 52.2541 183.757 54.0589 180.926C56.047 177.805 60.3085 178.436 63.3682 179.182H63.3702Z" fill="#E7BD2F"/>
<path d="M165.122 179.182C164.916 180.314 165.884 183.124 164.126 182.826C164.666 179.762 158.877 179.151 158.156 181.433C156.736 185.931 165.141 185.882 166.069 190.343C166.721 193.463 164.389 196.197 161.325 196.611C159.981 196.792 156.176 196.627 155.088 195.831C154.464 195.374 154.913 193.066 154.56 192.186C156.09 191.807 155.404 192.264 156.017 193.274C157.811 196.246 164.432 195.922 163.018 191.359C162.364 189.245 155.862 188.275 155.22 184.505C154.707 181.486 156.591 179.009 159.6 178.601C161.35 178.365 163.403 178.821 165.124 179.178L165.122 179.182Z" fill="#E7BD2F"/>
<path d="M122.202 195.036C122.322 194.506 122.573 194.209 122.617 193.519C122.819 190.414 122.945 184.503 122.609 181.504C122.552 180.995 122.391 180.184 121.851 180.017C121.081 179.779 120.919 180.312 120.778 178.96H132.988C132.849 179.481 133.778 183.928 132.389 183.022C132.277 182.948 131.654 181.345 130.953 180.791C130.674 180.571 129.91 180.18 129.631 180.18H125.765C125.742 180.18 125.459 180.463 125.459 180.486V186.794C125.459 187.177 127.69 187.141 127.901 186.692H128.309C128.551 187.061 129.158 186.861 129.533 186.892C129.511 186.794 129.329 186.721 129.327 186.692C129.311 186.489 130.01 186.391 130.266 186.102C130.627 185.696 130.383 184.928 131.362 185.269C131.24 186.711 131.623 188.371 131.159 189.746C130.26 189.375 130.688 188.978 130.344 188.526C130.252 188.285 130.077 188.01 129.936 188.322C129.886 188.296 129.796 188.344 129.733 188.322C129.853 187.776 129.46 187.911 129.095 187.851C128.064 187.682 126.665 187.513 125.663 187.915C125.657 187.982 125.669 188.051 125.663 188.118C125.457 188.186 125.479 188.206 125.453 188.414C125.209 190.335 125.492 193.099 125.663 195.038H129.224C129.362 195.038 131.106 194.568 131.311 194.472C131.609 194.331 131.646 194.115 131.768 194.022C132.067 193.791 132.342 193.622 132.581 193.309C133.226 192.455 132.786 191.673 134.212 192.192C134.078 192.596 134.066 192.999 134.006 193.413C133.542 193.148 133.408 194.494 133.387 194.951C133.367 195.407 133.597 195.421 133.599 195.448C133.605 195.513 133.599 195.584 133.599 195.651C133.196 195.611 133.263 196.026 132.898 196.073C129.466 196.523 125.031 195.704 121.485 196.059L121.185 195.244C121.242 195.232 121.328 195.24 121.389 195.244C121.556 195.252 121.931 195.58 122.41 195.236C122.395 195.132 122.2 195.054 122.204 195.04L122.202 195.036Z" fill="#E6B92E"/>
<path d="M85.9793 170.209C87.063 169.557 87.0732 169.443 87.1974 168.068C87.4561 165.196 87.4174 160.18 87.2096 157.278C87.1567 156.528 87.0406 155.023 86.3357 154.689C85.7144 154.395 85.1869 154.847 85.3682 153.929L97.1728 154.232V157.589C96.7328 157.257 96.69 156.622 96.2663 156.155C95.0176 154.78 92.8767 154.919 91.1676 154.939C90.8233 154.943 90.2632 154.809 90.0513 155.147V155.351C89.9861 155.361 89.9148 155.342 89.8476 155.351C89.5115 155.562 89.6439 156.123 89.6398 156.467C89.6235 158.074 89.4891 159.916 89.8476 161.456C89.9148 161.462 89.9841 161.449 90.0513 161.456C90.9415 161.547 93.8707 161.57 94.4778 160.997C94.7019 160.785 94.8913 159.865 94.9422 159.828C94.9748 159.804 95.7489 159.991 95.7489 160.034V164.511C94.6122 164.709 95.0828 164.216 94.712 163.619C94.5124 163.297 93.94 163.053 93.9176 162.884C93.9176 162.869 94.105 162.782 94.1233 162.684C92.84 162.541 91.3122 162.201 90.0513 162.68C90.037 162.682 89.8782 162.847 89.8476 162.884C89.6011 163.183 89.6582 163.224 89.6317 163.578C89.4891 165.448 89.76 167.506 89.6459 169.396C89.8048 169.447 89.8007 169.204 89.8476 169.192C89.9107 169.176 89.9861 169.204 90.0513 169.192C89.9759 169.854 92.5202 169.661 93.2026 169.596C94.7589 169.449 96.1176 168.819 97.0648 167.554C97.2522 167.304 97.352 166.778 97.3867 166.752C97.4274 166.721 98.3583 166.919 98.393 166.956C98.5396 167.114 97.6637 170.626 97.7798 171.225C97.5782 171.248 97.3745 171.221 97.1728 171.225V171.021C97.3256 171.015 97.8002 171.085 97.4783 170.818H85.3722C85.25 170.319 85.6432 170.412 85.9813 170.209H85.9793Z" fill="#E5B72C"/>
<path d="M32.6598 155.556L33.0652 156.573L33.0693 153.725C33.1426 153.623 33.328 153.929 33.3728 153.929H47.6178C47.6789 153.929 47.7746 153.672 47.9233 153.725V157.388H47.518L47.5139 156.772C47.41 156.785 47.3285 156.982 47.3143 156.98C47.2083 156.97 46.4241 155.797 45.8028 155.54C44.6946 155.082 43.2015 155.153 42.022 155.147C42.3785 159.653 41.4578 165.016 42.2257 169.394C42.2339 169.439 41.8041 169.6 42.4172 170.119L43.8533 170.818C42.0587 170.842 40.2559 170.793 38.4593 170.818C38.115 170.822 37.5548 170.687 37.343 171.026C37.2513 171.034 37.1617 171.134 37.1393 171.229C37.0048 171.223 36.8663 171.241 36.7318 171.229C36.7685 170.995 36.6687 170.596 36.7318 170.414C37.51 170.655 38.7994 170.323 38.9441 169.441C38.993 169.137 38.7668 169.015 38.7668 168.991C38.773 168.856 38.7587 168.718 38.7668 168.583C39.3209 168.946 39.1498 168.781 39.1743 168.282C39.382 163.996 39.0194 159.557 39.1743 155.255C39.1396 154.996 38.8341 155.369 38.7668 155.357C36.85 155.016 35.4017 155.019 33.882 156.375C33.8739 156.383 33.7455 156.202 33.6743 156.275C33.3809 156.569 33.3137 157.182 33.2689 157.597L32.6598 156.785C32.6537 156.379 32.6517 155.97 32.6598 155.564V155.556Z" fill="#E6B92D"/>
<path d="M138.686 180.791C138.669 180.795 138.539 180.598 138.413 180.632C137.685 180.83 137.433 182.225 136.854 182.622V178.96L151.389 178.984C152.116 179.161 151.49 182.007 151.505 182.622C151.099 182.356 151.034 181.736 150.692 181.302C149.84 180.227 146.339 179.65 145.605 180.386C145.334 180.657 145.416 180.748 145.389 181.08C145.07 185.065 145.652 189.479 145.4 193.512C145.669 193.834 145.597 193.36 145.603 193.207H145.807C145.85 193.997 145.679 194.818 146.618 195.152C146.927 195.262 147.211 195.187 147.437 195.242C147.215 195.523 146.748 195.309 146.828 195.647H147.642V196.057H140.723V195.651C141.376 195.696 142.065 195.47 142.35 194.836C142.611 194.258 142.523 193.612 142.554 193.005H142.758L142.961 193.311V180.492C142.672 180.162 142.762 180.718 142.758 180.895C142.735 181.675 142.764 182.461 142.758 183.24H142.554C142.546 182.292 142.56 181.337 142.554 180.39C141.134 180.233 140.022 180.492 138.686 180.797V180.791Z" fill="#E5B72C"/>
<path d="M51.9933 156.167C51.9322 155.809 52.1135 155.404 51.81 155.027C51.3496 154.454 49.997 155.171 50.3657 153.521C52.4069 154.01 54.5946 153.597 56.6643 153.605C57.1572 153.607 57.2306 154.232 56.9943 154.554C56.758 154.876 56.0328 154.546 55.6681 155.059C55.4991 155.298 55.3117 156.345 55.273 156.699C54.9654 159.537 55.0469 164.762 55.2383 167.673C55.275 168.229 55.5785 170.368 56.1978 170.421C56.7457 170.467 57.2407 169.718 57.0798 170.818H50.5674C50.7731 170.282 51.4331 170.512 51.8161 170.113C52.1176 169.797 51.7815 169.626 51.7896 169.596C51.8283 169.416 51.9567 169.227 51.9933 168.984C52.6106 169.099 52.3844 168.673 52.4007 168.282C52.5494 164.546 52.5515 160.201 52.4007 156.467C52.3804 155.966 52.5433 155.803 51.9933 156.165V156.167Z" fill="#E6B92E"/>
<path d="M60.1333 76.393C58.2837 64.9652 57.7643 50.767 58.9152 39.2557C58.9681 38.722 59.1107 37.1556 59.3206 36.9131C59.4733 39.2435 59.015 41.5983 58.905 43.9267C58.3876 54.8859 59.0415 64.4967 60.28 75.3378C60.3167 75.6637 60.5143 76.1831 60.1354 76.395L60.1333 76.393Z" fill="#F6DA31"/>
<path d="M86.792 157.591C86.7676 156.87 86.955 155.381 86.2502 154.978C85.578 154.593 84.9852 155.076 84.9587 153.725H97.3724C97.1728 154.348 97.8267 157.555 97.5741 157.795C97.517 157.85 96.9182 157.807 96.7532 157.701C96.413 157.479 96.6594 156.438 95.4046 155.795C94.7283 155.446 94.3943 155.471 93.7078 155.355C93.6426 155.344 93.4878 155.169 93.2148 155.143C92.2065 155.047 91.0698 155.228 90.0452 155.151C90.257 154.813 90.8172 154.947 91.1615 154.943C92.8726 154.921 95.0135 154.782 96.2602 156.159C96.6839 156.626 96.7267 157.261 97.1667 157.593V154.236L85.362 153.933C85.1807 154.851 85.7083 154.399 86.3296 154.693C87.0324 155.025 87.1485 156.532 87.2035 157.282C87.4113 160.184 87.45 165.2 87.1913 168.072C87.067 169.447 87.0569 169.561 85.9732 170.213V170.009C87.0548 169.353 86.7472 168.06 86.788 166.956V157.593L86.792 157.591Z" fill="#F6DA31"/>
<path d="M138.686 180.791C137.406 181.192 137.822 183.109 136.651 183.03V178.756H151.914V183.03C150.759 183.303 151.093 182.351 150.584 181.614C149.639 180.247 147.08 180.392 145.607 180.386C146.341 179.65 149.842 180.227 150.694 181.302C151.036 181.736 151.103 182.356 151.507 182.622C151.492 182.005 152.12 179.161 151.391 178.984L136.856 178.96V182.622C137.435 182.225 137.689 180.83 138.415 180.632C138.541 180.598 138.671 180.795 138.688 180.791H138.686Z" fill="#F6DA31"/>
<path d="M32.6598 155.556C32.672 154.88 32.6496 154.196 32.6598 153.519L47.9946 153.507C48.4957 153.601 48.0068 157.239 48.125 157.793L47.3122 156.978C47.3265 156.978 47.408 156.783 47.5119 156.77L47.5159 157.386H47.9213V153.721C47.7726 153.666 47.6789 153.925 47.6157 153.925H33.3707C33.328 153.925 33.1406 153.621 33.0672 153.721L33.0631 156.569L32.6578 155.552L32.6598 155.556Z" fill="#FADE2A"/>
<path d="M160.665 36.7094C160.936 36.8744 161.02 37.1331 161.062 37.4285C161.189 38.3004 161.242 39.9117 161.284 40.8711C161.545 46.7581 161.621 52.9854 161.48 58.8887L160.665 36.7074V36.7094Z" fill="#FADE2A"/>
<path d="M184.881 167.359C184.804 166.548 185.888 166.666 185.918 167.255C185.977 168.392 185.201 170.009 185.283 171.223C185.15 171.248 185.014 171.217 184.881 171.223C184.67 170.885 184.109 171.019 183.765 171.015C182.341 170.997 180.909 171.001 179.485 171.015C179.141 171.019 178.581 170.885 178.369 171.223C178.302 171.223 178.233 171.223 178.165 171.223C176.78 170.883 174.869 170.883 173.484 171.223C173.146 171.207 172.804 171.237 172.466 171.223C172.317 169.964 172.521 170.323 173.484 170.001C173.462 170.021 173.543 170.245 173.427 170.357C173.246 170.535 172.714 170.17 172.875 170.814H185.083L185.491 167.153L185.046 167.526C184.951 167.552 184.892 167.351 184.881 167.355V167.359Z" fill="#F6DA31"/>
<path d="M161.48 59.2982C161.364 63.5943 160.999 68.0595 160.461 72.323C160.148 72.1233 160.219 71.5224 160.246 71.1985C160.559 67.3811 160.918 63.8591 161.071 60.003C161.087 59.6119 160.861 59.1861 161.478 59.3002L161.48 59.2982Z" fill="#FADE2A"/>
<path d="M68.8844 181.606L69.2918 181.3C69.1737 185.23 69.4467 189.188 69.2918 193.113C69.2756 193.504 69.5017 193.93 68.8844 193.816C68.9639 192.374 68.8885 191.331 68.8844 189.95C69.2246 188.493 69.2246 186.523 68.8844 185.065C68.8722 183.883 69.0107 182.802 68.8844 181.606Z" fill="#FBE42A"/>
<path d="M107.144 189.339C107.48 191.308 105.989 195.664 109.179 195.446C109.144 195.78 109.338 196.338 108.975 196.462C107.507 196.104 105.728 196.238 104.19 196.254C103.846 196.258 103.286 196.124 103.074 196.462C102.803 196.45 102.528 196.476 102.259 196.462C102.247 196.328 102.269 196.191 102.259 196.055H108.973C109.106 195.321 108.242 195.847 107.637 195.458C107.346 195.27 107.105 194.775 107.028 194.439C106.777 193.38 106.847 190.359 107.144 189.336V189.339Z" fill="#FBE42A"/>
<path d="M121.185 195.24L121.485 196.055C125.031 195.7 129.464 196.519 132.898 196.069C133.265 196.02 133.196 195.606 133.599 195.647C133.593 195.847 133.585 196.032 133.397 196.159C133.216 196.305 132.943 196.211 132.784 196.258C130.142 196.266 127.49 196.246 124.848 196.258C124.172 196.262 121.069 196.55 120.776 196.258C120.654 196.136 120.756 195.338 121.185 195.242V195.24Z" fill="#FBE42A"/>
<path d="M38.7648 155.353C38.832 155.365 39.1376 154.992 39.1722 155.251C39.0174 159.553 39.378 163.992 39.1722 168.278C39.1478 168.777 39.3189 168.944 38.7648 168.579C38.7954 168.062 38.9543 167.461 38.9685 166.951C39.0011 165.735 38.9604 164.505 38.9685 163.289C38.9828 161.252 39.0887 159.113 38.9767 157.074C38.9441 156.491 38.6976 155.943 38.7648 155.353Z" fill="#FBE42A"/>
<path d="M65.4256 153.725C64.7798 154.257 61.0195 153.694 60.7465 153.929C61.0907 154.974 62.535 154.413 62.7672 155.874C63.1665 158.384 62.4902 162.537 62.3741 165.232C62.3578 165.623 62.5819 166.047 61.9667 165.935C62.1806 163.497 62.5146 160.946 62.5758 158.506C62.5982 157.642 62.757 155.729 62.0787 155.141C61.2985 154.462 60.1924 155.326 60.5408 153.725C62.0522 153.888 63.9752 153.507 65.4256 153.725Z" fill="#F6DA31"/>
<path d="M145.605 184.454C145.563 187.361 145.719 190.302 145.605 193.205C145.599 193.358 145.671 193.832 145.402 193.51C145.654 189.477 145.072 185.063 145.391 181.078C145.418 180.746 145.336 180.655 145.607 180.384C145.889 181.744 145.628 183.077 145.607 184.454H145.605Z" fill="#FBE42A"/>
<path d="M142.35 194.832C142.065 195.466 141.376 195.692 140.721 195.647V196.053H147.64V195.647L146.828 195.645C146.748 195.307 147.215 195.521 147.437 195.24C148.07 195.393 148.3 195.867 147.64 196.258C146.559 196.275 145.467 196.236 144.385 196.258C143.084 196.285 141.81 196.348 140.517 196.462C140.556 196.211 140.458 195.297 140.517 195.24C140.586 195.173 142.016 195.317 142.35 194.834V194.832Z" fill="#FBE42A"/>
<path d="M85.9793 170.209C85.6411 170.412 85.248 170.319 85.3702 170.818H97.4763C97.7981 171.087 97.3255 171.015 97.1707 171.021C93.6344 171.162 90.0309 170.981 86.4844 171.017C86.1402 171.021 85.58 170.887 85.3681 171.225C84.6654 170.064 85.413 170.347 85.9793 170.005V170.209Z" fill="#FADE2A"/>
<path d="M51.9933 156.167C52.5433 155.805 52.3804 155.968 52.4007 156.469C52.5515 160.205 52.5494 164.548 52.4007 168.284C52.3844 168.677 52.6106 169.101 51.9933 168.986C52.4476 166.041 52.4944 159.084 51.9933 156.165V156.167Z" fill="#FBE42A"/>
<path d="M79.8743 195.647C79.8315 195.796 79.9333 196.059 79.8661 196.244C79.2611 196.285 78.65 196.248 78.043 196.258C76.6211 196.281 75.1911 196.246 73.7693 196.258C73.5656 196.258 73.3619 196.258 73.1582 196.258C71.8728 196.254 70.5772 196.264 69.2919 196.258C68.7582 196.256 68.035 196.486 67.4606 196.258C68.9354 195.568 79.2489 196.499 79.6726 196.057C79.7195 196.008 79.6441 195.692 79.6726 195.547L79.8763 195.647H79.8743Z" fill="#FBE42A"/>
<path d="M77.2282 167.563C77.2282 164.654 76.617 160.887 76.8207 158.2C76.8248 158.145 77.055 157.147 77.2261 157.184V167.563H77.2282Z" fill="#FADE2A"/>
<path d="M42.2257 169.394C42.3805 169.716 42.6881 170.013 43.0283 170.117C44.0305 170.427 44.4441 169.695 44.2607 171.227C44.0591 171.235 43.8533 171.219 43.6496 171.227C43.4378 170.889 42.8776 171.024 42.5333 171.019C40.9322 170.999 38.8829 170.875 37.3409 171.024C37.5528 170.685 38.1129 170.82 38.4572 170.816C40.2539 170.793 42.0567 170.84 43.8513 170.816L42.4152 170.117C41.802 169.598 42.2318 169.437 42.2237 169.392L42.2257 169.394Z" fill="#F6DA31"/>
<path d="M97.1707 171.024V171.227C93.2474 171.352 89.2935 171.136 85.3681 171.227C85.58 170.891 86.1402 171.024 86.4844 171.019C90.0309 170.983 93.6365 171.162 97.1707 171.024Z" fill="#C8A433"/>
<path d="M104.091 193.612H103.887C104.117 189.919 103.887 185.761 103.887 182.013H104.091V193.612Z" fill="#97833D"/>
<path d="M130.953 180.791C130.421 180.647 129.857 180.661 129.325 180.587C128.317 180.449 127.223 180.243 126.16 180.376C125.96 180.4 125.685 180.306 125.663 180.587C125.828 182.629 125.61 184.639 125.663 186.694C126.406 186.694 127.158 186.694 127.901 186.694C127.69 187.143 125.459 187.179 125.459 186.796V180.488C125.459 180.465 125.742 180.182 125.765 180.182H129.631C129.912 180.182 130.676 180.571 130.953 180.793V180.791Z" fill="#FADE2A"/>
<path d="M142.756 193.001H142.552C142.707 189.856 142.582 186.405 142.552 183.234H142.756C142.731 186.487 142.774 189.75 142.756 193.001Z" fill="#C8A433"/>
<path d="M86.792 166.954C86.9 163.957 86.8939 160.59 86.792 157.591V166.954Z" fill="#E5B72C"/>
<path d="M145.809 193.205H145.605C145.719 190.302 145.563 187.361 145.605 184.454C145.944 184.666 145.809 185.226 145.813 185.57C145.844 188.078 145.673 190.724 145.809 193.205Z" fill="#97833D"/>
<path d="M116.097 170.005C116.093 170.019 116.28 170.105 116.303 170.199C115.964 170.372 115.129 170.197 115.284 170.818C117.14 170.946 119.185 170.555 120.982 171.022H114.877C114.526 169.981 115.366 170.235 116.097 170.003V170.005Z" fill="#F6DA31"/>
<path d="M151.099 170.209H151.914C151.877 170.543 152.075 171.103 151.71 171.227C150.17 170.871 148.329 171.003 146.722 171.019C146.377 171.023 145.817 170.889 145.605 171.227C145.532 171.217 145.444 171.248 145.402 171.227C145.288 170.61 145.713 170.836 146.104 170.82C147.968 170.746 149.849 170.875 151.71 170.82L150.896 170.398C150.912 170.311 151.103 170.225 151.099 170.211V170.209Z" fill="#F6DA31"/>
<path d="M51.7896 169.598C51.7835 169.626 52.1196 169.799 51.8161 170.115C51.4331 170.514 50.7731 170.284 50.5674 170.818H57.0798C57.0696 170.893 57.1002 170.979 57.0798 171.024H50.3637C50.3005 170.834 50.4024 170.447 50.3637 170.209C51.1194 170.199 51.6246 170.474 51.7896 169.6V169.598Z" fill="#FADE2A"/>
<path d="M126.679 170.209C126.677 170.225 126.861 170.306 126.883 170.398L126.068 170.818L131.969 170.822L131.766 171.024C129.977 171.148 127.997 170.761 126.272 171.227C126.137 171.221 126.001 171.237 125.864 171.227V170.207H126.677L126.679 170.209Z" fill="#FADE2A"/>
<path d="M110.196 178.96C110.159 178.96 109.882 179.18 109.507 179.178C107.091 179.17 104.673 179.153 102.259 179.164L110.196 178.96Z" fill="#FBE42A"/>
<path d="M131.768 194.02C131.644 194.113 131.609 194.329 131.311 194.47C131.108 194.566 129.362 195.036 129.224 195.036H125.663C125.494 193.097 125.209 190.333 125.453 188.412C125.479 188.206 125.455 188.184 125.663 188.116C125.522 189.477 125.492 192.795 125.653 194.13C125.679 194.348 125.644 194.598 125.852 194.743C126.565 195.24 130.796 194.498 131.768 194.018V194.02Z" fill="#FADE2A"/>
<path d="M60.1333 170.616C60.2128 169.85 60.4369 170.412 61.1457 170.103C61.9891 169.736 61.8852 167.265 61.9646 166.342C62.4413 168.113 62.4291 170.516 60.1333 170.616Z" fill="#F6DA31"/>
<path d="M57.0818 171.023C56.9474 171.307 56.8374 171.215 56.5848 171.237C55.2465 171.358 52.1583 171.396 50.8628 171.237C50.6367 171.209 50.4656 171.325 50.3657 171.026H57.0818V171.023Z" fill="#C8A433"/>
<path d="M43.6496 171.227C41.58 171.288 39.1926 171.333 37.1372 171.227C37.1576 171.131 37.2493 171.032 37.3409 171.024C38.883 170.875 40.9322 171.001 42.5333 171.019C42.8776 171.024 43.4378 170.889 43.6496 171.227Z" fill="#C8A433"/>
<path d="M184.881 171.227C182.781 171.339 180.492 171.233 178.369 171.227C178.581 170.891 179.141 171.024 179.485 171.019C180.909 171.005 182.341 171.001 183.765 171.019C184.109 171.024 184.67 170.889 184.881 171.227Z" fill="#C8A433"/>
<path d="M183.661 156.575C183.081 155.536 182.091 155.426 181.015 155.355C180.074 154.9 178.809 155.261 177.76 155.151H177.556C178.004 154.703 181.516 154.953 182.284 155.206C182.62 155.316 183.476 155.807 183.673 156.057C184.105 156.605 183.653 156.544 183.661 156.577V156.575Z" fill="#F6DA31"/>
<path d="M93.1007 162.884C92.0863 162.884 91.0617 162.884 90.0472 162.884V169.192C89.982 169.204 89.9067 169.176 89.8456 169.192V162.884C89.8741 162.847 90.035 162.684 90.0493 162.68C90.7215 162.535 92.4591 162.623 93.1028 162.884H93.1007Z" fill="#B39837"/>
<path d="M90.253 155.353C89.7967 157.3 90.1674 159.455 90.0493 161.458C89.982 161.451 89.9128 161.464 89.8456 161.458V155.353C89.9128 155.344 89.9841 155.363 90.0493 155.353C90.1144 155.342 90.1857 155.355 90.253 155.353Z" fill="#97833D"/>
<path d="M120.982 171.023V171.227C119.395 171.274 116.865 171.421 115.374 171.235C115.148 171.207 114.976 171.323 114.877 171.023H120.982Z" fill="#C8A433"/>
<path d="M151.71 171.227C151.411 171.329 146.19 171.309 145.605 171.227C145.817 170.891 146.377 171.024 146.722 171.019C148.329 171.003 150.17 170.869 151.71 171.227Z" fill="#C8A433"/>
<path d="M131.768 171.024V171.227C130.205 171.37 127.873 171.307 126.274 171.227C128.001 170.761 129.981 171.15 131.768 171.024Z" fill="#C8A433"/>
<path d="M159.038 168.581H158.834V163.493C158.897 163.478 158.97 163.505 159.038 163.493C159.001 165.183 159.086 166.89 159.038 168.581Z" fill="#C8A433"/>
<path d="M159.647 171.227C158.206 171.28 155.923 171.394 154.558 171.227C154.77 170.891 155.33 171.024 155.674 171.019C156.937 171.005 158.461 170.865 159.647 171.227Z" fill="#C8A433"/>
<path d="M64.8145 171.023H65.0182V171.227C63.9202 171.343 61.7385 171.337 60.6304 171.237C60.3635 171.213 60.2963 171.301 60.1354 171.023H64.8165H64.8145Z" fill="#C8A433"/>
<path d="M131.36 185.268C131.66 185.372 131.544 185.539 131.572 185.766C131.731 187.043 131.438 188.632 131.562 189.948C131.216 190.053 131.199 189.764 131.157 189.746C131.621 188.371 131.238 186.711 131.36 185.268Z" fill="#97833D"/>
<path d="M145.402 165.122C145.434 165.136 145.371 165.281 145.402 165.326C143.805 165.411 142.098 165.208 140.517 165.326V165.122C142.136 165.185 143.778 165.075 145.402 165.122Z" fill="#97833D"/>
<path d="M64.8145 171.024H60.1333C60.1089 170.983 60.1496 170.893 60.1333 170.82C61.6448 170.944 63.3682 170.557 64.8145 171.024Z" fill="#F6DA31"/>
<path d="M178.167 171.227C176.621 171.223 175.026 171.299 173.486 171.227C174.871 170.887 176.782 170.887 178.167 171.227Z" fill="#C8A433"/>
<path d="M81.2981 171.227C79.8254 171.256 78.2915 171.282 76.8207 171.227C78.1326 170.887 79.9863 170.887 81.2981 171.227Z" fill="#C8A433"/>
<path d="M125.663 187.915C126.665 187.513 128.064 187.68 129.095 187.851C129.46 187.911 129.853 187.776 129.733 188.322C129.301 188.169 129.128 188.181 128.714 188.118C128.655 188.11 128.492 187.931 128.221 187.906C127.4 187.833 126.494 187.974 125.661 187.915H125.663Z" fill="#FADE2A"/>
<path d="M90.0493 162.68C91.3102 162.201 92.838 162.541 94.1213 162.684C94.103 162.782 93.9135 162.869 93.9156 162.883H93.1007C92.4591 162.623 90.7194 162.535 90.0472 162.68H90.0493Z" fill="#FADE2A"/>
<path d="M75.1931 194.629L75.8022 195.034C75.1972 194.926 72.2863 195.274 72.1396 194.832C73.1846 194.955 74.1828 194.751 75.1931 194.629Z" fill="#FBE42A"/>
<path d="M33.882 156.371C33.4196 157.121 33.8291 158.07 32.6619 157.797C32.6537 157.459 32.6659 157.117 32.6619 156.779L33.2709 157.591C33.3137 157.176 33.3809 156.565 33.6763 156.269C33.7476 156.198 33.8759 156.377 33.8841 156.369L33.882 156.371Z" fill="#FADE2A"/>
<path d="M129.325 180.587H125.663C125.685 180.306 125.962 180.4 126.16 180.376C127.223 180.243 128.317 180.449 129.325 180.587Z" fill="#97833D"/>
<path d="M36.7298 170.412C36.848 170.074 38.8911 170.382 38.7648 168.989C38.7648 169.013 38.9909 169.135 38.942 169.439C38.7995 170.323 37.508 170.655 36.7298 170.412Z" fill="#FBE42A"/>
<path d="M93.7119 155.353C92.563 155.387 91.3998 155.304 90.253 155.353C90.1857 155.355 90.1144 155.342 90.0493 155.353V155.149C91.0739 155.226 92.2126 155.045 93.2189 155.141C93.4918 155.167 93.6467 155.342 93.7119 155.353Z" fill="#B39837"/>
<path d="M75.6005 180.384V180.587C74.4578 180.518 73.2865 180.638 72.1417 180.587C72.1478 180.52 72.1355 180.451 72.1417 180.384H75.6005Z" fill="#97833D"/>
<path d="M181.015 155.353C179.966 155.281 178.683 155.577 177.76 155.149C178.811 155.259 180.076 154.898 181.015 155.353Z" fill="#B39837"/>
<path d="M128.714 188.116C127.932 188.265 126.3 187.909 125.661 188.116C125.667 188.049 125.655 187.98 125.661 187.913C126.494 187.972 127.4 187.831 128.221 187.904C128.492 187.929 128.655 188.108 128.714 188.116Z" fill="#B39837"/>
<path d="M134.006 193.409C133.911 194.081 133.729 194.775 133.599 195.444C133.597 195.417 133.365 195.409 133.387 194.946C133.41 194.484 133.544 193.144 134.006 193.409Z" fill="#FBE42A"/>
<path d="M138.686 171.227C137.753 171.25 136.767 171.27 135.836 171.227C136.559 170.883 138.003 170.889 138.686 171.227Z" fill="#C8A433"/>
<path d="M64.6107 170.209C65.3869 170.019 65.2707 170.61 65.4235 171.225C65.2911 171.237 65.1506 171.213 65.0182 171.225V171.021C65.0996 170.384 65.0304 170.343 64.403 170.406C64.4172 170.298 64.6067 170.237 64.6107 170.207V170.209Z" fill="#F6DA31"/>
<path d="M77.2281 167.97C77.6539 168.412 77.3544 169.241 77.4278 169.803L77.2281 169.598C77.2281 169.056 77.2281 168.512 77.2281 167.97Z" fill="#FADE2A"/>
<path d="M131.564 170.209H132.379C132.344 170.559 132.538 171.068 132.175 171.227C132.381 170.251 131.931 170.545 131.564 170.209Z" fill="#FADE2A"/>
<path d="M68.4771 195.036L68.8845 194.221C68.8845 194.276 69.2022 194.368 68.9965 194.826C68.7683 195.334 68.5096 195.026 68.4771 195.036Z" fill="#FBE42A"/>
<path d="M103.683 180.384C103.107 179.697 102.261 180.359 102.259 179.569C102.685 179.813 103.514 179.789 103.801 180.182C103.873 180.28 103.681 180.372 103.683 180.384Z" fill="#FBE42A"/>
<path d="M122.202 195.036C122.198 195.05 122.395 195.128 122.408 195.232C121.929 195.576 121.556 195.248 121.387 195.24L122.202 195.036Z" fill="#FBE42A"/>
<path d="M159.241 169.801C159.219 169.789 159.076 170.113 158.834 169.695C158.734 169.276 159.034 169.046 159.038 168.987L159.241 169.801Z" fill="#F6DA31"/>
<path d="M129.325 186.692C129.327 186.721 129.511 186.794 129.531 186.892C129.158 186.861 128.551 187.061 128.307 186.692C128.645 186.692 128.985 186.692 129.325 186.692Z" fill="#FADE2A"/>
<path d="M103.887 181.402V180.791C103.917 180.787 103.981 180.602 104.086 180.585L103.887 181.402Z" fill="#FADE2A"/>
<path d="M130.342 188.524C130.328 188.505 130.057 188.383 129.934 188.32C130.073 188.006 130.25 188.281 130.342 188.524Z" fill="#FADE2A"/>
<path d="M67.2569 38.337C65.778 38.8219 64.3113 39.3739 62.81 39.7915C62.4046 43.3583 62.2478 46.9537 62.1704 50.547C61.8322 50.7589 61.9667 51.3191 61.9626 51.6633C61.9402 53.4254 61.9443 55.1976 61.9626 56.9596C61.9667 57.3039 61.8322 57.8641 62.1704 58.0759C62.1928 59.1943 62.1582 60.3207 62.1622 61.4431L62.7815 70.4917C61.7956 64.0139 61.547 56.6602 61.7548 50.0317C61.8485 47.0759 61.987 43.1689 62.3924 40.2824C62.4209 40.0787 62.4719 39.8791 62.5594 39.6937C62.7061 39.4656 65.7739 38.5061 66.3382 38.333C66.607 38.2515 67.0776 37.9459 67.2569 38.3391V38.337Z" fill="#F6DA31"/>
<path d="M157.206 39.763L157.406 39.5572C157.536 40.5309 157.722 41.5352 157.815 42.513C158.357 48.1311 158.404 54.5681 158.233 60.225C158.188 61.6774 157.836 63.2724 158.019 64.7941C157.632 64.5843 157.824 63.578 157.817 63.1665C157.795 61.4431 157.775 59.6933 157.809 57.97C157.821 57.3548 158.007 56.7498 158.021 56.045C158.044 54.9633 158.023 53.8694 158.021 52.7898C158.019 51.755 158.194 50.4431 157.817 49.5346C157.793 48.5222 157.614 47.2226 157.614 46.3813V43.3278C157.614 43.2606 157.422 42.9876 157.402 42.7248C157.324 41.743 157.32 40.7448 157.206 39.765V39.763Z" fill="#FADE2A"/>
<path d="M63.5922 74.9691C62.9709 75.3704 63.2724 75.0913 63.193 74.6595C62.975 73.4841 62.5615 71.8096 62.9831 70.6954C63.197 72.1213 63.3478 73.5452 63.5943 74.9691H63.5922Z" fill="#F6DA31"/>
<path d="M121.287 170.82C121.42 170.887 121.42 170.956 121.287 171.024V170.82Z" fill="#F6DA31"/>
<path d="M163.515 160.645C164.167 160.494 163.819 161.034 163.651 161.191C162.725 162.05 160.952 162.291 159.742 162.274C159.351 162.268 158.926 162.474 159.04 161.867C159.107 161.867 159.176 161.867 159.243 161.867C161.252 161.855 162.069 162.156 163.517 160.647L163.515 160.645Z" fill="#FADE2A"/>
<path d="M159.038 155.353V155.556C159.117 157.375 158.93 159.235 159.038 161.05C159.056 161.344 159.068 161.614 159.241 161.865C159.174 161.865 159.105 161.865 159.038 161.865C158.97 161.865 158.887 161.851 158.834 161.865V155.353C159.042 155.082 158.934 155.353 159.038 155.353Z" fill="#B39837"/>
<path d="M158.834 161.865C158.824 161.867 158.704 162.264 158.63 161.967C158.74 160.034 158.49 157.968 158.62 156.053C158.644 155.695 158.6 155.66 158.834 155.355V161.867V161.865Z" fill="#FADE2A"/>
<path d="M158.834 163.493V168.581L158.632 168.785L158.628 163.393C158.683 163.095 158.822 163.497 158.832 163.495L158.834 163.493Z" fill="#F6DA31"/>
<path d="M72.1396 180.384C73.3007 179.919 74.7715 180.3 76.0059 180.182L75.6006 180.384H72.1417H72.1396Z" fill="#FBE42A"/>
<path d="M144.793 163.696C144.805 163.737 144.998 163.802 144.984 163.977C144.966 164.116 144.833 164.071 144.793 164.104H140.111C139.735 163.8 140.073 163.847 140.111 163.696C141.497 164.036 143.407 164.036 144.793 163.696Z" fill="#97833D"/>
<path d="M145.402 165.122C143.78 165.075 142.138 165.185 140.517 165.122C140.364 165.116 139.889 165.187 140.211 164.918C141.898 165.047 143.778 164.656 145.4 165.122H145.402Z" fill="#FADE2A"/>
<path d="M144.793 164.104C144.371 164.444 140.521 164.434 140.111 164.104H144.793Z" fill="#FBE42A"/>
<path d="M89.8456 169.192C89.8007 169.204 89.8048 169.447 89.6439 169.396C89.758 167.506 89.487 165.446 89.6296 163.578C89.6561 163.224 89.5991 163.185 89.8456 162.884V169.192Z" fill="#FADE2A"/>
<path d="M89.8455 161.458C89.4891 159.918 89.6215 158.076 89.6378 156.469C89.6418 156.125 89.5074 155.564 89.8455 155.353V161.458Z" fill="#FADE2A"/>
<path d="M142.756 183.234C142.762 182.455 142.733 181.669 142.756 180.889C142.762 180.712 142.672 180.156 142.959 180.486V193.305L142.756 192.999C142.774 189.746 142.731 186.483 142.756 183.231V183.234Z" fill="#FADE2A"/>
<path d="M102.463 58.4854V62.3517C102.414 62.3741 102.331 62.3374 102.259 62.3517C102.229 62.3578 101.854 62.146 101.648 62.3537C101.522 62.4821 101.854 62.5411 101.852 62.5554C101.805 62.8141 99.2974 64.515 98.7026 66.6315C97.1056 72.3108 100.939 75.2502 105.25 77.7782C111.342 81.3532 123.642 85.4578 127.252 91.3876C132.171 99.4665 127.812 109.037 119.552 112.512C110.257 116.423 101.08 112.565 91.6768 111.597L91.2674 97.1484C93.3207 96.9711 92.8074 97.2197 93.3513 98.6273C97.1178 108.368 103.6 112.434 114.266 110.073C121.098 108.562 124.037 101.807 118.745 96.635C110.778 88.8474 91.2104 87.9043 91.0841 73.0543C91.0352 67.2548 96.3641 59.0741 102.461 58.4813L102.463 58.4854Z" fill="#E6B92D"/>
<path d="M138.686 45.6643V60.115C138.268 60.0295 137.146 60.2535 136.883 60.0865C136.785 60.0234 136.298 58.245 136.139 57.8804C135.756 57.0045 135.31 56.045 134.819 55.2322C135.249 55.0021 134.365 54.12 134.2 53.9184C130.725 49.6284 125.86 49.2963 120.684 49.1191C119.755 49.0865 113.75 49.0437 113.463 49.3411L113.656 79.2469C113.604 79.5504 113.695 79.9415 113.656 80.2633C110.385 79.2061 107.234 77.5195 104.296 75.6861V49.333C101.235 49.498 98.0935 49.3717 95.038 49.5387C91.0719 49.7567 86.8348 50.5267 84.0441 53.6046C83.7528 53.9265 82.6671 55.6172 82.5204 55.6417C82.5041 55.6437 82.4226 55.4685 82.3371 55.4441C81.7626 56.0022 80.848 59.7382 80.6687 59.893C80.52 60.0213 79.5789 59.8522 79.2652 59.9133V45.6684H138.69L138.686 45.6643Z" fill="#E5B72C"/>
<path d="M105.311 108.548L105.616 108.14C105.409 108.102 104.761 108.201 104.7 108.142C104.61 108.053 104.72 106.04 104.7 105.6C104.639 104.388 104.708 103.669 104.71 102.555C104.716 98.5152 104.685 94.4737 104.704 90.4384L113.465 94.8363L113.656 108.348C111.318 108.436 108.949 108.232 106.61 108.332C106.24 108.348 105.979 108.546 105.922 108.55C105.72 108.564 105.512 108.533 105.311 108.55V108.548Z" fill="#E5B72C"/>
<path d="M125.459 59.7056L125.561 59.9052C125.907 59.0985 126.286 59.2717 127.087 59.2982V65.4032H127.288L127.282 64.0648C127.219 63.8774 127.492 63.6248 127.494 63.5719L127.698 74.9691C127.097 74.9059 126.27 75.2115 125.883 74.6452C124.312 69.9417 121.656 65.8167 117.38 63.2052C116.875 62.8976 115.581 62.4393 115.282 62.148C115.162 60.9807 115.541 59.5752 115.078 58.4854C115.237 58.0148 116.368 58.4507 116.749 58.5444C118.688 59.0272 121.57 60.5815 123.349 60.7098C124.477 60.7933 124.799 60.4756 125.457 59.7056H125.459Z" fill="#E6B92E"/>
<path d="M138.686 45.6643H79.2611V59.9093C79.5768 59.8461 80.5159 60.0172 80.6646 59.8889C80.8439 59.7341 81.7585 55.9981 82.333 55.44C82.4185 55.4644 82.498 55.6396 82.5163 55.6376C82.0172 56.1957 81.0598 59.9602 80.8622 60.0885C80.5933 60.2617 79.2978 60.0233 78.8537 60.113C78.9861 59.8319 79.0472 59.618 79.0574 59.3002C79.1083 57.5483 79.0717 55.7639 79.0574 54.01C79.0391 51.702 79.0268 49.4756 79.0737 47.19C79.088 46.5035 78.487 45.6011 79.363 45.4646L138.684 45.6663L138.686 45.6643Z" fill="#FCED71"/>
<path d="M134.819 55.2282C131.187 49.2087 123.155 49.3126 116.81 49.3146C115.82 49.3146 114.864 49.6711 113.858 49.5306C113.854 52.5128 113.868 55.5032 113.858 58.4854C113.516 59.6689 113.518 61.3902 113.858 62.5554C113.856 64.6556 113.868 66.7639 113.858 68.8641C113.52 69.0759 113.654 69.6361 113.65 69.9804C113.634 71.3696 113.65 72.767 113.654 74.1543C113.654 75.3887 113.481 76.8656 113.858 78.0206C113.832 78.6093 113.734 78.7885 113.654 79.2408L113.461 49.335C113.75 49.0376 119.753 49.0804 120.682 49.113C125.858 49.2902 130.723 49.6222 134.198 53.9122C134.363 54.1139 135.247 54.9959 134.817 55.2261L134.819 55.2282Z" fill="#F6DA31"/>
<path d="M113.654 94.7079L113.858 102.033C113.881 104.211 113.895 106.376 114.062 108.546H105.92C105.977 108.539 106.238 108.342 106.608 108.326C108.947 108.226 111.316 108.429 113.654 108.342L113.463 94.8302L104.702 90.4322C104.683 94.4676 104.714 98.5111 104.708 102.548C104.708 103.663 104.634 104.382 104.698 105.594C104.72 106.034 104.608 108.046 104.698 108.136C104.757 108.195 105.404 108.093 105.614 108.134L105.309 108.541C104.156 108.637 104.359 108.36 104.29 107.321C104.612 107.187 104.612 106.437 104.29 106.303C104.18 102.524 104.27 98.6883 104.29 94.9055C104.63 93.5203 104.63 91.6096 104.29 90.2244C104.38 89.9311 104.5 89.9413 104.712 90.1063L113.65 94.7018L113.654 94.7079Z" fill="#F6DA31"/>
<path d="M125.459 59.7056C125.61 59.5304 125.659 59.0048 125.954 58.96C126.072 58.9417 127.246 59.1189 127.315 59.2126C127.777 59.84 127.343 61.3434 127.331 62.0441C127.323 62.4943 127.523 62.9811 127.494 63.5719C127.492 63.6248 127.219 63.8754 127.282 64.0648L127.288 65.4032H127.087V59.2982C126.286 59.2717 125.907 59.0985 125.561 59.9052L125.459 59.7056Z" fill="#FBE42A"/>
<path d="M62.1683 58.078C61.8322 57.8661 61.9646 57.3059 61.9605 56.9617C61.9422 55.1996 61.9381 53.4274 61.9605 51.6654C61.9646 51.3211 61.8302 50.7609 62.1683 50.5491C62.1133 53.0424 62.1194 55.5846 62.1683 58.078Z" fill="#B39837"/>
<path d="M113.858 102.035L113.654 94.71C113.887 94.8037 113.848 95.0013 113.87 95.1969C114.088 97.2034 113.838 99.9248 113.858 102.035Z" fill="#B39837"/>
<path d="M102.463 58.4854C102.595 58.4731 102.885 58.412 102.874 58.5954C102.644 59.5731 103.007 60.9257 102.862 61.8363C102.809 62.1724 102.769 62.2192 102.463 62.3517V58.4854Z" fill="#FBE42A"/>
<path d="M113.858 74.1543H113.654C113.654 72.767 113.634 71.3696 113.65 69.9804C113.654 69.6361 113.52 69.0759 113.858 68.8641C113.85 70.6241 113.879 72.3943 113.858 74.1543Z" fill="#97833D"/>
<path d="M104.294 94.9116C104.3 93.9277 104.095 90.8905 104.294 90.2305C104.634 91.6157 104.634 93.5265 104.294 94.9116Z" fill="#E5B72C"/>
<path d="M113.858 62.5554C113.518 61.3882 113.516 59.6689 113.858 58.4854C113.854 59.84 113.858 61.2008 113.858 62.5554Z" fill="#97833D"/>
<path d="M113.858 78.0206C113.481 76.8656 113.656 75.3887 113.654 74.1543H113.858C113.844 75.4356 113.915 76.7413 113.858 78.0206Z" fill="#B39837"/>
<path d="M115.284 62.148C115.034 61.9015 114.952 58.8643 115.08 58.4854C115.543 59.5752 115.164 60.9828 115.284 62.148Z" fill="#C8A433"/>
<path d="M158.019 52.7857H157.815C157.807 51.7061 157.842 50.598 157.815 49.5305C158.192 50.4411 158.017 51.753 158.019 52.7857Z" fill="#B39837"/>
<path d="M104.294 107.325C104.272 106.989 104.304 106.645 104.294 106.307C104.616 106.441 104.616 107.191 104.294 107.325Z" fill="#E5B72C"/>
<path d="M102.259 62.3517L101.852 62.5554C101.854 62.5411 101.522 62.482 101.648 62.3537C101.854 62.1459 102.229 62.3578 102.259 62.3517Z" fill="#FBE42A"/>
<path d="M159.038 161.05C158.93 159.233 159.117 157.375 159.038 155.556C159.374 155.768 159.241 156.328 159.245 156.673C159.26 158.074 159.398 159.724 159.038 161.05Z" fill="#918EA2"/>
</svg>
